<svg xmlns="http://www.w3.org/2000/svg" xmlns:xlink="http://www.w3.org/1999/xlink" width="480" zoomAndPan="magnify" viewBox="0 0 360 209.999996" height="280" preserveAspectRatio="xMidYMid meet" version="1.0"><defs><g/><clipPath id="c4cc8f85d1"><path d="M 51.285156 95.511719 L 308.789062 95.511719 L 308.789062 118.601562 L 51.285156 118.601562 Z M 51.285156 95.511719 " clip-rule="nonzero"/></clipPath><clipPath id="089a5e6b4c"><path d="M 61.035156 95.511719 L 298.964844 95.511719 C 301.550781 95.511719 304.03125 96.539062 305.859375 98.367188 C 307.6875 100.199219 308.714844 102.675781 308.714844 105.261719 L 308.714844 108.851562 C 308.714844 111.4375 307.6875 113.917969 305.859375 115.746094 C 304.03125 117.574219 301.550781 118.601562 298.964844 118.601562 L 61.035156 118.601562 C 58.449219 118.601562 55.96875 117.574219 54.140625 115.746094 C 52.3125 113.917969 51.285156 111.4375 51.285156 108.851562 L 51.285156 105.261719 C 51.285156 102.675781 52.3125 100.199219 54.140625 98.367188 C 55.96875 96.539062 58.449219 95.511719 61.035156 95.511719 Z M 61.035156 95.511719 " clip-rule="nonzero"/></clipPath><clipPath id="4917173701"><path d="M 90.324219 152.625 L 128.695312 152.625 L 128.695312 170.554688 L 90.324219 170.554688 Z M 90.324219 152.625 " clip-rule="nonzero"/></clipPath><clipPath id="96c8767d76"><path d="M 99.285156 152.625 L 119.691406 152.625 C 124.644531 152.625 128.65625 156.640625 128.65625 161.589844 C 128.65625 166.539062 124.644531 170.554688 119.691406 170.554688 L 99.285156 170.554688 C 94.335938 170.554688 90.324219 166.539062 90.324219 161.589844 C 90.324219 156.640625 94.335938 152.625 99.285156 152.625 Z M 99.285156 152.625 " clip-rule="nonzero"/></clipPath><clipPath id="3046269885"><path d="M 137.289062 152.625 L 175.660156 152.625 L 175.660156 170.554688 L 137.289062 170.554688 Z M 137.289062 152.625 " clip-rule="nonzero"/></clipPath><clipPath id="1518b3910a"><path d="M 146.25 152.625 L 166.65625 152.625 C 171.609375 152.625 175.621094 156.640625 175.621094 161.589844 C 175.621094 166.539062 171.609375 170.554688 166.65625 170.554688 L 146.25 170.554688 C 141.300781 170.554688 137.289062 166.539062 137.289062 161.589844 C 137.289062 156.640625 141.300781 152.625 146.25 152.625 Z M 146.25 152.625 " clip-rule="nonzero"/></clipPath><clipPath id="0a0be89e9e"><path d="M 184.457031 152.625 L 222.832031 152.625 L 222.832031 170.554688 L 184.457031 170.554688 Z M 184.457031 152.625 " clip-rule="nonzero"/></clipPath><clipPath id="b4e5998e83"><path d="M 193.421875 152.625 L 213.828125 152.625 C 218.777344 152.625 222.789062 156.640625 222.789062 161.589844 C 222.789062 166.539062 218.777344 170.554688 213.828125 170.554688 L 193.421875 170.554688 C 188.46875 170.554688 184.457031 166.539062 184.457031 161.589844 C 184.457031 156.640625 188.46875 152.625 193.421875 152.625 Z M 193.421875 152.625 " clip-rule="nonzero"/></clipPath><clipPath id="30a22890d5"><path d="M 231.34375 152.625 L 269.71875 152.625 L 269.71875 170.554688 L 231.34375 170.554688 Z M 231.34375 152.625 " clip-rule="nonzero"/></clipPath><clipPath id="dfbcaedcac"><path d="M 240.308594 152.625 L 260.714844 152.625 C 265.664062 152.625 269.675781 156.640625 269.675781 161.589844 C 269.675781 166.539062 265.664062 170.554688 260.714844 170.554688 L 240.308594 170.554688 C 235.355469 170.554688 231.34375 166.539062 231.34375 161.589844 C 231.34375 156.640625 235.355469 152.625 240.308594 152.625 Z M 240.308594 152.625 " clip-rule="nonzero"/></clipPath></defs><rect x="-36" width="432" fill="#ffffff" y="-21" height="251.999995" fill-opacity="1"/><rect x="-36" width="432" fill="#323237" y="-21" height="251.999995" fill-opacity="1"/><rect x="-36" width="432" fill="#6366f1" y="-21" height="251.999995" fill-opacity="1"/><g clip-path="url(#c4cc8f85d1)"><g clip-path="url(#089a5e6b4c)"><path fill="#52525b" d="M 51.285156 95.511719 L 308.699219 95.511719 L 308.699219 118.601562 L 51.285156 118.601562 Z M 51.285156 95.511719 " fill-opacity="1" fill-rule="nonzero"/></g></g><g fill="#ffffff" fill-opacity="1"><g transform="translate(79.208671, 51.475561)"><g><path d="M 4.671875 -9.53125 C 6.210938 -9.53125 7.390625 -9.128906 8.203125 -8.328125 C 9.015625 -7.523438 9.421875 -6.335938 9.421875 -4.765625 C 9.421875 -3.191406 9.015625 -2.003906 8.203125 -1.203125 C 7.390625 -0.398438 6.210938 0 4.671875 0 L 1.234375 0 L 1.234375 -9.53125 Z M 4.546875 -1.578125 C 5.535156 -1.578125 6.269531 -1.828125 6.75 -2.328125 C 7.238281 -2.835938 7.484375 -3.648438 7.484375 -4.765625 C 7.484375 -5.878906 7.238281 -6.6875 6.75 -7.1875 C 6.269531 -7.6875 5.535156 -7.9375 4.546875 -7.9375 L 3.125 -7.9375 L 3.125 -1.578125 Z M 4.546875 -1.578125 "/></g></g></g><g fill="#ffffff" fill-opacity="1"><g transform="translate(89.385119, 51.475561)"><g><path d="M 4.171875 0.140625 C 3.472656 0.140625 2.859375 -0.00390625 2.328125 -0.296875 C 1.796875 -0.585938 1.378906 -1.007812 1.078125 -1.5625 C 0.785156 -2.125 0.640625 -2.800781 0.640625 -3.59375 C 0.640625 -4.382812 0.785156 -5.054688 1.078125 -5.609375 C 1.378906 -6.171875 1.796875 -6.597656 2.328125 -6.890625 C 2.859375 -7.179688 3.472656 -7.328125 4.171875 -7.328125 C 4.878906 -7.328125 5.5 -7.179688 6.03125 -6.890625 C 6.5625 -6.597656 6.972656 -6.171875 7.265625 -5.609375 C 7.566406 -5.054688 7.71875 -4.382812 7.71875 -3.59375 C 7.71875 -2.800781 7.566406 -2.125 7.265625 -1.5625 C 6.972656 -1.007812 6.5625 -0.585938 6.03125 -0.296875 C 5.5 -0.00390625 4.878906 0.140625 4.171875 0.140625 Z M 4.171875 -1.390625 C 5.285156 -1.390625 5.84375 -2.125 5.84375 -3.59375 C 5.84375 -4.351562 5.695312 -4.910156 5.40625 -5.265625 C 5.125 -5.617188 4.710938 -5.796875 4.171875 -5.796875 C 3.054688 -5.796875 2.5 -5.0625 2.5 -3.59375 C 2.5 -2.125 3.054688 -1.390625 4.171875 -1.390625 Z M 4.171875 -1.390625 "/></g></g></g><g fill="#ffffff" fill-opacity="1"><g transform="translate(97.732017, 51.475561)"><g><path d="M 1.03125 0 L 1.03125 -7.1875 L 2.765625 -7.1875 L 2.765625 -6.125 L 2.90625 -6.09375 C 3.351562 -6.914062 4.078125 -7.328125 5.078125 -7.328125 C 5.910156 -7.328125 6.519531 -7.097656 6.90625 -6.640625 C 7.300781 -6.191406 7.5 -5.535156 7.5 -4.671875 L 7.5 0 L 5.6875 0 L 5.6875 -4.453125 C 5.6875 -4.929688 5.585938 -5.273438 5.390625 -5.484375 C 5.203125 -5.691406 4.898438 -5.796875 4.484375 -5.796875 C 3.960938 -5.796875 3.554688 -5.628906 3.265625 -5.296875 C 2.984375 -4.960938 2.84375 -4.4375 2.84375 -3.71875 L 2.84375 0 Z M 1.03125 0 "/></g></g></g><g fill="#ffffff" fill-opacity="1"><g transform="translate(106.144022, 51.475561)"><g><path d="M 2.3125 -5.546875 L 1.0625 -5.546875 L 0.765625 -9.53125 L 2.59375 -9.53125 Z M 2.3125 -5.546875 "/></g></g></g><g fill="#ffffff" fill-opacity="1"><g transform="translate(109.510132, 51.475561)"><g><path d="M 4.953125 -1.71875 L 5.421875 -0.375 C 5.234375 -0.21875 4.988281 -0.09375 4.6875 0 C 4.394531 0.09375 4.0625 0.140625 3.6875 0.140625 C 2.90625 0.140625 2.3125 -0.0703125 1.90625 -0.5 C 1.507812 -0.925781 1.3125 -1.539062 1.3125 -2.34375 L 1.3125 -5.765625 L 0.21875 -5.765625 L 0.21875 -7.1875 L 1.3125 -7.1875 L 1.3125 -8.59375 L 3.109375 -8.890625 L 3.109375 -7.1875 L 5.15625 -7.1875 L 5.15625 -5.765625 L 3.109375 -5.765625 L 3.109375 -2.46875 C 3.109375 -2.113281 3.179688 -1.851562 3.328125 -1.6875 C 3.484375 -1.53125 3.703125 -1.453125 3.984375 -1.453125 C 4.304688 -1.453125 4.585938 -1.539062 4.828125 -1.71875 Z M 4.953125 -1.71875 "/></g></g></g><g fill="#ffffff" fill-opacity="1"><g transform="translate(115.089926, 51.475561)"><g/></g></g><g fill="#ffffff" fill-opacity="1"><g transform="translate(118.234667, 51.475561)"><g><path d="M 2.984375 0.140625 C 2.335938 0.140625 1.84375 -0.03125 1.5 -0.375 C 1.15625 -0.726562 0.984375 -1.265625 0.984375 -1.984375 L 0.984375 -10.078125 L 2.796875 -10.078125 L 2.796875 -2.046875 C 2.796875 -1.609375 2.976562 -1.390625 3.34375 -1.390625 C 3.445312 -1.390625 3.554688 -1.410156 3.671875 -1.453125 L 3.765625 -1.421875 L 3.921875 -0.03125 C 3.828125 0.0195312 3.695312 0.0625 3.53125 0.09375 C 3.363281 0.125 3.179688 0.140625 2.984375 0.140625 Z M 2.984375 0.140625 "/></g></g></g><g fill="#ffffff" fill-opacity="1"><g transform="translate(122.36254, 51.475561)"><g><path d="M 4.171875 0.140625 C 3.472656 0.140625 2.859375 -0.00390625 2.328125 -0.296875 C 1.796875 -0.585938 1.378906 -1.007812 1.078125 -1.5625 C 0.785156 -2.125 0.640625 -2.800781 0.640625 -3.59375 C 0.640625 -4.382812 0.785156 -5.054688 1.078125 -5.609375 C 1.378906 -6.171875 1.796875 -6.597656 2.328125 -6.890625 C 2.859375 -7.179688 3.472656 -7.328125 4.171875 -7.328125 C 4.878906 -7.328125 5.5 -7.179688 6.03125 -6.890625 C 6.5625 -6.597656 6.972656 -6.171875 7.265625 -5.609375 C 7.566406 -5.054688 7.71875 -4.382812 7.71875 -3.59375 C 7.71875 -2.800781 7.566406 -2.125 7.265625 -1.5625 C 6.972656 -1.007812 6.5625 -0.585938 6.03125 -0.296875 C 5.5 -0.00390625 4.878906 0.140625 4.171875 0.140625 Z M 4.171875 -1.390625 C 5.285156 -1.390625 5.84375 -2.125 5.84375 -3.59375 C 5.84375 -4.351562 5.695312 -4.910156 5.40625 -5.265625 C 5.125 -5.617188 4.710938 -5.796875 4.171875 -5.796875 C 3.054688 -5.796875 2.5 -5.0625 2.5 -3.59375 C 2.5 -2.125 3.054688 -1.390625 4.171875 -1.390625 Z M 4.171875 -1.390625 "/></g></g></g><g fill="#ffffff" fill-opacity="1"><g transform="translate(130.709437, 51.475561)"><g><path d="M 4.171875 0.140625 C 3.472656 0.140625 2.859375 -0.00390625 2.328125 -0.296875 C 1.796875 -0.585938 1.378906 -1.007812 1.078125 -1.5625 C 0.785156 -2.125 0.640625 -2.800781 0.640625 -3.59375 C 0.640625 -4.382812 0.785156 -5.054688 1.078125 -5.609375 C 1.378906 -6.171875 1.796875 -6.597656 2.328125 -6.890625 C 2.859375 -7.179688 3.472656 -7.328125 4.171875 -7.328125 C 4.878906 -7.328125 5.5 -7.179688 6.03125 -6.890625 C 6.5625 -6.597656 6.972656 -6.171875 7.265625 -5.609375 C 7.566406 -5.054688 7.71875 -4.382812 7.71875 -3.59375 C 7.71875 -2.800781 7.566406 -2.125 7.265625 -1.5625 C 6.972656 -1.007812 6.5625 -0.585938 6.03125 -0.296875 C 5.5 -0.00390625 4.878906 0.140625 4.171875 0.140625 Z M 4.171875 -1.390625 C 5.285156 -1.390625 5.84375 -2.125 5.84375 -3.59375 C 5.84375 -4.351562 5.695312 -4.910156 5.40625 -5.265625 C 5.125 -5.617188 4.710938 -5.796875 4.171875 -5.796875 C 3.054688 -5.796875 2.5 -5.0625 2.5 -3.59375 C 2.5 -2.125 3.054688 -1.390625 4.171875 -1.390625 Z M 4.171875 -1.390625 "/></g></g></g><g fill="#ffffff" fill-opacity="1"><g transform="translate(139.056335, 51.475561)"><g><path d="M 1.03125 0 L 1.03125 -10.078125 L 2.84375 -10.078125 L 2.84375 -4.484375 L 3.015625 -4.484375 L 5.09375 -7.1875 L 6.921875 -7.1875 L 6.921875 -7.03125 L 4.484375 -3.890625 L 7.203125 -0.15625 L 7.203125 0 L 5.296875 0 L 3.015625 -3.03125 L 2.84375 -3.03125 L 2.84375 0 Z M 1.03125 0 "/></g></g></g><g fill="#ffffff" fill-opacity="1"><g transform="translate(146.26384, 51.475561)"><g/></g></g><g fill="#ffffff" fill-opacity="1"><g transform="translate(149.40858, 51.475561)"><g><path d="M 2.796875 0.140625 C 2.335938 0.140625 1.9375 0.0546875 1.59375 -0.109375 C 1.257812 -0.285156 1 -0.535156 0.8125 -0.859375 C 0.632812 -1.191406 0.546875 -1.585938 0.546875 -2.046875 C 0.546875 -2.472656 0.632812 -2.828125 0.8125 -3.109375 C 1 -3.398438 1.28125 -3.640625 1.65625 -3.828125 C 2.039062 -4.015625 2.546875 -4.15625 3.171875 -4.25 C 3.597656 -4.320312 3.921875 -4.398438 4.140625 -4.484375 C 4.367188 -4.566406 4.519531 -4.660156 4.59375 -4.765625 C 4.675781 -4.867188 4.71875 -5 4.71875 -5.15625 C 4.71875 -5.382812 4.632812 -5.5625 4.46875 -5.6875 C 4.3125 -5.8125 4.046875 -5.875 3.671875 -5.875 C 3.273438 -5.875 2.894531 -5.785156 2.53125 -5.609375 C 2.175781 -5.429688 1.863281 -5.195312 1.59375 -4.90625 L 1.46875 -4.90625 L 0.703125 -6.046875 C 1.066406 -6.441406 1.507812 -6.753906 2.03125 -6.984375 C 2.5625 -7.210938 3.140625 -7.328125 3.765625 -7.328125 C 4.710938 -7.328125 5.398438 -7.125 5.828125 -6.71875 C 6.253906 -6.3125 6.46875 -5.738281 6.46875 -5 L 6.46875 -1.875 C 6.46875 -1.550781 6.609375 -1.390625 6.890625 -1.390625 C 7.003906 -1.390625 7.113281 -1.410156 7.21875 -1.453125 L 7.296875 -1.421875 L 7.4375 -0.171875 C 7.332031 -0.109375 7.191406 -0.0546875 7.015625 -0.015625 C 6.835938 0.0234375 6.644531 0.046875 6.4375 0.046875 C 6 0.046875 5.660156 -0.03125 5.421875 -0.1875 C 5.179688 -0.351562 5.007812 -0.613281 4.90625 -0.96875 L 4.765625 -0.984375 C 4.410156 -0.234375 3.753906 0.140625 2.796875 0.140625 Z M 3.375 -1.21875 C 3.789062 -1.21875 4.125 -1.351562 4.375 -1.625 C 4.625 -1.90625 4.75 -2.296875 4.75 -2.796875 L 4.75 -3.53125 L 4.625 -3.5625 C 4.519531 -3.46875 4.378906 -3.390625 4.203125 -3.328125 C 4.023438 -3.273438 3.769531 -3.222656 3.4375 -3.171875 C 3.050781 -3.097656 2.769531 -2.984375 2.59375 -2.828125 C 2.425781 -2.671875 2.34375 -2.445312 2.34375 -2.15625 C 2.34375 -1.84375 2.429688 -1.609375 2.609375 -1.453125 C 2.796875 -1.296875 3.050781 -1.21875 3.375 -1.21875 Z M 3.375 -1.21875 "/></g></g></g><g fill="#ffffff" fill-opacity="1"><g transform="translate(156.980692, 51.475561)"><g><path d="M 3.734375 3.046875 C 2.546875 3.046875 1.664062 2.867188 1.09375 2.515625 C 0.53125 2.171875 0.25 1.691406 0.25 1.078125 C 0.25 0.703125 0.367188 0.390625 0.609375 0.140625 C 0.859375 -0.0976562 1.207031 -0.257812 1.65625 -0.34375 L 1.65625 -0.46875 C 1.414062 -0.625 1.238281 -0.789062 1.125 -0.96875 C 1.019531 -1.144531 0.96875 -1.351562 0.96875 -1.59375 C 0.96875 -2.175781 1.34375 -2.566406 2.09375 -2.765625 L 2.09375 -2.90625 C 1.707031 -3.125 1.414062 -3.394531 1.21875 -3.71875 C 1.03125 -4.050781 0.9375 -4.445312 0.9375 -4.90625 C 0.9375 -5.382812 1.046875 -5.804688 1.265625 -6.171875 C 1.484375 -6.535156 1.800781 -6.816406 2.21875 -7.015625 C 2.644531 -7.222656 3.15625 -7.328125 3.75 -7.328125 C 4.34375 -7.328125 4.820312 -7.222656 5.1875 -7.015625 C 5.40625 -7.335938 5.53125 -7.707031 5.5625 -8.125 L 5.703125 -8.203125 L 7 -7.890625 C 6.957031 -7.546875 6.851562 -7.253906 6.6875 -7.015625 C 6.53125 -6.785156 6.285156 -6.582031 5.953125 -6.40625 L 5.953125 -6.265625 C 6.347656 -5.910156 6.546875 -5.410156 6.546875 -4.765625 C 6.546875 -4.328125 6.4375 -3.929688 6.21875 -3.578125 C 6 -3.222656 5.675781 -2.941406 5.25 -2.734375 C 4.832031 -2.535156 4.332031 -2.4375 3.75 -2.4375 L 3.46875 -2.4375 C 3.300781 -2.445312 3.179688 -2.453125 3.109375 -2.453125 C 2.941406 -2.453125 2.8125 -2.40625 2.71875 -2.3125 C 2.625 -2.226562 2.578125 -2.117188 2.578125 -1.984375 C 2.578125 -1.828125 2.632812 -1.707031 2.75 -1.625 C 2.875 -1.539062 3.054688 -1.492188 3.296875 -1.484375 L 4.90625 -1.421875 C 6.5 -1.378906 7.296875 -0.695312 7.296875 0.625 C 7.296875 1.09375 7.175781 1.503906 6.9375 1.859375 C 6.695312 2.222656 6.3125 2.507812 5.78125 2.71875 C 5.25 2.9375 4.566406 3.046875 3.734375 3.046875 Z M 3.75 -3.703125 C 4.09375 -3.703125 4.363281 -3.800781 4.5625 -4 C 4.757812 -4.207031 4.859375 -4.5 4.859375 -4.875 C 4.859375 -5.257812 4.757812 -5.550781 4.5625 -5.75 C 4.363281 -5.945312 4.09375 -6.046875 3.75 -6.046875 C 3.394531 -6.046875 3.117188 -5.945312 2.921875 -5.75 C 2.734375 -5.550781 2.640625 -5.257812 2.640625 -4.875 C 2.640625 -4.5 2.734375 -4.207031 2.921875 -4 C 3.117188 -3.800781 3.394531 -3.703125 3.75 -3.703125 Z M 3.734375 1.734375 C 4.347656 1.734375 4.796875 1.644531 5.078125 1.46875 C 5.359375 1.300781 5.5 1.078125 5.5 0.796875 C 5.5 0.578125 5.425781 0.410156 5.28125 0.296875 C 5.132812 0.191406 4.90625 0.132812 4.59375 0.125 L 3.171875 0.0625 C 3.117188 0.0625 3.070312 0.0546875 3.03125 0.046875 C 3 0.046875 2.960938 0.046875 2.921875 0.046875 C 2.617188 0.046875 2.382812 0.109375 2.21875 0.234375 C 2.0625 0.367188 1.984375 0.550781 1.984375 0.78125 C 1.984375 1.09375 2.128906 1.328125 2.421875 1.484375 C 2.710938 1.648438 3.148438 1.734375 3.734375 1.734375 Z M 3.734375 1.734375 "/></g></g></g><g fill="#ffffff" fill-opacity="1"><g transform="translate(164.448631, 51.475561)"><g><path d="M 2.796875 0.140625 C 2.335938 0.140625 1.9375 0.0546875 1.59375 -0.109375 C 1.257812 -0.285156 1 -0.535156 0.8125 -0.859375 C 0.632812 -1.191406 0.546875 -1.585938 0.546875 -2.046875 C 0.546875 -2.472656 0.632812 -2.828125 0.8125 -3.109375 C 1 -3.398438 1.28125 -3.640625 1.65625 -3.828125 C 2.039062 -4.015625 2.546875 -4.15625 3.171875 -4.25 C 3.597656 -4.320312 3.921875 -4.398438 4.140625 -4.484375 C 4.367188 -4.566406 4.519531 -4.660156 4.59375 -4.765625 C 4.675781 -4.867188 4.71875 -5 4.71875 -5.15625 C 4.71875 -5.382812 4.632812 -5.5625 4.46875 -5.6875 C 4.3125 -5.8125 4.046875 -5.875 3.671875 -5.875 C 3.273438 -5.875 2.894531 -5.785156 2.53125 -5.609375 C 2.175781 -5.429688 1.863281 -5.195312 1.59375 -4.90625 L 1.46875 -4.90625 L 0.703125 -6.046875 C 1.066406 -6.441406 1.507812 -6.753906 2.03125 -6.984375 C 2.5625 -7.210938 3.140625 -7.328125 3.765625 -7.328125 C 4.710938 -7.328125 5.398438 -7.125 5.828125 -6.71875 C 6.253906 -6.3125 6.46875 -5.738281 6.46875 -5 L 6.46875 -1.875 C 6.46875 -1.550781 6.609375 -1.390625 6.890625 -1.390625 C 7.003906 -1.390625 7.113281 -1.410156 7.21875 -1.453125 L 7.296875 -1.421875 L 7.4375 -0.171875 C 7.332031 -0.109375 7.191406 -0.0546875 7.015625 -0.015625 C 6.835938 0.0234375 6.644531 0.046875 6.4375 0.046875 C 6 0.046875 5.660156 -0.03125 5.421875 -0.1875 C 5.179688 -0.351562 5.007812 -0.613281 4.90625 -0.96875 L 4.765625 -0.984375 C 4.410156 -0.234375 3.753906 0.140625 2.796875 0.140625 Z M 3.375 -1.21875 C 3.789062 -1.21875 4.125 -1.351562 4.375 -1.625 C 4.625 -1.90625 4.75 -2.296875 4.75 -2.796875 L 4.75 -3.53125 L 4.625 -3.5625 C 4.519531 -3.46875 4.378906 -3.390625 4.203125 -3.328125 C 4.023438 -3.273438 3.769531 -3.222656 3.4375 -3.171875 C 3.050781 -3.097656 2.769531 -2.984375 2.59375 -2.828125 C 2.425781 -2.671875 2.34375 -2.445312 2.34375 -2.15625 C 2.34375 -1.84375 2.429688 -1.609375 2.609375 -1.453125 C 2.796875 -1.296875 3.050781 -1.21875 3.375 -1.21875 Z M 3.375 -1.21875 "/></g></g></g><g fill="#ffffff" fill-opacity="1"><g transform="translate(172.020743, 51.475561)"><g><path d="M 1.9375 -8.046875 C 1.613281 -8.046875 1.347656 -8.144531 1.140625 -8.34375 C 0.929688 -8.539062 0.828125 -8.796875 0.828125 -9.109375 C 0.828125 -9.421875 0.929688 -9.675781 1.140625 -9.875 C 1.347656 -10.070312 1.613281 -10.171875 1.9375 -10.171875 C 2.15625 -10.171875 2.347656 -10.125 2.515625 -10.03125 C 2.679688 -9.9375 2.8125 -9.8125 2.90625 -9.65625 C 3 -9.5 3.046875 -9.316406 3.046875 -9.109375 C 3.046875 -8.898438 3 -8.710938 2.90625 -8.546875 C 2.8125 -8.390625 2.679688 -8.265625 2.515625 -8.171875 C 2.347656 -8.085938 2.15625 -8.046875 1.9375 -8.046875 Z M 1.03125 0 L 1.03125 -7.1875 L 2.84375 -7.1875 L 2.84375 0 Z M 1.03125 0 "/></g></g></g><g fill="#ffffff" fill-opacity="1"><g transform="translate(175.888182, 51.475561)"><g><path d="M 1.03125 0 L 1.03125 -7.1875 L 2.765625 -7.1875 L 2.765625 -6.125 L 2.90625 -6.09375 C 3.351562 -6.914062 4.078125 -7.328125 5.078125 -7.328125 C 5.910156 -7.328125 6.519531 -7.097656 6.90625 -6.640625 C 7.300781 -6.191406 7.5 -5.535156 7.5 -4.671875 L 7.5 0 L 5.6875 0 L 5.6875 -4.453125 C 5.6875 -4.929688 5.585938 -5.273438 5.390625 -5.484375 C 5.203125 -5.691406 4.898438 -5.796875 4.484375 -5.796875 C 3.960938 -5.796875 3.554688 -5.628906 3.265625 -5.296875 C 2.984375 -4.960938 2.84375 -4.4375 2.84375 -3.71875 L 2.84375 0 Z M 1.03125 0 "/></g></g></g><g fill="#ffffff" fill-opacity="1"><g transform="translate(184.300188, 51.475561)"><g/></g></g><g fill="#ffffff" fill-opacity="1"><g transform="translate(187.444928, 51.475561)"><g><path d="M 1.25 0 L 1.25 -5.765625 L 0.234375 -5.765625 L 0.234375 -7.1875 L 1.25 -7.1875 C 1.175781 -7.5 1.140625 -7.785156 1.140625 -8.046875 C 1.140625 -8.503906 1.242188 -8.894531 1.453125 -9.21875 C 1.660156 -9.539062 1.957031 -9.785156 2.34375 -9.953125 C 2.738281 -10.117188 3.207031 -10.203125 3.75 -10.203125 C 4.539062 -10.203125 5.132812 -10.066406 5.53125 -9.796875 L 5.109375 -8.46875 L 4.96875 -8.4375 C 4.695312 -8.632812 4.351562 -8.734375 3.9375 -8.734375 C 3.613281 -8.734375 3.367188 -8.648438 3.203125 -8.484375 C 3.035156 -8.328125 2.953125 -8.113281 2.953125 -7.84375 C 2.953125 -7.726562 2.957031 -7.617188 2.96875 -7.515625 C 2.988281 -7.421875 3.019531 -7.3125 3.0625 -7.1875 L 5.109375 -7.1875 L 5.109375 -5.765625 L 3.0625 -5.765625 L 3.0625 0 Z M 1.25 0 "/></g></g></g><g fill="#ffffff" fill-opacity="1"><g transform="translate(192.627558, 51.475561)"><g><path d="M 4.171875 0.140625 C 3.472656 0.140625 2.859375 -0.00390625 2.328125 -0.296875 C 1.796875 -0.585938 1.378906 -1.007812 1.078125 -1.5625 C 0.785156 -2.125 0.640625 -2.800781 0.640625 -3.59375 C 0.640625 -4.382812 0.785156 -5.054688 1.078125 -5.609375 C 1.378906 -6.171875 1.796875 -6.597656 2.328125 -6.890625 C 2.859375 -7.179688 3.472656 -7.328125 4.171875 -7.328125 C 4.878906 -7.328125 5.5 -7.179688 6.03125 -6.890625 C 6.5625 -6.597656 6.972656 -6.171875 7.265625 -5.609375 C 7.566406 -5.054688 7.71875 -4.382812 7.71875 -3.59375 C 7.71875 -2.800781 7.566406 -2.125 7.265625 -1.5625 C 6.972656 -1.007812 6.5625 -0.585938 6.03125 -0.296875 C 5.5 -0.00390625 4.878906 0.140625 4.171875 0.140625 Z M 4.171875 -1.390625 C 5.285156 -1.390625 5.84375 -2.125 5.84375 -3.59375 C 5.84375 -4.351562 5.695312 -4.910156 5.40625 -5.265625 C 5.125 -5.617188 4.710938 -5.796875 4.171875 -5.796875 C 3.054688 -5.796875 2.5 -5.0625 2.5 -3.59375 C 2.5 -2.125 3.054688 -1.390625 4.171875 -1.390625 Z M 4.171875 -1.390625 "/></g></g></g><g fill="#ffffff" fill-opacity="1"><g transform="translate(200.974455, 51.475561)"><g><path d="M 1.03125 0 L 1.03125 -7.1875 L 2.78125 -7.1875 L 2.78125 -6.125 L 2.921875 -6.09375 C 3.097656 -6.488281 3.328125 -6.78125 3.609375 -6.96875 C 3.890625 -7.15625 4.234375 -7.25 4.640625 -7.25 C 5.046875 -7.25 5.359375 -7.179688 5.578125 -7.046875 L 5.265625 -5.484375 L 5.125 -5.453125 C 5.007812 -5.503906 4.894531 -5.539062 4.78125 -5.5625 C 4.675781 -5.582031 4.546875 -5.59375 4.390625 -5.59375 C 3.890625 -5.59375 3.503906 -5.414062 3.234375 -5.0625 C 2.972656 -4.707031 2.84375 -4.140625 2.84375 -3.359375 L 2.84375 0 Z M 1.03125 0 "/></g></g></g><g fill="#ffffff" fill-opacity="1"><g transform="translate(206.606336, 51.475561)"><g/></g></g><g fill="#ffffff" fill-opacity="1"><g transform="translate(209.751077, 51.475561)"><g><path d="M 1.59375 3.046875 C 1.28125 3.046875 1 3.019531 0.75 2.96875 C 0.5 2.925781 0.296875 2.863281 0.140625 2.78125 L 0.4375 1.328125 L 0.546875 1.296875 C 0.648438 1.347656 0.78125 1.390625 0.9375 1.421875 C 1.101562 1.460938 1.273438 1.484375 1.453125 1.484375 C 1.742188 1.484375 1.984375 1.441406 2.171875 1.359375 C 2.367188 1.285156 2.53125 1.160156 2.65625 0.984375 C 2.789062 0.804688 2.910156 0.5625 3.015625 0.25 L 0.15625 -7.1875 L 2.046875 -7.1875 L 3.828125 -2.1875 L 3.984375 -2.1875 L 5.734375 -7.1875 L 7.5625 -7.1875 L 4.671875 0.453125 C 4.441406 1.066406 4.1875 1.5625 3.90625 1.9375 C 3.632812 2.3125 3.3125 2.585938 2.9375 2.765625 C 2.5625 2.953125 2.113281 3.046875 1.59375 3.046875 Z M 1.59375 3.046875 "/></g></g></g><g fill="#ffffff" fill-opacity="1"><g transform="translate(217.459912, 51.475561)"><g><path d="M 4.171875 0.140625 C 3.472656 0.140625 2.859375 -0.00390625 2.328125 -0.296875 C 1.796875 -0.585938 1.378906 -1.007812 1.078125 -1.5625 C 0.785156 -2.125 0.640625 -2.800781 0.640625 -3.59375 C 0.640625 -4.382812 0.785156 -5.054688 1.078125 -5.609375 C 1.378906 -6.171875 1.796875 -6.597656 2.328125 -6.890625 C 2.859375 -7.179688 3.472656 -7.328125 4.171875 -7.328125 C 4.878906 -7.328125 5.5 -7.179688 6.03125 -6.890625 C 6.5625 -6.597656 6.972656 -6.171875 7.265625 -5.609375 C 7.566406 -5.054688 7.71875 -4.382812 7.71875 -3.59375 C 7.71875 -2.800781 7.566406 -2.125 7.265625 -1.5625 C 6.972656 -1.007812 6.5625 -0.585938 6.03125 -0.296875 C 5.5 -0.00390625 4.878906 0.140625 4.171875 0.140625 Z M 4.171875 -1.390625 C 5.285156 -1.390625 5.84375 -2.125 5.84375 -3.59375 C 5.84375 -4.351562 5.695312 -4.910156 5.40625 -5.265625 C 5.125 -5.617188 4.710938 -5.796875 4.171875 -5.796875 C 3.054688 -5.796875 2.5 -5.0625 2.5 -3.59375 C 2.5 -2.125 3.054688 -1.390625 4.171875 -1.390625 Z M 4.171875 -1.390625 "/></g></g></g><g fill="#ffffff" fill-opacity="1"><g transform="translate(225.80681, 51.475561)"><g><path d="M 3.296875 0.140625 C 2.484375 0.140625 1.882812 -0.078125 1.5 -0.515625 C 1.113281 -0.960938 0.921875 -1.597656 0.921875 -2.421875 L 0.921875 -7.1875 L 2.734375 -7.1875 L 2.734375 -2.65625 C 2.734375 -2.21875 2.828125 -1.894531 3.015625 -1.6875 C 3.203125 -1.488281 3.492188 -1.390625 3.890625 -1.390625 C 4.390625 -1.390625 4.773438 -1.550781 5.046875 -1.875 C 5.328125 -2.207031 5.46875 -2.722656 5.46875 -3.421875 L 5.46875 -7.1875 L 7.28125 -7.1875 L 7.28125 0 L 5.546875 0 L 5.546875 -1.0625 L 5.40625 -1.09375 C 5.175781 -0.675781 4.894531 -0.363281 4.5625 -0.15625 C 4.226562 0.0390625 3.804688 0.140625 3.296875 0.140625 Z M 3.296875 0.140625 "/></g></g></g><g fill="#ffffff" fill-opacity="1"><g transform="translate(234.114642, 51.475561)"><g><path d="M 1.03125 0 L 1.03125 -7.1875 L 2.78125 -7.1875 L 2.78125 -6.125 L 2.921875 -6.09375 C 3.097656 -6.488281 3.328125 -6.78125 3.609375 -6.96875 C 3.890625 -7.15625 4.234375 -7.25 4.640625 -7.25 C 5.046875 -7.25 5.359375 -7.179688 5.578125 -7.046875 L 5.265625 -5.484375 L 5.125 -5.453125 C 5.007812 -5.503906 4.894531 -5.539062 4.78125 -5.5625 C 4.675781 -5.582031 4.546875 -5.59375 4.390625 -5.59375 C 3.890625 -5.59375 3.503906 -5.414062 3.234375 -5.0625 C 2.972656 -4.707031 2.84375 -4.140625 2.84375 -3.359375 L 2.84375 0 Z M 1.03125 0 "/></g></g></g><g fill="#ffffff" fill-opacity="1"><g transform="translate(239.746514, 51.475561)"><g/></g></g><g fill="#ffffff" fill-opacity="1"><g transform="translate(242.891255, 51.475561)"><g><path d="M 1.03125 0 L 1.03125 -7.1875 L 2.765625 -7.1875 L 2.765625 -6.125 L 2.90625 -6.09375 C 3.351562 -6.914062 4.078125 -7.328125 5.078125 -7.328125 C 5.910156 -7.328125 6.519531 -7.097656 6.90625 -6.640625 C 7.300781 -6.191406 7.5 -5.535156 7.5 -4.671875 L 7.5 0 L 5.6875 0 L 5.6875 -4.453125 C 5.6875 -4.929688 5.585938 -5.273438 5.390625 -5.484375 C 5.203125 -5.691406 4.898438 -5.796875 4.484375 -5.796875 C 3.960938 -5.796875 3.554688 -5.628906 3.265625 -5.296875 C 2.984375 -4.960938 2.84375 -4.4375 2.84375 -3.71875 L 2.84375 0 Z M 1.03125 0 "/></g></g></g><g fill="#ffffff" fill-opacity="1"><g transform="translate(251.303261, 51.475561)"><g><path d="M 7.109375 -3.1875 L 2.484375 -3.1875 C 2.535156 -2.5625 2.710938 -2.101562 3.015625 -1.8125 C 3.316406 -1.53125 3.734375 -1.390625 4.265625 -1.390625 C 4.671875 -1.390625 5.003906 -1.46875 5.265625 -1.625 C 5.523438 -1.78125 5.734375 -2.015625 5.890625 -2.328125 L 6.015625 -2.328125 L 7.21875 -1.5625 C 6.988281 -1.050781 6.632812 -0.640625 6.15625 -0.328125 C 5.6875 -0.015625 5.054688 0.140625 4.265625 0.140625 C 3.515625 0.140625 2.867188 0 2.328125 -0.28125 C 1.796875 -0.5625 1.378906 -0.984375 1.078125 -1.546875 C 0.785156 -2.109375 0.640625 -2.789062 0.640625 -3.59375 C 0.640625 -4.40625 0.789062 -5.09375 1.09375 -5.65625 C 1.40625 -6.21875 1.820312 -6.632812 2.34375 -6.90625 C 2.875 -7.1875 3.46875 -7.328125 4.125 -7.328125 C 5.144531 -7.328125 5.925781 -7.054688 6.46875 -6.515625 C 7.007812 -5.972656 7.28125 -5.179688 7.28125 -4.140625 C 7.28125 -3.765625 7.265625 -3.472656 7.234375 -3.265625 Z M 5.546875 -4.359375 C 5.535156 -4.898438 5.410156 -5.296875 5.171875 -5.546875 C 4.929688 -5.796875 4.582031 -5.921875 4.125 -5.921875 C 3.21875 -5.921875 2.679688 -5.398438 2.515625 -4.359375 Z M 5.546875 -4.359375 "/></g></g></g><g fill="#ffffff" fill-opacity="1"><g transform="translate(259.109763, 51.475561)"><g><path d="M 2.03125 0 L 0.125 0 L 2.171875 -3.734375 L 0.234375 -7.1875 L 2.15625 -7.1875 L 3.40625 -4.828125 L 3.5625 -4.828125 L 4.8125 -7.1875 L 6.671875 -7.1875 L 4.796875 -3.734375 L 6.796875 0 L 4.859375 0 L 3.515625 -2.625 L 3.359375 -2.625 Z M 2.03125 0 "/></g></g></g><g fill="#ffffff" fill-opacity="1"><g transform="translate(266.01776, 51.475561)"><g><path d="M 4.953125 -1.71875 L 5.421875 -0.375 C 5.234375 -0.21875 4.988281 -0.09375 4.6875 0 C 4.394531 0.09375 4.0625 0.140625 3.6875 0.140625 C 2.90625 0.140625 2.3125 -0.0703125 1.90625 -0.5 C 1.507812 -0.925781 1.3125 -1.539062 1.3125 -2.34375 L 1.3125 -5.765625 L 0.21875 -5.765625 L 0.21875 -7.1875 L 1.3125 -7.1875 L 1.3125 -8.59375 L 3.109375 -8.890625 L 3.109375 -7.1875 L 5.15625 -7.1875 L 5.15625 -5.765625 L 3.109375 -5.765625 L 3.109375 -2.46875 C 3.109375 -2.113281 3.179688 -1.851562 3.328125 -1.6875 C 3.484375 -1.53125 3.703125 -1.453125 3.984375 -1.453125 C 4.304688 -1.453125 4.585938 -1.539062 4.828125 -1.71875 Z M 4.953125 -1.71875 "/></g></g></g><g fill="#ffffff" fill-opacity="1"><g transform="translate(67.630219, 69.697388)"><g><path d="M 1.25 0 L 1.25 -5.765625 L 0.234375 -5.765625 L 0.234375 -7.1875 L 1.25 -7.1875 C 1.175781 -7.5 1.140625 -7.785156 1.140625 -8.046875 C 1.140625 -8.503906 1.242188 -8.894531 1.453125 -9.21875 C 1.660156 -9.539062 1.957031 -9.785156 2.34375 -9.953125 C 2.738281 -10.117188 3.207031 -10.203125 3.75 -10.203125 C 4.539062 -10.203125 5.132812 -10.066406 5.53125 -9.796875 L 5.109375 -8.46875 L 4.96875 -8.4375 C 4.695312 -8.632812 4.351562 -8.734375 3.9375 -8.734375 C 3.613281 -8.734375 3.367188 -8.648438 3.203125 -8.484375 C 3.035156 -8.328125 2.953125 -8.113281 2.953125 -7.84375 C 2.953125 -7.726562 2.957031 -7.617188 2.96875 -7.515625 C 2.988281 -7.421875 3.019531 -7.3125 3.0625 -7.1875 L 5.109375 -7.1875 L 5.109375 -5.765625 L 3.0625 -5.765625 L 3.0625 0 Z M 1.25 0 "/></g></g></g><g fill="#ffffff" fill-opacity="1"><g transform="translate(72.812848, 69.697388)"><g><path d="M 1.03125 0 L 1.03125 -7.1875 L 2.78125 -7.1875 L 2.78125 -6.125 L 2.921875 -6.09375 C 3.097656 -6.488281 3.328125 -6.78125 3.609375 -6.96875 C 3.890625 -7.15625 4.234375 -7.25 4.640625 -7.25 C 5.046875 -7.25 5.359375 -7.179688 5.578125 -7.046875 L 5.265625 -5.484375 L 5.125 -5.453125 C 5.007812 -5.503906 4.894531 -5.539062 4.78125 -5.5625 C 4.675781 -5.582031 4.546875 -5.59375 4.390625 -5.59375 C 3.890625 -5.59375 3.503906 -5.414062 3.234375 -5.0625 C 2.972656 -4.707031 2.84375 -4.140625 2.84375 -3.359375 L 2.84375 0 Z M 1.03125 0 "/></g></g></g><g fill="#ffffff" fill-opacity="1"><g transform="translate(78.444729, 69.697388)"><g><path d="M 7.109375 -3.1875 L 2.484375 -3.1875 C 2.535156 -2.5625 2.710938 -2.101562 3.015625 -1.8125 C 3.316406 -1.53125 3.734375 -1.390625 4.265625 -1.390625 C 4.671875 -1.390625 5.003906 -1.46875 5.265625 -1.625 C 5.523438 -1.78125 5.734375 -2.015625 5.890625 -2.328125 L 6.015625 -2.328125 L 7.21875 -1.5625 C 6.988281 -1.050781 6.632812 -0.640625 6.15625 -0.328125 C 5.6875 -0.015625 5.054688 0.140625 4.265625 0.140625 C 3.515625 0.140625 2.867188 0 2.328125 -0.28125 C 1.796875 -0.5625 1.378906 -0.984375 1.078125 -1.546875 C 0.785156 -2.109375 0.640625 -2.789062 0.640625 -3.59375 C 0.640625 -4.40625 0.789062 -5.09375 1.09375 -5.65625 C 1.40625 -6.21875 1.820312 -6.632812 2.34375 -6.90625 C 2.875 -7.1875 3.46875 -7.328125 4.125 -7.328125 C 5.144531 -7.328125 5.925781 -7.054688 6.46875 -6.515625 C 7.007812 -5.972656 7.28125 -5.179688 7.28125 -4.140625 C 7.28125 -3.765625 7.265625 -3.472656 7.234375 -3.265625 Z M 5.546875 -4.359375 C 5.535156 -4.898438 5.410156 -5.296875 5.171875 -5.546875 C 4.929688 -5.796875 4.582031 -5.921875 4.125 -5.921875 C 3.21875 -5.921875 2.679688 -5.398438 2.515625 -4.359375 Z M 5.546875 -4.359375 "/></g></g></g><g fill="#ffffff" fill-opacity="1"><g transform="translate(86.251232, 69.697388)"><g><path d="M 7.109375 -3.1875 L 2.484375 -3.1875 C 2.535156 -2.5625 2.710938 -2.101562 3.015625 -1.8125 C 3.316406 -1.53125 3.734375 -1.390625 4.265625 -1.390625 C 4.671875 -1.390625 5.003906 -1.46875 5.265625 -1.625 C 5.523438 -1.78125 5.734375 -2.015625 5.890625 -2.328125 L 6.015625 -2.328125 L 7.21875 -1.5625 C 6.988281 -1.050781 6.632812 -0.640625 6.15625 -0.328125 C 5.6875 -0.015625 5.054688 0.140625 4.265625 0.140625 C 3.515625 0.140625 2.867188 0 2.328125 -0.28125 C 1.796875 -0.5625 1.378906 -0.984375 1.078125 -1.546875 C 0.785156 -2.109375 0.640625 -2.789062 0.640625 -3.59375 C 0.640625 -4.40625 0.789062 -5.09375 1.09375 -5.65625 C 1.40625 -6.21875 1.820312 -6.632812 2.34375 -6.90625 C 2.875 -7.1875 3.46875 -7.328125 4.125 -7.328125 C 5.144531 -7.328125 5.925781 -7.054688 6.46875 -6.515625 C 7.007812 -5.972656 7.28125 -5.179688 7.28125 -4.140625 C 7.28125 -3.765625 7.265625 -3.472656 7.234375 -3.265625 Z M 5.546875 -4.359375 C 5.535156 -4.898438 5.410156 -5.296875 5.171875 -5.546875 C 4.929688 -5.796875 4.582031 -5.921875 4.125 -5.921875 C 3.21875 -5.921875 2.679688 -5.398438 2.515625 -4.359375 Z M 5.546875 -4.359375 "/></g></g></g><g fill="#ffffff" fill-opacity="1"><g transform="translate(94.057734, 69.697388)"><g><path d="M 2.984375 0.140625 C 2.335938 0.140625 1.84375 -0.03125 1.5 -0.375 C 1.15625 -0.726562 0.984375 -1.265625 0.984375 -1.984375 L 0.984375 -10.078125 L 2.796875 -10.078125 L 2.796875 -2.046875 C 2.796875 -1.609375 2.976562 -1.390625 3.34375 -1.390625 C 3.445312 -1.390625 3.554688 -1.410156 3.671875 -1.453125 L 3.765625 -1.421875 L 3.921875 -0.03125 C 3.828125 0.0195312 3.695312 0.0625 3.53125 0.09375 C 3.363281 0.125 3.179688 0.140625 2.984375 0.140625 Z M 2.984375 0.140625 "/></g></g></g><g fill="#ffffff" fill-opacity="1"><g transform="translate(98.185607, 69.697388)"><g><path d="M 2.796875 0.140625 C 2.335938 0.140625 1.9375 0.0546875 1.59375 -0.109375 C 1.257812 -0.285156 1 -0.535156 0.8125 -0.859375 C 0.632812 -1.191406 0.546875 -1.585938 0.546875 -2.046875 C 0.546875 -2.472656 0.632812 -2.828125 0.8125 -3.109375 C 1 -3.398438 1.28125 -3.640625 1.65625 -3.828125 C 2.039062 -4.015625 2.546875 -4.15625 3.171875 -4.25 C 3.597656 -4.320312 3.921875 -4.398438 4.140625 -4.484375 C 4.367188 -4.566406 4.519531 -4.660156 4.59375 -4.765625 C 4.675781 -4.867188 4.71875 -5 4.71875 -5.15625 C 4.71875 -5.382812 4.632812 -5.5625 4.46875 -5.6875 C 4.3125 -5.8125 4.046875 -5.875 3.671875 -5.875 C 3.273438 -5.875 2.894531 -5.785156 2.53125 -5.609375 C 2.175781 -5.429688 1.863281 -5.195312 1.59375 -4.90625 L 1.46875 -4.90625 L 0.703125 -6.046875 C 1.066406 -6.441406 1.507812 -6.753906 2.03125 -6.984375 C 2.5625 -7.210938 3.140625 -7.328125 3.765625 -7.328125 C 4.710938 -7.328125 5.398438 -7.125 5.828125 -6.71875 C 6.253906 -6.3125 6.46875 -5.738281 6.46875 -5 L 6.46875 -1.875 C 6.46875 -1.550781 6.609375 -1.390625 6.890625 -1.390625 C 7.003906 -1.390625 7.113281 -1.410156 7.21875 -1.453125 L 7.296875 -1.421875 L 7.4375 -0.171875 C 7.332031 -0.109375 7.191406 -0.0546875 7.015625 -0.015625 C 6.835938 0.0234375 6.644531 0.046875 6.4375 0.046875 C 6 0.046875 5.660156 -0.03125 5.421875 -0.1875 C 5.179688 -0.351562 5.007812 -0.613281 4.90625 -0.96875 L 4.765625 -0.984375 C 4.410156 -0.234375 3.753906 0.140625 2.796875 0.140625 Z M 3.375 -1.21875 C 3.789062 -1.21875 4.125 -1.351562 4.375 -1.625 C 4.625 -1.90625 4.75 -2.296875 4.75 -2.796875 L 4.75 -3.53125 L 4.625 -3.5625 C 4.519531 -3.46875 4.378906 -3.390625 4.203125 -3.328125 C 4.023438 -3.273438 3.769531 -3.222656 3.4375 -3.171875 C 3.050781 -3.097656 2.769531 -2.984375 2.59375 -2.828125 C 2.425781 -2.671875 2.34375 -2.445312 2.34375 -2.15625 C 2.34375 -1.84375 2.429688 -1.609375 2.609375 -1.453125 C 2.796875 -1.296875 3.050781 -1.21875 3.375 -1.21875 Z M 3.375 -1.21875 "/></g></g></g><g fill="#ffffff" fill-opacity="1"><g transform="translate(105.757719, 69.697388)"><g><path d="M 1.03125 0 L 1.03125 -7.1875 L 2.765625 -7.1875 L 2.765625 -6.125 L 2.90625 -6.09375 C 3.351562 -6.914062 4.078125 -7.328125 5.078125 -7.328125 C 5.910156 -7.328125 6.519531 -7.097656 6.90625 -6.640625 C 7.300781 -6.191406 7.5 -5.535156 7.5 -4.671875 L 7.5 0 L 5.6875 0 L 5.6875 -4.453125 C 5.6875 -4.929688 5.585938 -5.273438 5.390625 -5.484375 C 5.203125 -5.691406 4.898438 -5.796875 4.484375 -5.796875 C 3.960938 -5.796875 3.554688 -5.628906 3.265625 -5.296875 C 2.984375 -4.960938 2.84375 -4.4375 2.84375 -3.71875 L 2.84375 0 Z M 1.03125 0 "/></g></g></g><g fill="#ffffff" fill-opacity="1"><g transform="translate(114.169725, 69.697388)"><g><path d="M 4.1875 0.140625 C 3.488281 0.140625 2.875 -0.00390625 2.34375 -0.296875 C 1.8125 -0.585938 1.394531 -1.007812 1.09375 -1.5625 C 0.789062 -2.125 0.640625 -2.800781 0.640625 -3.59375 C 0.640625 -4.382812 0.789062 -5.054688 1.09375 -5.609375 C 1.394531 -6.171875 1.8125 -6.597656 2.34375 -6.890625 C 2.875 -7.179688 3.476562 -7.328125 4.15625 -7.328125 C 5.675781 -7.328125 6.644531 -6.773438 7.0625 -5.671875 L 5.828125 -4.78125 L 5.6875 -4.78125 C 5.539062 -5.125 5.347656 -5.378906 5.109375 -5.546875 C 4.878906 -5.710938 4.5625 -5.796875 4.15625 -5.796875 C 3.632812 -5.796875 3.226562 -5.613281 2.9375 -5.25 C 2.644531 -4.882812 2.5 -4.332031 2.5 -3.59375 C 2.5 -2.851562 2.644531 -2.300781 2.9375 -1.9375 C 3.238281 -1.570312 3.65625 -1.390625 4.1875 -1.390625 C 4.582031 -1.390625 4.914062 -1.492188 5.1875 -1.703125 C 5.457031 -1.921875 5.648438 -2.226562 5.765625 -2.625 L 5.90625 -2.625 L 7.1875 -1.921875 C 7 -1.316406 6.660156 -0.820312 6.171875 -0.4375 C 5.679688 -0.0507812 5.019531 0.140625 4.1875 0.140625 Z M 4.1875 0.140625 "/></g></g></g><g fill="#ffffff" fill-opacity="1"><g transform="translate(121.572555, 69.697388)"><g><path d="M 7.109375 -3.1875 L 2.484375 -3.1875 C 2.535156 -2.5625 2.710938 -2.101562 3.015625 -1.8125 C 3.316406 -1.53125 3.734375 -1.390625 4.265625 -1.390625 C 4.671875 -1.390625 5.003906 -1.46875 5.265625 -1.625 C 5.523438 -1.78125 5.734375 -2.015625 5.890625 -2.328125 L 6.015625 -2.328125 L 7.21875 -1.5625 C 6.988281 -1.050781 6.632812 -0.640625 6.15625 -0.328125 C 5.6875 -0.015625 5.054688 0.140625 4.265625 0.140625 C 3.515625 0.140625 2.867188 0 2.328125 -0.28125 C 1.796875 -0.5625 1.378906 -0.984375 1.078125 -1.546875 C 0.785156 -2.109375 0.640625 -2.789062 0.640625 -3.59375 C 0.640625 -4.40625 0.789062 -5.09375 1.09375 -5.65625 C 1.40625 -6.21875 1.820312 -6.632812 2.34375 -6.90625 C 2.875 -7.1875 3.46875 -7.328125 4.125 -7.328125 C 5.144531 -7.328125 5.925781 -7.054688 6.46875 -6.515625 C 7.007812 -5.972656 7.28125 -5.179688 7.28125 -4.140625 C 7.28125 -3.765625 7.265625 -3.472656 7.234375 -3.265625 Z M 5.546875 -4.359375 C 5.535156 -4.898438 5.410156 -5.296875 5.171875 -5.546875 C 4.929688 -5.796875 4.582031 -5.921875 4.125 -5.921875 C 3.21875 -5.921875 2.679688 -5.398438 2.515625 -4.359375 Z M 5.546875 -4.359375 "/></g></g></g><g fill="#ffffff" fill-opacity="1"><g transform="translate(129.379057, 69.697388)"><g/></g></g><g fill="#ffffff" fill-opacity="1"><g transform="translate(132.523798, 69.697388)"><g><path d="M 1.03125 2.90625 L 1.03125 -7.1875 L 2.84375 -7.1875 L 2.84375 -6.25 L 2.984375 -6.21875 C 3.191406 -6.582031 3.472656 -6.859375 3.828125 -7.046875 C 4.179688 -7.234375 4.597656 -7.328125 5.078125 -7.328125 C 5.660156 -7.328125 6.164062 -7.1875 6.59375 -6.90625 C 7.03125 -6.632812 7.367188 -6.21875 7.609375 -5.65625 C 7.847656 -5.101562 7.96875 -4.414062 7.96875 -3.59375 C 7.96875 -2.769531 7.835938 -2.078125 7.578125 -1.515625 C 7.328125 -0.960938 6.972656 -0.546875 6.515625 -0.265625 C 6.066406 0.00390625 5.550781 0.140625 4.96875 0.140625 C 4.519531 0.140625 4.128906 0.0664062 3.796875 -0.078125 C 3.472656 -0.234375 3.203125 -0.46875 2.984375 -0.78125 L 2.84375 -0.765625 L 2.84375 2.90625 Z M 4.46875 -1.390625 C 5 -1.390625 5.40625 -1.566406 5.6875 -1.921875 C 5.96875 -2.273438 6.109375 -2.832031 6.109375 -3.59375 C 6.109375 -4.351562 5.96875 -4.910156 5.6875 -5.265625 C 5.40625 -5.617188 5 -5.796875 4.46875 -5.796875 C 3.957031 -5.796875 3.554688 -5.613281 3.265625 -5.25 C 2.972656 -4.882812 2.828125 -4.332031 2.828125 -3.59375 C 2.828125 -2.851562 2.972656 -2.300781 3.265625 -1.9375 C 3.554688 -1.570312 3.957031 -1.390625 4.46875 -1.390625 Z M 4.46875 -1.390625 "/></g></g></g><g fill="#ffffff" fill-opacity="1"><g transform="translate(141.124623, 69.697388)"><g><path d="M 1.03125 0 L 1.03125 -7.1875 L 2.78125 -7.1875 L 2.78125 -6.125 L 2.921875 -6.09375 C 3.097656 -6.488281 3.328125 -6.78125 3.609375 -6.96875 C 3.890625 -7.15625 4.234375 -7.25 4.640625 -7.25 C 5.046875 -7.25 5.359375 -7.179688 5.578125 -7.046875 L 5.265625 -5.484375 L 5.125 -5.453125 C 5.007812 -5.503906 4.894531 -5.539062 4.78125 -5.5625 C 4.675781 -5.582031 4.546875 -5.59375 4.390625 -5.59375 C 3.890625 -5.59375 3.503906 -5.414062 3.234375 -5.0625 C 2.972656 -4.707031 2.84375 -4.140625 2.84375 -3.359375 L 2.84375 0 Z M 1.03125 0 "/></g></g></g><g fill="#ffffff" fill-opacity="1"><g transform="translate(146.756504, 69.697388)"><g><path d="M 4.171875 0.140625 C 3.472656 0.140625 2.859375 -0.00390625 2.328125 -0.296875 C 1.796875 -0.585938 1.378906 -1.007812 1.078125 -1.5625 C 0.785156 -2.125 0.640625 -2.800781 0.640625 -3.59375 C 0.640625 -4.382812 0.785156 -5.054688 1.078125 -5.609375 C 1.378906 -6.171875 1.796875 -6.597656 2.328125 -6.890625 C 2.859375 -7.179688 3.472656 -7.328125 4.171875 -7.328125 C 4.878906 -7.328125 5.5 -7.179688 6.03125 -6.890625 C 6.5625 -6.597656 6.972656 -6.171875 7.265625 -5.609375 C 7.566406 -5.054688 7.71875 -4.382812 7.71875 -3.59375 C 7.71875 -2.800781 7.566406 -2.125 7.265625 -1.5625 C 6.972656 -1.007812 6.5625 -0.585938 6.03125 -0.296875 C 5.5 -0.00390625 4.878906 0.140625 4.171875 0.140625 Z M 4.171875 -1.390625 C 5.285156 -1.390625 5.84375 -2.125 5.84375 -3.59375 C 5.84375 -4.351562 5.695312 -4.910156 5.40625 -5.265625 C 5.125 -5.617188 4.710938 -5.796875 4.171875 -5.796875 C 3.054688 -5.796875 2.5 -5.0625 2.5 -3.59375 C 2.5 -2.125 3.054688 -1.390625 4.171875 -1.390625 Z M 4.171875 -1.390625 "/></g></g></g><g fill="#ffffff" fill-opacity="1"><g transform="translate(155.103401, 69.697388)"><g><path d="M 1.9375 -8.046875 C 1.613281 -8.046875 1.347656 -8.144531 1.140625 -8.34375 C 0.929688 -8.539062 0.828125 -8.796875 0.828125 -9.109375 C 0.828125 -9.421875 0.929688 -9.675781 1.140625 -9.875 C 1.347656 -10.070312 1.613281 -10.171875 1.9375 -10.171875 C 2.15625 -10.171875 2.347656 -10.125 2.515625 -10.03125 C 2.679688 -9.9375 2.8125 -9.8125 2.90625 -9.65625 C 3 -9.5 3.046875 -9.316406 3.046875 -9.109375 C 3.046875 -8.898438 3 -8.710938 2.90625 -8.546875 C 2.8125 -8.390625 2.679688 -8.265625 2.515625 -8.171875 C 2.347656 -8.085938 2.15625 -8.046875 1.9375 -8.046875 Z M 0.5625 3.046875 C 0.03125 3.046875 -0.394531 2.976562 -0.71875 2.84375 L -0.5 1.421875 L -0.375 1.375 C -0.195312 1.457031 0.00390625 1.5 0.234375 1.5 C 0.765625 1.5 1.03125 1.1875 1.03125 0.5625 L 1.03125 -7.1875 L 2.84375 -7.1875 L 2.84375 0.515625 C 2.84375 1.347656 2.648438 1.976562 2.265625 2.40625 C 1.878906 2.832031 1.3125 3.046875 0.5625 3.046875 Z M 0.5625 3.046875 "/></g></g></g><g fill="#ffffff" fill-opacity="1"><g transform="translate(158.970841, 69.697388)"><g><path d="M 7.109375 -3.1875 L 2.484375 -3.1875 C 2.535156 -2.5625 2.710938 -2.101562 3.015625 -1.8125 C 3.316406 -1.53125 3.734375 -1.390625 4.265625 -1.390625 C 4.671875 -1.390625 5.003906 -1.46875 5.265625 -1.625 C 5.523438 -1.78125 5.734375 -2.015625 5.890625 -2.328125 L 6.015625 -2.328125 L 7.21875 -1.5625 C 6.988281 -1.050781 6.632812 -0.640625 6.15625 -0.328125 C 5.6875 -0.015625 5.054688 0.140625 4.265625 0.140625 C 3.515625 0.140625 2.867188 0 2.328125 -0.28125 C 1.796875 -0.5625 1.378906 -0.984375 1.078125 -1.546875 C 0.785156 -2.109375 0.640625 -2.789062 0.640625 -3.59375 C 0.640625 -4.40625 0.789062 -5.09375 1.09375 -5.65625 C 1.40625 -6.21875 1.820312 -6.632812 2.34375 -6.90625 C 2.875 -7.1875 3.46875 -7.328125 4.125 -7.328125 C 5.144531 -7.328125 5.925781 -7.054688 6.46875 -6.515625 C 7.007812 -5.972656 7.28125 -5.179688 7.28125 -4.140625 C 7.28125 -3.765625 7.265625 -3.472656 7.234375 -3.265625 Z M 5.546875 -4.359375 C 5.535156 -4.898438 5.410156 -5.296875 5.171875 -5.546875 C 4.929688 -5.796875 4.582031 -5.921875 4.125 -5.921875 C 3.21875 -5.921875 2.679688 -5.398438 2.515625 -4.359375 Z M 5.546875 -4.359375 "/></g></g></g><g fill="#ffffff" fill-opacity="1"><g transform="translate(166.777343, 69.697388)"><g><path d="M 4.1875 0.140625 C 3.488281 0.140625 2.875 -0.00390625 2.34375 -0.296875 C 1.8125 -0.585938 1.394531 -1.007812 1.09375 -1.5625 C 0.789062 -2.125 0.640625 -2.800781 0.640625 -3.59375 C 0.640625 -4.382812 0.789062 -5.054688 1.09375 -5.609375 C 1.394531 -6.171875 1.8125 -6.597656 2.34375 -6.890625 C 2.875 -7.179688 3.476562 -7.328125 4.15625 -7.328125 C 5.675781 -7.328125 6.644531 -6.773438 7.0625 -5.671875 L 5.828125 -4.78125 L 5.6875 -4.78125 C 5.539062 -5.125 5.347656 -5.378906 5.109375 -5.546875 C 4.878906 -5.710938 4.5625 -5.796875 4.15625 -5.796875 C 3.632812 -5.796875 3.226562 -5.613281 2.9375 -5.25 C 2.644531 -4.882812 2.5 -4.332031 2.5 -3.59375 C 2.5 -2.851562 2.644531 -2.300781 2.9375 -1.9375 C 3.238281 -1.570312 3.65625 -1.390625 4.1875 -1.390625 C 4.582031 -1.390625 4.914062 -1.492188 5.1875 -1.703125 C 5.457031 -1.921875 5.648438 -2.226562 5.765625 -2.625 L 5.90625 -2.625 L 7.1875 -1.921875 C 7 -1.316406 6.660156 -0.820312 6.171875 -0.4375 C 5.679688 -0.0507812 5.019531 0.140625 4.1875 0.140625 Z M 4.1875 0.140625 "/></g></g></g><g fill="#ffffff" fill-opacity="1"><g transform="translate(174.180173, 69.697388)"><g><path d="M 4.953125 -1.71875 L 5.421875 -0.375 C 5.234375 -0.21875 4.988281 -0.09375 4.6875 0 C 4.394531 0.09375 4.0625 0.140625 3.6875 0.140625 C 2.90625 0.140625 2.3125 -0.0703125 1.90625 -0.5 C 1.507812 -0.925781 1.3125 -1.539062 1.3125 -2.34375 L 1.3125 -5.765625 L 0.21875 -5.765625 L 0.21875 -7.1875 L 1.3125 -7.1875 L 1.3125 -8.59375 L 3.109375 -8.890625 L 3.109375 -7.1875 L 5.15625 -7.1875 L 5.15625 -5.765625 L 3.109375 -5.765625 L 3.109375 -2.46875 C 3.109375 -2.113281 3.179688 -1.851562 3.328125 -1.6875 C 3.484375 -1.53125 3.703125 -1.453125 3.984375 -1.453125 C 4.304688 -1.453125 4.585938 -1.539062 4.828125 -1.71875 Z M 4.953125 -1.71875 "/></g></g></g><g fill="#ffffff" fill-opacity="1"><g transform="translate(179.759968, 69.697388)"><g><path d="M 3.359375 0.140625 C 2.867188 0.140625 2.421875 0.0820312 2.015625 -0.03125 C 1.609375 -0.144531 1.257812 -0.300781 0.96875 -0.5 C 0.675781 -0.707031 0.460938 -0.941406 0.328125 -1.203125 L 1.328125 -2.28125 L 1.46875 -2.28125 C 1.707031 -1.96875 1.988281 -1.726562 2.3125 -1.5625 C 2.632812 -1.40625 2.988281 -1.328125 3.375 -1.328125 C 3.726562 -1.328125 3.992188 -1.390625 4.171875 -1.515625 C 4.347656 -1.640625 4.4375 -1.816406 4.4375 -2.046875 C 4.4375 -2.234375 4.367188 -2.390625 4.234375 -2.515625 C 4.109375 -2.640625 3.90625 -2.734375 3.625 -2.796875 L 2.671875 -3.03125 C 1.960938 -3.195312 1.441406 -3.453125 1.109375 -3.796875 C 0.785156 -4.148438 0.625 -4.597656 0.625 -5.140625 C 0.625 -5.585938 0.734375 -5.972656 0.953125 -6.296875 C 1.179688 -6.628906 1.503906 -6.882812 1.921875 -7.0625 C 2.335938 -7.238281 2.820312 -7.328125 3.375 -7.328125 C 4.019531 -7.328125 4.554688 -7.234375 4.984375 -7.046875 C 5.410156 -6.859375 5.742188 -6.609375 5.984375 -6.296875 L 5.015625 -5.25 L 4.890625 -5.25 C 4.691406 -5.476562 4.46875 -5.644531 4.21875 -5.75 C 3.96875 -5.851562 3.6875 -5.90625 3.375 -5.90625 C 2.664062 -5.90625 2.3125 -5.679688 2.3125 -5.234375 C 2.3125 -5.046875 2.375 -4.894531 2.5 -4.78125 C 2.632812 -4.664062 2.867188 -4.570312 3.203125 -4.5 L 4.09375 -4.296875 C 4.820312 -4.140625 5.351562 -3.890625 5.6875 -3.546875 C 6.03125 -3.203125 6.203125 -2.738281 6.203125 -2.15625 C 6.203125 -1.695312 6.085938 -1.296875 5.859375 -0.953125 C 5.628906 -0.609375 5.300781 -0.335938 4.875 -0.140625 C 4.445312 0.046875 3.941406 0.140625 3.359375 0.140625 Z M 3.359375 0.140625 "/></g></g></g><g fill="#ffffff" fill-opacity="1"><g transform="translate(186.381497, 69.697388)"><g><path d="M 0.265625 1.921875 C 0.640625 1.679688 0.976562 1.394531 1.28125 1.0625 C 1.582031 0.726562 1.742188 0.390625 1.765625 0.046875 C 1.429688 0.046875 1.164062 -0.0507812 0.96875 -0.25 C 0.78125 -0.445312 0.6875 -0.707031 0.6875 -1.03125 C 0.6875 -1.238281 0.734375 -1.425781 0.828125 -1.59375 C 0.921875 -1.757812 1.050781 -1.890625 1.21875 -1.984375 C 1.394531 -2.078125 1.597656 -2.125 1.828125 -2.125 C 2.191406 -2.125 2.476562 -2.003906 2.6875 -1.765625 C 2.90625 -1.523438 3.015625 -1.1875 3.015625 -0.75 C 3.015625 0.03125 2.816406 0.707031 2.421875 1.28125 C 2.035156 1.851562 1.515625 2.335938 0.859375 2.734375 Z M 0.265625 1.921875 "/></g></g></g><g fill="#ffffff" fill-opacity="1"><g transform="translate(190.08617, 69.697388)"><g/></g></g><g fill="#ffffff" fill-opacity="1"><g transform="translate(193.230911, 69.697388)"><g><path d="M 1.59375 3.046875 C 1.28125 3.046875 1 3.019531 0.75 2.96875 C 0.5 2.925781 0.296875 2.863281 0.140625 2.78125 L 0.4375 1.328125 L 0.546875 1.296875 C 0.648438 1.347656 0.78125 1.390625 0.9375 1.421875 C 1.101562 1.460938 1.273438 1.484375 1.453125 1.484375 C 1.742188 1.484375 1.984375 1.441406 2.171875 1.359375 C 2.367188 1.285156 2.53125 1.160156 2.65625 0.984375 C 2.789062 0.804688 2.910156 0.5625 3.015625 0.25 L 0.15625 -7.1875 L 2.046875 -7.1875 L 3.828125 -2.1875 L 3.984375 -2.1875 L 5.734375 -7.1875 L 7.5625 -7.1875 L 4.671875 0.453125 C 4.441406 1.066406 4.1875 1.5625 3.90625 1.9375 C 3.632812 2.3125 3.3125 2.585938 2.9375 2.765625 C 2.5625 2.953125 2.113281 3.046875 1.59375 3.046875 Z M 1.59375 3.046875 "/></g></g></g><g fill="#ffffff" fill-opacity="1"><g transform="translate(200.939746, 69.697388)"><g><path d="M 4.171875 0.140625 C 3.472656 0.140625 2.859375 -0.00390625 2.328125 -0.296875 C 1.796875 -0.585938 1.378906 -1.007812 1.078125 -1.5625 C 0.785156 -2.125 0.640625 -2.800781 0.640625 -3.59375 C 0.640625 -4.382812 0.785156 -5.054688 1.078125 -5.609375 C 1.378906 -6.171875 1.796875 -6.597656 2.328125 -6.890625 C 2.859375 -7.179688 3.472656 -7.328125 4.171875 -7.328125 C 4.878906 -7.328125 5.5 -7.179688 6.03125 -6.890625 C 6.5625 -6.597656 6.972656 -6.171875 7.265625 -5.609375 C 7.566406 -5.054688 7.71875 -4.382812 7.71875 -3.59375 C 7.71875 -2.800781 7.566406 -2.125 7.265625 -1.5625 C 6.972656 -1.007812 6.5625 -0.585938 6.03125 -0.296875 C 5.5 -0.00390625 4.878906 0.140625 4.171875 0.140625 Z M 4.171875 -1.390625 C 5.285156 -1.390625 5.84375 -2.125 5.84375 -3.59375 C 5.84375 -4.351562 5.695312 -4.910156 5.40625 -5.265625 C 5.125 -5.617188 4.710938 -5.796875 4.171875 -5.796875 C 3.054688 -5.796875 2.5 -5.0625 2.5 -3.59375 C 2.5 -2.125 3.054688 -1.390625 4.171875 -1.390625 Z M 4.171875 -1.390625 "/></g></g></g><g fill="#ffffff" fill-opacity="1"><g transform="translate(209.286643, 69.697388)"><g><path d="M 3.296875 0.140625 C 2.484375 0.140625 1.882812 -0.078125 1.5 -0.515625 C 1.113281 -0.960938 0.921875 -1.597656 0.921875 -2.421875 L 0.921875 -7.1875 L 2.734375 -7.1875 L 2.734375 -2.65625 C 2.734375 -2.21875 2.828125 -1.894531 3.015625 -1.6875 C 3.203125 -1.488281 3.492188 -1.390625 3.890625 -1.390625 C 4.390625 -1.390625 4.773438 -1.550781 5.046875 -1.875 C 5.328125 -2.207031 5.46875 -2.722656 5.46875 -3.421875 L 5.46875 -7.1875 L 7.28125 -7.1875 L 7.28125 0 L 5.546875 0 L 5.546875 -1.0625 L 5.40625 -1.09375 C 5.175781 -0.675781 4.894531 -0.363281 4.5625 -0.15625 C 4.226562 0.0390625 3.804688 0.140625 3.296875 0.140625 Z M 3.296875 0.140625 "/></g></g></g><g fill="#ffffff" fill-opacity="1"><g transform="translate(217.594476, 69.697388)"><g/></g></g><g fill="#ffffff" fill-opacity="1"><g transform="translate(220.739216, 69.697388)"><g><path d="M 3.734375 3.046875 C 2.546875 3.046875 1.664062 2.867188 1.09375 2.515625 C 0.53125 2.171875 0.25 1.691406 0.25 1.078125 C 0.25 0.703125 0.367188 0.390625 0.609375 0.140625 C 0.859375 -0.0976562 1.207031 -0.257812 1.65625 -0.34375 L 1.65625 -0.46875 C 1.414062 -0.625 1.238281 -0.789062 1.125 -0.96875 C 1.019531 -1.144531 0.96875 -1.351562 0.96875 -1.59375 C 0.96875 -2.175781 1.34375 -2.566406 2.09375 -2.765625 L 2.09375 -2.90625 C 1.707031 -3.125 1.414062 -3.394531 1.21875 -3.71875 C 1.03125 -4.050781 0.9375 -4.445312 0.9375 -4.90625 C 0.9375 -5.382812 1.046875 -5.804688 1.265625 -6.171875 C 1.484375 -6.535156 1.800781 -6.816406 2.21875 -7.015625 C 2.644531 -7.222656 3.15625 -7.328125 3.75 -7.328125 C 4.34375 -7.328125 4.820312 -7.222656 5.1875 -7.015625 C 5.40625 -7.335938 5.53125 -7.707031 5.5625 -8.125 L 5.703125 -8.203125 L 7 -7.890625 C 6.957031 -7.546875 6.851562 -7.253906 6.6875 -7.015625 C 6.53125 -6.785156 6.285156 -6.582031 5.953125 -6.40625 L 5.953125 -6.265625 C 6.347656 -5.910156 6.546875 -5.410156 6.546875 -4.765625 C 6.546875 -4.328125 6.4375 -3.929688 6.21875 -3.578125 C 6 -3.222656 5.675781 -2.941406 5.25 -2.734375 C 4.832031 -2.535156 4.332031 -2.4375 3.75 -2.4375 L 3.46875 -2.4375 C 3.300781 -2.445312 3.179688 -2.453125 3.109375 -2.453125 C 2.941406 -2.453125 2.8125 -2.40625 2.71875 -2.3125 C 2.625 -2.226562 2.578125 -2.117188 2.578125 -1.984375 C 2.578125 -1.828125 2.632812 -1.707031 2.75 -1.625 C 2.875 -1.539062 3.054688 -1.492188 3.296875 -1.484375 L 4.90625 -1.421875 C 6.5 -1.378906 7.296875 -0.695312 7.296875 0.625 C 7.296875 1.09375 7.175781 1.503906 6.9375 1.859375 C 6.695312 2.222656 6.3125 2.507812 5.78125 2.71875 C 5.25 2.9375 4.566406 3.046875 3.734375 3.046875 Z M 3.75 -3.703125 C 4.09375 -3.703125 4.363281 -3.800781 4.5625 -4 C 4.757812 -4.207031 4.859375 -4.5 4.859375 -4.875 C 4.859375 -5.257812 4.757812 -5.550781 4.5625 -5.75 C 4.363281 -5.945312 4.09375 -6.046875 3.75 -6.046875 C 3.394531 -6.046875 3.117188 -5.945312 2.921875 -5.75 C 2.734375 -5.550781 2.640625 -5.257812 2.640625 -4.875 C 2.640625 -4.5 2.734375 -4.207031 2.921875 -4 C 3.117188 -3.800781 3.394531 -3.703125 3.75 -3.703125 Z M 3.734375 1.734375 C 4.347656 1.734375 4.796875 1.644531 5.078125 1.46875 C 5.359375 1.300781 5.5 1.078125 5.5 0.796875 C 5.5 0.578125 5.425781 0.410156 5.28125 0.296875 C 5.132812 0.191406 4.90625 0.132812 4.59375 0.125 L 3.171875 0.0625 C 3.117188 0.0625 3.070312 0.0546875 3.03125 0.046875 C 3 0.046875 2.960938 0.046875 2.921875 0.046875 C 2.617188 0.046875 2.382812 0.109375 2.21875 0.234375 C 2.0625 0.367188 1.984375 0.550781 1.984375 0.78125 C 1.984375 1.09375 2.128906 1.328125 2.421875 1.484375 C 2.710938 1.648438 3.148438 1.734375 3.734375 1.734375 Z M 3.734375 1.734375 "/></g></g></g><g fill="#ffffff" fill-opacity="1"><g transform="translate(228.207155, 69.697388)"><g><path d="M 4.171875 0.140625 C 3.472656 0.140625 2.859375 -0.00390625 2.328125 -0.296875 C 1.796875 -0.585938 1.378906 -1.007812 1.078125 -1.5625 C 0.785156 -2.125 0.640625 -2.800781 0.640625 -3.59375 C 0.640625 -4.382812 0.785156 -5.054688 1.078125 -5.609375 C 1.378906 -6.171875 1.796875 -6.597656 2.328125 -6.890625 C 2.859375 -7.179688 3.472656 -7.328125 4.171875 -7.328125 C 4.878906 -7.328125 5.5 -7.179688 6.03125 -6.890625 C 6.5625 -6.597656 6.972656 -6.171875 7.265625 -5.609375 C 7.566406 -5.054688 7.71875 -4.382812 7.71875 -3.59375 C 7.71875 -2.800781 7.566406 -2.125 7.265625 -1.5625 C 6.972656 -1.007812 6.5625 -0.585938 6.03125 -0.296875 C 5.5 -0.00390625 4.878906 0.140625 4.171875 0.140625 Z M 4.171875 -1.390625 C 5.285156 -1.390625 5.84375 -2.125 5.84375 -3.59375 C 5.84375 -4.351562 5.695312 -4.910156 5.40625 -5.265625 C 5.125 -5.617188 4.710938 -5.796875 4.171875 -5.796875 C 3.054688 -5.796875 2.5 -5.0625 2.5 -3.59375 C 2.5 -2.125 3.054688 -1.390625 4.171875 -1.390625 Z M 4.171875 -1.390625 "/></g></g></g><g fill="#ffffff" fill-opacity="1"><g transform="translate(236.554061, 69.697388)"><g><path d="M 4.953125 -1.71875 L 5.421875 -0.375 C 5.234375 -0.21875 4.988281 -0.09375 4.6875 0 C 4.394531 0.09375 4.0625 0.140625 3.6875 0.140625 C 2.90625 0.140625 2.3125 -0.0703125 1.90625 -0.5 C 1.507812 -0.925781 1.3125 -1.539062 1.3125 -2.34375 L 1.3125 -5.765625 L 0.21875 -5.765625 L 0.21875 -7.1875 L 1.3125 -7.1875 L 1.3125 -8.59375 L 3.109375 -8.890625 L 3.109375 -7.1875 L 5.15625 -7.1875 L 5.15625 -5.765625 L 3.109375 -5.765625 L 3.109375 -2.46875 C 3.109375 -2.113281 3.179688 -1.851562 3.328125 -1.6875 C 3.484375 -1.53125 3.703125 -1.453125 3.984375 -1.453125 C 4.304688 -1.453125 4.585938 -1.539062 4.828125 -1.71875 Z M 4.953125 -1.71875 "/></g></g></g><g fill="#ffffff" fill-opacity="1"><g transform="translate(242.133866, 69.697388)"><g/></g></g><g fill="#ffffff" fill-opacity="1"><g transform="translate(245.278606, 69.697388)"><g><path d="M 4.953125 -1.71875 L 5.421875 -0.375 C 5.234375 -0.21875 4.988281 -0.09375 4.6875 0 C 4.394531 0.09375 4.0625 0.140625 3.6875 0.140625 C 2.90625 0.140625 2.3125 -0.0703125 1.90625 -0.5 C 1.507812 -0.925781 1.3125 -1.539062 1.3125 -2.34375 L 1.3125 -5.765625 L 0.21875 -5.765625 L 0.21875 -7.1875 L 1.3125 -7.1875 L 1.3125 -8.59375 L 3.109375 -8.890625 L 3.109375 -7.1875 L 5.15625 -7.1875 L 5.15625 -5.765625 L 3.109375 -5.765625 L 3.109375 -2.46875 C 3.109375 -2.113281 3.179688 -1.851562 3.328125 -1.6875 C 3.484375 -1.53125 3.703125 -1.453125 3.984375 -1.453125 C 4.304688 -1.453125 4.585938 -1.539062 4.828125 -1.71875 Z M 4.953125 -1.71875 "/></g></g></g><g fill="#ffffff" fill-opacity="1"><g transform="translate(250.85841, 69.697388)"><g><path d="M 1.03125 0 L 1.03125 -10.078125 L 2.84375 -10.078125 L 2.84375 -6.25 L 2.984375 -6.21875 C 3.222656 -6.570312 3.515625 -6.84375 3.859375 -7.03125 C 4.203125 -7.226562 4.617188 -7.328125 5.109375 -7.328125 C 6.703125 -7.328125 7.5 -6.425781 7.5 -4.625 L 7.5 0 L 5.6875 0 L 5.6875 -4.390625 C 5.6875 -4.890625 5.585938 -5.25 5.390625 -5.46875 C 5.203125 -5.6875 4.898438 -5.796875 4.484375 -5.796875 C 3.984375 -5.796875 3.582031 -5.625 3.28125 -5.28125 C 2.988281 -4.945312 2.84375 -4.425781 2.84375 -3.71875 L 2.84375 0 Z M 1.03125 0 "/></g></g></g><g fill="#ffffff" fill-opacity="1"><g transform="translate(259.270416, 69.697388)"><g><path d="M 7.109375 -3.1875 L 2.484375 -3.1875 C 2.535156 -2.5625 2.710938 -2.101562 3.015625 -1.8125 C 3.316406 -1.53125 3.734375 -1.390625 4.265625 -1.390625 C 4.671875 -1.390625 5.003906 -1.46875 5.265625 -1.625 C 5.523438 -1.78125 5.734375 -2.015625 5.890625 -2.328125 L 6.015625 -2.328125 L 7.21875 -1.5625 C 6.988281 -1.050781 6.632812 -0.640625 6.15625 -0.328125 C 5.6875 -0.015625 5.054688 0.140625 4.265625 0.140625 C 3.515625 0.140625 2.867188 0 2.328125 -0.28125 C 1.796875 -0.5625 1.378906 -0.984375 1.078125 -1.546875 C 0.785156 -2.109375 0.640625 -2.789062 0.640625 -3.59375 C 0.640625 -4.40625 0.789062 -5.09375 1.09375 -5.65625 C 1.40625 -6.21875 1.820312 -6.632812 2.34375 -6.90625 C 2.875 -7.1875 3.46875 -7.328125 4.125 -7.328125 C 5.144531 -7.328125 5.925781 -7.054688 6.46875 -6.515625 C 7.007812 -5.972656 7.28125 -5.179688 7.28125 -4.140625 C 7.28125 -3.765625 7.265625 -3.472656 7.234375 -3.265625 Z M 5.546875 -4.359375 C 5.535156 -4.898438 5.410156 -5.296875 5.171875 -5.546875 C 4.929688 -5.796875 4.582031 -5.921875 4.125 -5.921875 C 3.21875 -5.921875 2.679688 -5.398438 2.515625 -4.359375 Z M 5.546875 -4.359375 "/></g></g></g><g fill="#ffffff" fill-opacity="1"><g transform="translate(267.076918, 69.697388)"><g><path d="M 1.03125 0 L 1.03125 -7.1875 L 2.765625 -7.1875 L 2.765625 -6.21875 L 2.90625 -6.203125 C 3.132812 -6.585938 3.40625 -6.867188 3.71875 -7.046875 C 4.039062 -7.234375 4.445312 -7.328125 4.9375 -7.328125 C 5.476562 -7.328125 5.914062 -7.21875 6.25 -7 C 6.582031 -6.78125 6.820312 -6.46875 6.96875 -6.0625 L 7.109375 -6.0625 C 7.328125 -6.488281 7.609375 -6.804688 7.953125 -7.015625 C 8.304688 -7.222656 8.742188 -7.328125 9.265625 -7.328125 C 10.753906 -7.328125 11.5 -6.492188 11.5 -4.828125 L 11.5 0 L 9.703125 0 L 9.703125 -4.609375 C 9.703125 -5.023438 9.617188 -5.328125 9.453125 -5.515625 C 9.285156 -5.703125 9.019531 -5.796875 8.65625 -5.796875 C 7.664062 -5.796875 7.171875 -5.132812 7.171875 -3.8125 L 7.171875 0 L 5.375 0 L 5.375 -4.609375 C 5.375 -5.023438 5.285156 -5.328125 5.109375 -5.515625 C 4.941406 -5.703125 4.675781 -5.796875 4.3125 -5.796875 C 3.851562 -5.796875 3.492188 -5.640625 3.234375 -5.328125 C 2.972656 -5.015625 2.84375 -4.519531 2.84375 -3.84375 L 2.84375 0 Z M 1.03125 0 "/></g></g></g><g fill="#ffffff" fill-opacity="1"><g transform="translate(279.499602, 69.697388)"><g><path d="M 1.84375 0.0625 C 1.601562 0.0625 1.394531 0.015625 1.21875 -0.078125 C 1.050781 -0.171875 0.921875 -0.300781 0.828125 -0.46875 C 0.734375 -0.632812 0.6875 -0.820312 0.6875 -1.03125 C 0.6875 -1.238281 0.734375 -1.425781 0.828125 -1.59375 C 0.921875 -1.757812 1.050781 -1.890625 1.21875 -1.984375 C 1.394531 -2.078125 1.601562 -2.125 1.84375 -2.125 C 2.070312 -2.125 2.273438 -2.078125 2.453125 -1.984375 C 2.628906 -1.890625 2.765625 -1.757812 2.859375 -1.59375 C 2.953125 -1.425781 3 -1.238281 3 -1.03125 C 3 -0.71875 2.890625 -0.457031 2.671875 -0.25 C 2.460938 -0.0390625 2.1875 0.0625 1.84375 0.0625 Z M 1.84375 0.0625 "/></g></g></g><g fill="#d9d9d9" fill-opacity="1"><g transform="translate(113.036802, 137.614749)"><g><path d="M 3.4375 -4.28125 L 3.4375 -3.578125 L 2.203125 -3.578125 L 2.203125 0 L 1.359375 0 L 1.359375 -3.578125 L 0.125 -3.578125 L 0.125 -4.28125 Z M 3.4375 -4.28125 "/></g></g><g transform="translate(116.587589, 137.614749)"><g><path d="M 0.46875 0 L 0.46875 -4.53125 L 1.28125 -4.53125 L 1.28125 -2.8125 L 1.34375 -2.796875 C 1.445312 -2.953125 1.578125 -3.070312 1.734375 -3.15625 C 1.890625 -3.25 2.078125 -3.296875 2.296875 -3.296875 C 3.015625 -3.296875 3.375 -2.890625 3.375 -2.078125 L 3.375 0 L 2.5625 0 L 2.5625 -1.984375 C 2.5625 -2.203125 2.515625 -2.359375 2.421875 -2.453125 C 2.335938 -2.554688 2.203125 -2.609375 2.015625 -2.609375 C 1.785156 -2.609375 1.601562 -2.53125 1.46875 -2.375 C 1.34375 -2.226562 1.28125 -1.992188 1.28125 -1.671875 L 1.28125 0 Z M 0.46875 0 "/></g></g><g transform="translate(120.372752, 137.614749)"><g><path d="M 3.1875 -1.4375 L 1.109375 -1.4375 C 1.140625 -1.15625 1.222656 -0.945312 1.359375 -0.8125 C 1.492188 -0.6875 1.679688 -0.625 1.921875 -0.625 C 2.097656 -0.625 2.242188 -0.65625 2.359375 -0.71875 C 2.484375 -0.789062 2.578125 -0.898438 2.640625 -1.046875 L 2.703125 -1.046875 L 3.25 -0.703125 C 3.144531 -0.472656 2.984375 -0.285156 2.765625 -0.140625 C 2.554688 -0.00390625 2.273438 0.0625 1.921875 0.0625 C 1.585938 0.0625 1.296875 0 1.046875 -0.125 C 0.804688 -0.25 0.617188 -0.4375 0.484375 -0.6875 C 0.359375 -0.945312 0.296875 -1.253906 0.296875 -1.609375 C 0.296875 -1.984375 0.363281 -2.296875 0.5 -2.546875 C 0.632812 -2.796875 0.820312 -2.984375 1.0625 -3.109375 C 1.300781 -3.234375 1.566406 -3.296875 1.859375 -3.296875 C 2.316406 -3.296875 2.664062 -3.171875 2.90625 -2.921875 C 3.144531 -2.679688 3.265625 -2.328125 3.265625 -1.859375 C 3.265625 -1.691406 3.257812 -1.5625 3.25 -1.46875 Z M 2.5 -1.953125 C 2.488281 -2.203125 2.429688 -2.378906 2.328125 -2.484375 C 2.222656 -2.597656 2.066406 -2.65625 1.859375 -2.65625 C 1.453125 -2.65625 1.210938 -2.421875 1.140625 -1.953125 Z M 2.5 -1.953125 "/></g></g><g transform="translate(123.885453, 137.614749)"><g/></g><g transform="translate(125.300494, 137.614749)"><g><path d="M 2.265625 0.0625 C 1.847656 0.0625 1.539062 -0.09375 1.34375 -0.40625 L 1.28125 -0.390625 L 1.28125 0 L 0.46875 0 L 0.46875 -4.53125 L 1.28125 -4.53125 L 1.28125 -2.84375 L 1.34375 -2.84375 C 1.445312 -3 1.570312 -3.113281 1.71875 -3.1875 C 1.875 -3.257812 2.0625 -3.296875 2.28125 -3.296875 C 2.539062 -3.296875 2.765625 -3.234375 2.953125 -3.109375 C 3.148438 -2.984375 3.300781 -2.796875 3.40625 -2.546875 C 3.519531 -2.296875 3.578125 -1.984375 3.578125 -1.609375 C 3.578125 -1.242188 3.519531 -0.9375 3.40625 -0.6875 C 3.300781 -0.4375 3.144531 -0.25 2.9375 -0.125 C 2.738281 0 2.515625 0.0625 2.265625 0.0625 Z M 2.015625 -0.625 C 2.253906 -0.625 2.4375 -0.703125 2.5625 -0.859375 C 2.6875 -1.023438 2.75 -1.273438 2.75 -1.609375 C 2.75 -1.953125 2.6875 -2.203125 2.5625 -2.359375 C 2.4375 -2.523438 2.253906 -2.609375 2.015625 -2.609375 C 1.785156 -2.609375 1.601562 -2.523438 1.46875 -2.359375 C 1.332031 -2.191406 1.265625 -1.941406 1.265625 -1.609375 C 1.265625 -1.273438 1.332031 -1.023438 1.46875 -0.859375 C 1.601562 -0.703125 1.785156 -0.625 2.015625 -0.625 Z M 2.015625 -0.625 "/></g></g><g transform="translate(129.170617, 137.614749)"><g><path d="M 3.1875 -1.4375 L 1.109375 -1.4375 C 1.140625 -1.15625 1.222656 -0.945312 1.359375 -0.8125 C 1.492188 -0.6875 1.679688 -0.625 1.921875 -0.625 C 2.097656 -0.625 2.242188 -0.65625 2.359375 -0.71875 C 2.484375 -0.789062 2.578125 -0.898438 2.640625 -1.046875 L 2.703125 -1.046875 L 3.25 -0.703125 C 3.144531 -0.472656 2.984375 -0.285156 2.765625 -0.140625 C 2.554688 -0.00390625 2.273438 0.0625 1.921875 0.0625 C 1.585938 0.0625 1.296875 0 1.046875 -0.125 C 0.804688 -0.25 0.617188 -0.4375 0.484375 -0.6875 C 0.359375 -0.945312 0.296875 -1.253906 0.296875 -1.609375 C 0.296875 -1.984375 0.363281 -2.296875 0.5 -2.546875 C 0.632812 -2.796875 0.820312 -2.984375 1.0625 -3.109375 C 1.300781 -3.234375 1.566406 -3.296875 1.859375 -3.296875 C 2.316406 -3.296875 2.664062 -3.171875 2.90625 -2.921875 C 3.144531 -2.679688 3.265625 -2.328125 3.265625 -1.859375 C 3.265625 -1.691406 3.257812 -1.5625 3.25 -1.46875 Z M 2.5 -1.953125 C 2.488281 -2.203125 2.429688 -2.378906 2.328125 -2.484375 C 2.222656 -2.597656 2.066406 -2.65625 1.859375 -2.65625 C 1.453125 -2.65625 1.210938 -2.421875 1.140625 -1.953125 Z M 2.5 -1.953125 "/></g></g><g transform="translate(132.683318, 137.614749)"><g><path d="M 1.515625 0.0625 C 1.296875 0.0625 1.09375 0.0351562 0.90625 -0.015625 C 0.71875 -0.0664062 0.554688 -0.132812 0.421875 -0.21875 C 0.296875 -0.3125 0.203125 -0.421875 0.140625 -0.546875 L 0.59375 -1.03125 L 0.65625 -1.03125 C 0.769531 -0.882812 0.898438 -0.773438 1.046875 -0.703125 C 1.191406 -0.628906 1.347656 -0.59375 1.515625 -0.59375 C 1.671875 -0.59375 1.789062 -0.617188 1.875 -0.671875 C 1.957031 -0.734375 2 -0.816406 2 -0.921875 C 2 -1.003906 1.96875 -1.070312 1.90625 -1.125 C 1.851562 -1.1875 1.757812 -1.234375 1.625 -1.265625 L 1.203125 -1.359375 C 0.878906 -1.441406 0.644531 -1.5625 0.5 -1.71875 C 0.351562 -1.875 0.28125 -2.070312 0.28125 -2.3125 C 0.28125 -2.507812 0.332031 -2.679688 0.4375 -2.828125 C 0.539062 -2.984375 0.679688 -3.097656 0.859375 -3.171875 C 1.046875 -3.253906 1.265625 -3.296875 1.515625 -3.296875 C 1.804688 -3.296875 2.046875 -3.253906 2.234375 -3.171875 C 2.429688 -3.085938 2.582031 -2.972656 2.6875 -2.828125 L 2.25 -2.359375 L 2.203125 -2.359375 C 2.109375 -2.460938 2.003906 -2.535156 1.890625 -2.578125 C 1.773438 -2.628906 1.648438 -2.65625 1.515625 -2.65625 C 1.191406 -2.65625 1.03125 -2.554688 1.03125 -2.359375 C 1.03125 -2.273438 1.0625 -2.207031 1.125 -2.15625 C 1.1875 -2.101562 1.289062 -2.054688 1.4375 -2.015625 L 1.84375 -1.9375 C 2.164062 -1.863281 2.398438 -1.75 2.546875 -1.59375 C 2.703125 -1.4375 2.78125 -1.226562 2.78125 -0.96875 C 2.78125 -0.757812 2.726562 -0.578125 2.625 -0.421875 C 2.53125 -0.265625 2.382812 -0.144531 2.1875 -0.0625 C 2 0.0195312 1.773438 0.0625 1.515625 0.0625 Z M 1.515625 0.0625 "/></g></g><g transform="translate(135.662815, 137.614749)"><g><path d="M 2.234375 -0.765625 L 2.4375 -0.171875 C 2.351562 -0.0976562 2.242188 -0.0390625 2.109375 0 C 1.972656 0.0390625 1.820312 0.0625 1.65625 0.0625 C 1.3125 0.0625 1.046875 -0.03125 0.859375 -0.21875 C 0.679688 -0.414062 0.59375 -0.695312 0.59375 -1.0625 L 0.59375 -2.59375 L 0.09375 -2.59375 L 0.09375 -3.234375 L 0.59375 -3.234375 L 0.59375 -3.859375 L 1.40625 -4 L 1.40625 -3.234375 L 2.3125 -3.234375 L 2.3125 -2.59375 L 1.40625 -2.59375 L 1.40625 -1.109375 C 1.40625 -0.953125 1.4375 -0.835938 1.5 -0.765625 C 1.5625 -0.691406 1.660156 -0.65625 1.796875 -0.65625 C 1.929688 -0.65625 2.054688 -0.691406 2.171875 -0.765625 Z M 2.234375 -0.765625 "/></g></g><g transform="translate(138.173561, 137.614749)"><g/></g><g transform="translate(139.588603, 137.614749)"><g><path d="M 1.890625 0.0625 C 1.578125 0.0625 1.296875 0 1.046875 -0.125 C 0.804688 -0.257812 0.617188 -0.453125 0.484375 -0.703125 C 0.359375 -0.953125 0.296875 -1.253906 0.296875 -1.609375 C 0.296875 -1.960938 0.359375 -2.265625 0.484375 -2.515625 C 0.617188 -2.773438 0.804688 -2.96875 1.046875 -3.09375 C 1.285156 -3.226562 1.5625 -3.296875 1.875 -3.296875 C 2.550781 -3.296875 2.984375 -3.046875 3.171875 -2.546875 L 2.625 -2.15625 L 2.5625 -2.15625 C 2.5 -2.300781 2.410156 -2.410156 2.296875 -2.484375 C 2.191406 -2.566406 2.050781 -2.609375 1.875 -2.609375 C 1.632812 -2.609375 1.445312 -2.523438 1.3125 -2.359375 C 1.1875 -2.203125 1.125 -1.953125 1.125 -1.609375 C 1.125 -1.273438 1.191406 -1.023438 1.328125 -0.859375 C 1.460938 -0.703125 1.648438 -0.625 1.890625 -0.625 C 2.054688 -0.625 2.203125 -0.671875 2.328125 -0.765625 C 2.453125 -0.859375 2.539062 -0.992188 2.59375 -1.171875 L 2.65625 -1.1875 L 3.234375 -0.875 C 3.148438 -0.59375 2.992188 -0.363281 2.765625 -0.1875 C 2.546875 -0.0195312 2.253906 0.0625 1.890625 0.0625 Z M 1.890625 0.0625 "/></g></g><g transform="translate(142.919663, 137.614749)"><g><path d="M 1.875 0.0625 C 1.5625 0.0625 1.285156 0 1.046875 -0.125 C 0.804688 -0.257812 0.617188 -0.453125 0.484375 -0.703125 C 0.359375 -0.953125 0.296875 -1.253906 0.296875 -1.609375 C 0.296875 -1.960938 0.359375 -2.265625 0.484375 -2.515625 C 0.617188 -2.773438 0.804688 -2.96875 1.046875 -3.09375 C 1.285156 -3.226562 1.5625 -3.296875 1.875 -3.296875 C 2.195312 -3.296875 2.476562 -3.226562 2.71875 -3.09375 C 2.957031 -2.96875 3.140625 -2.773438 3.265625 -2.515625 C 3.398438 -2.265625 3.46875 -1.960938 3.46875 -1.609375 C 3.46875 -1.253906 3.398438 -0.953125 3.265625 -0.703125 C 3.140625 -0.453125 2.957031 -0.257812 2.71875 -0.125 C 2.476562 0 2.195312 0.0625 1.875 0.0625 Z M 1.875 -0.625 C 2.375 -0.625 2.625 -0.953125 2.625 -1.609375 C 2.625 -1.953125 2.5625 -2.203125 2.4375 -2.359375 C 2.3125 -2.523438 2.125 -2.609375 1.875 -2.609375 C 1.375 -2.609375 1.125 -2.273438 1.125 -1.609375 C 1.125 -0.953125 1.375 -0.625 1.875 -0.625 Z M 1.875 -0.625 "/></g></g><g transform="translate(146.675528, 137.614749)"><g><path d="M 0.46875 0 L 0.46875 -3.234375 L 1.25 -3.234375 L 1.25 -2.796875 L 1.3125 -2.78125 C 1.414062 -2.957031 1.535156 -3.085938 1.671875 -3.171875 C 1.816406 -3.253906 2 -3.296875 2.21875 -3.296875 C 2.46875 -3.296875 2.664062 -3.242188 2.8125 -3.140625 C 2.957031 -3.046875 3.066406 -2.90625 3.140625 -2.71875 L 3.203125 -2.71875 C 3.296875 -2.914062 3.421875 -3.0625 3.578125 -3.15625 C 3.734375 -3.25 3.929688 -3.296875 4.171875 -3.296875 C 4.835938 -3.296875 5.171875 -2.921875 5.171875 -2.171875 L 5.171875 0 L 4.359375 0 L 4.359375 -2.078125 C 4.359375 -2.265625 4.320312 -2.398438 4.25 -2.484375 C 4.175781 -2.566406 4.054688 -2.609375 3.890625 -2.609375 C 3.441406 -2.609375 3.21875 -2.3125 3.21875 -1.71875 L 3.21875 0 L 2.421875 0 L 2.421875 -2.078125 C 2.421875 -2.265625 2.378906 -2.398438 2.296875 -2.484375 C 2.222656 -2.566406 2.101562 -2.609375 1.9375 -2.609375 C 1.726562 -2.609375 1.566406 -2.535156 1.453125 -2.390625 C 1.335938 -2.253906 1.28125 -2.035156 1.28125 -1.734375 L 1.28125 0 Z M 0.46875 0 "/></g></g><g transform="translate(152.265381, 137.614749)"><g><path d="M 0.46875 1.3125 L 0.46875 -3.234375 L 1.28125 -3.234375 L 1.28125 -2.8125 L 1.34375 -2.796875 C 1.4375 -2.960938 1.5625 -3.085938 1.71875 -3.171875 C 1.882812 -3.253906 2.070312 -3.296875 2.28125 -3.296875 C 2.539062 -3.296875 2.769531 -3.234375 2.96875 -3.109375 C 3.164062 -2.984375 3.316406 -2.796875 3.421875 -2.546875 C 3.523438 -2.296875 3.578125 -1.984375 3.578125 -1.609375 C 3.578125 -1.242188 3.519531 -0.9375 3.40625 -0.6875 C 3.289062 -0.4375 3.128906 -0.25 2.921875 -0.125 C 2.722656 0 2.492188 0.0625 2.234375 0.0625 C 2.035156 0.0625 1.859375 0.03125 1.703125 -0.03125 C 1.554688 -0.101562 1.4375 -0.210938 1.34375 -0.359375 L 1.28125 -0.34375 L 1.28125 1.3125 Z M 2 -0.625 C 2.25 -0.625 2.4375 -0.703125 2.5625 -0.859375 C 2.6875 -1.023438 2.75 -1.273438 2.75 -1.609375 C 2.75 -1.953125 2.6875 -2.203125 2.5625 -2.359375 C 2.4375 -2.523438 2.25 -2.609375 2 -2.609375 C 1.78125 -2.609375 1.601562 -2.523438 1.46875 -2.359375 C 1.332031 -2.191406 1.265625 -1.941406 1.265625 -1.609375 C 1.265625 -1.285156 1.332031 -1.039062 1.46875 -0.875 C 1.601562 -0.707031 1.78125 -0.625 2 -0.625 Z M 2 -0.625 "/></g></g><g transform="translate(156.135504, 137.614749)"><g><path d="M 1.265625 0.0625 C 1.054688 0.0625 0.875 0.0234375 0.71875 -0.046875 C 0.570312 -0.128906 0.457031 -0.242188 0.375 -0.390625 C 0.289062 -0.535156 0.25 -0.710938 0.25 -0.921875 C 0.25 -1.109375 0.289062 -1.265625 0.375 -1.390625 C 0.457031 -1.523438 0.582031 -1.632812 0.75 -1.71875 C 0.925781 -1.800781 1.148438 -1.863281 1.421875 -1.90625 C 1.617188 -1.9375 1.765625 -1.972656 1.859375 -2.015625 C 1.960938 -2.054688 2.03125 -2.097656 2.0625 -2.140625 C 2.101562 -2.191406 2.125 -2.253906 2.125 -2.328125 C 2.125 -2.421875 2.085938 -2.492188 2.015625 -2.546875 C 1.941406 -2.609375 1.820312 -2.640625 1.65625 -2.640625 C 1.476562 -2.640625 1.304688 -2.597656 1.140625 -2.515625 C 0.972656 -2.441406 0.832031 -2.335938 0.71875 -2.203125 L 0.65625 -2.203125 L 0.3125 -2.71875 C 0.476562 -2.894531 0.679688 -3.035156 0.921875 -3.140625 C 1.160156 -3.242188 1.414062 -3.296875 1.6875 -3.296875 C 2.113281 -3.296875 2.421875 -3.203125 2.609375 -3.015625 C 2.804688 -2.835938 2.90625 -2.582031 2.90625 -2.25 L 2.90625 -0.84375 C 2.90625 -0.695312 2.96875 -0.625 3.09375 -0.625 C 3.144531 -0.625 3.195312 -0.632812 3.25 -0.65625 L 3.28125 -0.640625 L 3.34375 -0.078125 C 3.300781 -0.046875 3.238281 -0.0195312 3.15625 0 C 3.070312 0.0195312 2.984375 0.03125 2.890625 0.03125 C 2.703125 0.03125 2.550781 -0.00390625 2.4375 -0.078125 C 2.332031 -0.160156 2.253906 -0.28125 2.203125 -0.4375 L 2.140625 -0.4375 C 1.984375 -0.101562 1.691406 0.0625 1.265625 0.0625 Z M 1.515625 -0.546875 C 1.703125 -0.546875 1.851562 -0.609375 1.96875 -0.734375 C 2.082031 -0.859375 2.140625 -1.035156 2.140625 -1.265625 L 2.140625 -1.59375 L 2.078125 -1.59375 C 2.023438 -1.5625 1.957031 -1.53125 1.875 -1.5 C 1.800781 -1.476562 1.691406 -1.453125 1.546875 -1.421875 C 1.367188 -1.390625 1.238281 -1.335938 1.15625 -1.265625 C 1.082031 -1.203125 1.046875 -1.101562 1.046875 -0.96875 C 1.046875 -0.832031 1.085938 -0.726562 1.171875 -0.65625 C 1.253906 -0.582031 1.367188 -0.546875 1.515625 -0.546875 Z M 1.515625 -0.546875 "/></g></g><g transform="translate(159.542736, 137.614749)"><g><path d="M 0.46875 0 L 0.46875 -3.234375 L 1.25 -3.234375 L 1.25 -2.75 L 1.3125 -2.75 C 1.507812 -3.113281 1.832031 -3.296875 2.28125 -3.296875 C 2.65625 -3.296875 2.929688 -3.191406 3.109375 -2.984375 C 3.285156 -2.785156 3.375 -2.488281 3.375 -2.09375 L 3.375 0 L 2.5625 0 L 2.5625 -2 C 2.5625 -2.21875 2.515625 -2.375 2.421875 -2.46875 C 2.335938 -2.5625 2.203125 -2.609375 2.015625 -2.609375 C 1.785156 -2.609375 1.601562 -2.53125 1.46875 -2.375 C 1.34375 -2.226562 1.28125 -1.992188 1.28125 -1.671875 L 1.28125 0 Z M 0.46875 0 "/></g></g><g transform="translate(163.327898, 137.614749)"><g><path d="M 0.875 -3.625 C 0.726562 -3.625 0.609375 -3.664062 0.515625 -3.75 C 0.421875 -3.84375 0.375 -3.957031 0.375 -4.09375 C 0.375 -4.226562 0.421875 -4.34375 0.515625 -4.4375 C 0.609375 -4.53125 0.726562 -4.578125 0.875 -4.578125 C 0.96875 -4.578125 1.050781 -4.554688 1.125 -4.515625 C 1.207031 -4.472656 1.269531 -4.414062 1.3125 -4.34375 C 1.351562 -4.269531 1.375 -4.1875 1.375 -4.09375 C 1.375 -4 1.351562 -3.914062 1.3125 -3.84375 C 1.269531 -3.769531 1.207031 -3.710938 1.125 -3.671875 C 1.050781 -3.640625 0.96875 -3.625 0.875 -3.625 Z M 0.46875 0 L 0.46875 -3.234375 L 1.28125 -3.234375 L 1.28125 0 Z M 0.46875 0 "/></g></g><g transform="translate(165.068136, 137.614749)"><g><path d="M 1.875 0.0625 C 1.5625 0.0625 1.285156 0 1.046875 -0.125 C 0.804688 -0.257812 0.617188 -0.453125 0.484375 -0.703125 C 0.359375 -0.953125 0.296875 -1.253906 0.296875 -1.609375 C 0.296875 -1.960938 0.359375 -2.265625 0.484375 -2.515625 C 0.617188 -2.773438 0.804688 -2.96875 1.046875 -3.09375 C 1.285156 -3.226562 1.5625 -3.296875 1.875 -3.296875 C 2.195312 -3.296875 2.476562 -3.226562 2.71875 -3.09375 C 2.957031 -2.96875 3.140625 -2.773438 3.265625 -2.515625 C 3.398438 -2.265625 3.46875 -1.960938 3.46875 -1.609375 C 3.46875 -1.253906 3.398438 -0.953125 3.265625 -0.703125 C 3.140625 -0.453125 2.957031 -0.257812 2.71875 -0.125 C 2.476562 0 2.195312 0.0625 1.875 0.0625 Z M 1.875 -0.625 C 2.375 -0.625 2.625 -0.953125 2.625 -1.609375 C 2.625 -1.953125 2.5625 -2.203125 2.4375 -2.359375 C 2.3125 -2.523438 2.125 -2.609375 1.875 -2.609375 C 1.375 -2.609375 1.125 -2.273438 1.125 -1.609375 C 1.125 -0.953125 1.375 -0.625 1.875 -0.625 Z M 1.875 -0.625 "/></g></g><g transform="translate(168.824001, 137.614749)"><g><path d="M 0.46875 0 L 0.46875 -3.234375 L 1.25 -3.234375 L 1.25 -2.75 L 1.3125 -2.75 C 1.507812 -3.113281 1.832031 -3.296875 2.28125 -3.296875 C 2.65625 -3.296875 2.929688 -3.191406 3.109375 -2.984375 C 3.285156 -2.785156 3.375 -2.488281 3.375 -2.09375 L 3.375 0 L 2.5625 0 L 2.5625 -2 C 2.5625 -2.21875 2.515625 -2.375 2.421875 -2.46875 C 2.335938 -2.5625 2.203125 -2.609375 2.015625 -2.609375 C 1.785156 -2.609375 1.601562 -2.53125 1.46875 -2.375 C 1.34375 -2.226562 1.28125 -1.992188 1.28125 -1.671875 L 1.28125 0 Z M 0.46875 0 "/></g></g><g transform="translate(172.609163, 137.614749)"><g/></g><g transform="translate(174.024205, 137.614749)"><g><path d="M 2.265625 0.0625 C 1.847656 0.0625 1.539062 -0.09375 1.34375 -0.40625 L 1.28125 -0.390625 L 1.28125 0 L 0.46875 0 L 0.46875 -4.53125 L 1.28125 -4.53125 L 1.28125 -2.84375 L 1.34375 -2.84375 C 1.445312 -3 1.570312 -3.113281 1.71875 -3.1875 C 1.875 -3.257812 2.0625 -3.296875 2.28125 -3.296875 C 2.539062 -3.296875 2.765625 -3.234375 2.953125 -3.109375 C 3.148438 -2.984375 3.300781 -2.796875 3.40625 -2.546875 C 3.519531 -2.296875 3.578125 -1.984375 3.578125 -1.609375 C 3.578125 -1.242188 3.519531 -0.9375 3.40625 -0.6875 C 3.300781 -0.4375 3.144531 -0.25 2.9375 -0.125 C 2.738281 0 2.515625 0.0625 2.265625 0.0625 Z M 2.015625 -0.625 C 2.253906 -0.625 2.4375 -0.703125 2.5625 -0.859375 C 2.6875 -1.023438 2.75 -1.273438 2.75 -1.609375 C 2.75 -1.953125 2.6875 -2.203125 2.5625 -2.359375 C 2.4375 -2.523438 2.253906 -2.609375 2.015625 -2.609375 C 1.785156 -2.609375 1.601562 -2.523438 1.46875 -2.359375 C 1.332031 -2.191406 1.265625 -1.941406 1.265625 -1.609375 C 1.265625 -1.273438 1.332031 -1.023438 1.46875 -0.859375 C 1.601562 -0.703125 1.785156 -0.625 2.015625 -0.625 Z M 2.015625 -0.625 "/></g></g><g transform="translate(177.894328, 137.614749)"><g><path d="M 1.875 0.0625 C 1.5625 0.0625 1.285156 0 1.046875 -0.125 C 0.804688 -0.257812 0.617188 -0.453125 0.484375 -0.703125 C 0.359375 -0.953125 0.296875 -1.253906 0.296875 -1.609375 C 0.296875 -1.960938 0.359375 -2.265625 0.484375 -2.515625 C 0.617188 -2.773438 0.804688 -2.96875 1.046875 -3.09375 C 1.285156 -3.226562 1.5625 -3.296875 1.875 -3.296875 C 2.195312 -3.296875 2.476562 -3.226562 2.71875 -3.09375 C 2.957031 -2.96875 3.140625 -2.773438 3.265625 -2.515625 C 3.398438 -2.265625 3.46875 -1.960938 3.46875 -1.609375 C 3.46875 -1.253906 3.398438 -0.953125 3.265625 -0.703125 C 3.140625 -0.453125 2.957031 -0.257812 2.71875 -0.125 C 2.476562 0 2.195312 0.0625 1.875 0.0625 Z M 1.875 -0.625 C 2.375 -0.625 2.625 -0.953125 2.625 -1.609375 C 2.625 -1.953125 2.5625 -2.203125 2.4375 -2.359375 C 2.3125 -2.523438 2.125 -2.609375 1.875 -2.609375 C 1.375 -2.609375 1.125 -2.273438 1.125 -1.609375 C 1.125 -0.953125 1.375 -0.625 1.875 -0.625 Z M 1.875 -0.625 "/></g></g><g transform="translate(181.650193, 137.614749)"><g><path d="M 2.234375 -0.765625 L 2.4375 -0.171875 C 2.351562 -0.0976562 2.242188 -0.0390625 2.109375 0 C 1.972656 0.0390625 1.820312 0.0625 1.65625 0.0625 C 1.3125 0.0625 1.046875 -0.03125 0.859375 -0.21875 C 0.679688 -0.414062 0.59375 -0.695312 0.59375 -1.0625 L 0.59375 -2.59375 L 0.09375 -2.59375 L 0.09375 -3.234375 L 0.59375 -3.234375 L 0.59375 -3.859375 L 1.40625 -4 L 1.40625 -3.234375 L 2.3125 -3.234375 L 2.3125 -2.59375 L 1.40625 -2.59375 L 1.40625 -1.109375 C 1.40625 -0.953125 1.4375 -0.835938 1.5 -0.765625 C 1.5625 -0.691406 1.660156 -0.65625 1.796875 -0.65625 C 1.929688 -0.65625 2.054688 -0.691406 2.171875 -0.765625 Z M 2.234375 -0.765625 "/></g></g><g transform="translate(184.16094, 137.614749)"><g/></g><g transform="translate(185.575981, 137.614749)"><g><path d="M 0.5625 0 L 0.5625 -2.59375 L 0.109375 -2.59375 L 0.109375 -3.234375 L 0.5625 -3.234375 C 0.53125 -3.367188 0.515625 -3.5 0.515625 -3.625 C 0.515625 -3.820312 0.5625 -3.992188 0.65625 -4.140625 C 0.75 -4.285156 0.882812 -4.394531 1.0625 -4.46875 C 1.238281 -4.550781 1.445312 -4.59375 1.6875 -4.59375 C 2.039062 -4.59375 2.304688 -4.53125 2.484375 -4.40625 L 2.296875 -3.8125 L 2.234375 -3.796875 C 2.109375 -3.878906 1.953125 -3.921875 1.765625 -3.921875 C 1.617188 -3.921875 1.507812 -3.882812 1.4375 -3.8125 C 1.363281 -3.75 1.328125 -3.65625 1.328125 -3.53125 C 1.328125 -3.476562 1.328125 -3.425781 1.328125 -3.375 C 1.335938 -3.332031 1.351562 -3.285156 1.375 -3.234375 L 2.296875 -3.234375 L 2.296875 -2.59375 L 1.375 -2.59375 L 1.375 0 Z M 0.5625 0 "/></g></g><g transform="translate(187.908016, 137.614749)"><g><path d="M 1.875 0.0625 C 1.5625 0.0625 1.285156 0 1.046875 -0.125 C 0.804688 -0.257812 0.617188 -0.453125 0.484375 -0.703125 C 0.359375 -0.953125 0.296875 -1.253906 0.296875 -1.609375 C 0.296875 -1.960938 0.359375 -2.265625 0.484375 -2.515625 C 0.617188 -2.773438 0.804688 -2.96875 1.046875 -3.09375 C 1.285156 -3.226562 1.5625 -3.296875 1.875 -3.296875 C 2.195312 -3.296875 2.476562 -3.226562 2.71875 -3.09375 C 2.957031 -2.96875 3.140625 -2.773438 3.265625 -2.515625 C 3.398438 -2.265625 3.46875 -1.960938 3.46875 -1.609375 C 3.46875 -1.253906 3.398438 -0.953125 3.265625 -0.703125 C 3.140625 -0.453125 2.957031 -0.257812 2.71875 -0.125 C 2.476562 0 2.195312 0.0625 1.875 0.0625 Z M 1.875 -0.625 C 2.375 -0.625 2.625 -0.953125 2.625 -1.609375 C 2.625 -1.953125 2.5625 -2.203125 2.4375 -2.359375 C 2.3125 -2.523438 2.125 -2.609375 1.875 -2.609375 C 1.375 -2.609375 1.125 -2.273438 1.125 -1.609375 C 1.125 -0.953125 1.375 -0.625 1.875 -0.625 Z M 1.875 -0.625 "/></g></g><g transform="translate(191.663881, 137.614749)"><g><path d="M 0.46875 0 L 0.46875 -3.234375 L 1.25 -3.234375 L 1.25 -2.75 L 1.3125 -2.734375 C 1.394531 -2.921875 1.5 -3.054688 1.625 -3.140625 C 1.75 -3.222656 1.90625 -3.265625 2.09375 -3.265625 C 2.269531 -3.265625 2.40625 -3.234375 2.5 -3.171875 L 2.375 -2.46875 L 2.3125 -2.453125 C 2.257812 -2.472656 2.207031 -2.488281 2.15625 -2.5 C 2.101562 -2.507812 2.039062 -2.515625 1.96875 -2.515625 C 1.75 -2.515625 1.578125 -2.4375 1.453125 -2.28125 C 1.335938 -2.125 1.28125 -1.867188 1.28125 -1.515625 L 1.28125 0 Z M 0.46875 0 "/></g></g><g transform="translate(194.198065, 137.614749)"><g/></g><g transform="translate(195.613106, 137.614749)"><g><path d="M 0.71875 1.375 C 0.570312 1.375 0.441406 1.363281 0.328125 1.34375 C 0.222656 1.320312 0.132812 1.289062 0.0625 1.25 L 0.1875 0.59375 L 0.25 0.578125 C 0.289062 0.609375 0.347656 0.628906 0.421875 0.640625 C 0.492188 0.660156 0.570312 0.671875 0.65625 0.671875 C 0.78125 0.671875 0.882812 0.648438 0.96875 0.609375 C 1.0625 0.578125 1.140625 0.519531 1.203125 0.4375 C 1.265625 0.363281 1.316406 0.253906 1.359375 0.109375 L 0.078125 -3.234375 L 0.921875 -3.234375 L 1.71875 -0.984375 L 1.796875 -0.984375 L 2.578125 -3.234375 L 3.40625 -3.234375 L 2.109375 0.203125 C 2.003906 0.484375 1.890625 0.707031 1.765625 0.875 C 1.640625 1.039062 1.488281 1.164062 1.3125 1.25 C 1.144531 1.332031 0.945312 1.375 0.71875 1.375 Z M 0.71875 1.375 "/></g></g><g transform="translate(199.081862, 137.614749)"><g><path d="M 1.875 0.0625 C 1.5625 0.0625 1.285156 0 1.046875 -0.125 C 0.804688 -0.257812 0.617188 -0.453125 0.484375 -0.703125 C 0.359375 -0.953125 0.296875 -1.253906 0.296875 -1.609375 C 0.296875 -1.960938 0.359375 -2.265625 0.484375 -2.515625 C 0.617188 -2.773438 0.804688 -2.96875 1.046875 -3.09375 C 1.285156 -3.226562 1.5625 -3.296875 1.875 -3.296875 C 2.195312 -3.296875 2.476562 -3.226562 2.71875 -3.09375 C 2.957031 -2.96875 3.140625 -2.773438 3.265625 -2.515625 C 3.398438 -2.265625 3.46875 -1.960938 3.46875 -1.609375 C 3.46875 -1.253906 3.398438 -0.953125 3.265625 -0.703125 C 3.140625 -0.453125 2.957031 -0.257812 2.71875 -0.125 C 2.476562 0 2.195312 0.0625 1.875 0.0625 Z M 1.875 -0.625 C 2.375 -0.625 2.625 -0.953125 2.625 -1.609375 C 2.625 -1.953125 2.5625 -2.203125 2.4375 -2.359375 C 2.3125 -2.523438 2.125 -2.609375 1.875 -2.609375 C 1.375 -2.609375 1.125 -2.273438 1.125 -1.609375 C 1.125 -0.953125 1.375 -0.625 1.875 -0.625 Z M 1.875 -0.625 "/></g></g><g transform="translate(202.837727, 137.614749)"><g><path d="M 1.484375 0.0625 C 1.117188 0.0625 0.847656 -0.0351562 0.671875 -0.234375 C 0.503906 -0.429688 0.421875 -0.71875 0.421875 -1.09375 L 0.421875 -3.234375 L 1.234375 -3.234375 L 1.234375 -1.1875 C 1.234375 -0.988281 1.273438 -0.84375 1.359375 -0.75 C 1.441406 -0.664062 1.570312 -0.625 1.75 -0.625 C 1.976562 -0.625 2.15625 -0.695312 2.28125 -0.84375 C 2.40625 -0.988281 2.46875 -1.222656 2.46875 -1.546875 L 2.46875 -3.234375 L 3.265625 -3.234375 L 3.265625 0 L 2.5 0 L 2.5 -0.46875 L 2.4375 -0.484375 C 2.332031 -0.304688 2.203125 -0.171875 2.046875 -0.078125 C 1.898438 0.015625 1.710938 0.0625 1.484375 0.0625 Z M 1.484375 0.0625 "/></g></g><g transform="translate(206.576015, 137.614749)"><g><path d="M 0.46875 0 L 0.46875 -3.234375 L 1.25 -3.234375 L 1.25 -2.75 L 1.3125 -2.734375 C 1.394531 -2.921875 1.5 -3.054688 1.625 -3.140625 C 1.75 -3.222656 1.90625 -3.265625 2.09375 -3.265625 C 2.269531 -3.265625 2.40625 -3.234375 2.5 -3.171875 L 2.375 -2.46875 L 2.3125 -2.453125 C 2.257812 -2.472656 2.207031 -2.488281 2.15625 -2.5 C 2.101562 -2.507812 2.039062 -2.515625 1.96875 -2.515625 C 1.75 -2.515625 1.578125 -2.4375 1.453125 -2.28125 C 1.335938 -2.125 1.28125 -1.867188 1.28125 -1.515625 L 1.28125 0 Z M 0.46875 0 "/></g></g><g transform="translate(209.110198, 137.614749)"><g/></g><g transform="translate(210.52524, 137.614749)"><g><path d="M 1.890625 0.0625 C 1.578125 0.0625 1.296875 0 1.046875 -0.125 C 0.804688 -0.257812 0.617188 -0.453125 0.484375 -0.703125 C 0.359375 -0.953125 0.296875 -1.253906 0.296875 -1.609375 C 0.296875 -1.960938 0.359375 -2.265625 0.484375 -2.515625 C 0.617188 -2.773438 0.804688 -2.96875 1.046875 -3.09375 C 1.285156 -3.226562 1.5625 -3.296875 1.875 -3.296875 C 2.550781 -3.296875 2.984375 -3.046875 3.171875 -2.546875 L 2.625 -2.15625 L 2.5625 -2.15625 C 2.5 -2.300781 2.410156 -2.410156 2.296875 -2.484375 C 2.191406 -2.566406 2.050781 -2.609375 1.875 -2.609375 C 1.632812 -2.609375 1.445312 -2.523438 1.3125 -2.359375 C 1.1875 -2.203125 1.125 -1.953125 1.125 -1.609375 C 1.125 -1.273438 1.191406 -1.023438 1.328125 -0.859375 C 1.460938 -0.703125 1.648438 -0.625 1.890625 -0.625 C 2.054688 -0.625 2.203125 -0.671875 2.328125 -0.765625 C 2.453125 -0.859375 2.539062 -0.992188 2.59375 -1.171875 L 2.65625 -1.1875 L 3.234375 -0.875 C 3.148438 -0.59375 2.992188 -0.363281 2.765625 -0.1875 C 2.546875 -0.0195312 2.253906 0.0625 1.890625 0.0625 Z M 1.890625 0.0625 "/></g></g><g transform="translate(213.8563, 137.614749)"><g><path d="M 0.46875 0 L 0.46875 -4.53125 L 1.28125 -4.53125 L 1.28125 -2.8125 L 1.34375 -2.796875 C 1.445312 -2.953125 1.578125 -3.070312 1.734375 -3.15625 C 1.890625 -3.25 2.078125 -3.296875 2.296875 -3.296875 C 3.015625 -3.296875 3.375 -2.890625 3.375 -2.078125 L 3.375 0 L 2.5625 0 L 2.5625 -1.984375 C 2.5625 -2.203125 2.515625 -2.359375 2.421875 -2.453125 C 2.335938 -2.554688 2.203125 -2.609375 2.015625 -2.609375 C 1.785156 -2.609375 1.601562 -2.53125 1.46875 -2.375 C 1.34375 -2.226562 1.28125 -1.992188 1.28125 -1.671875 L 1.28125 0 Z M 0.46875 0 "/></g></g><g transform="translate(217.641462, 137.614749)"><g><path d="M 1.265625 0.0625 C 1.054688 0.0625 0.875 0.0234375 0.71875 -0.046875 C 0.570312 -0.128906 0.457031 -0.242188 0.375 -0.390625 C 0.289062 -0.535156 0.25 -0.710938 0.25 -0.921875 C 0.25 -1.109375 0.289062 -1.265625 0.375 -1.390625 C 0.457031 -1.523438 0.582031 -1.632812 0.75 -1.71875 C 0.925781 -1.800781 1.148438 -1.863281 1.421875 -1.90625 C 1.617188 -1.9375 1.765625 -1.972656 1.859375 -2.015625 C 1.960938 -2.054688 2.03125 -2.097656 2.0625 -2.140625 C 2.101562 -2.191406 2.125 -2.253906 2.125 -2.328125 C 2.125 -2.421875 2.085938 -2.492188 2.015625 -2.546875 C 1.941406 -2.609375 1.820312 -2.640625 1.65625 -2.640625 C 1.476562 -2.640625 1.304688 -2.597656 1.140625 -2.515625 C 0.972656 -2.441406 0.832031 -2.335938 0.71875 -2.203125 L 0.65625 -2.203125 L 0.3125 -2.71875 C 0.476562 -2.894531 0.679688 -3.035156 0.921875 -3.140625 C 1.160156 -3.242188 1.414062 -3.296875 1.6875 -3.296875 C 2.113281 -3.296875 2.421875 -3.203125 2.609375 -3.015625 C 2.804688 -2.835938 2.90625 -2.582031 2.90625 -2.25 L 2.90625 -0.84375 C 2.90625 -0.695312 2.96875 -0.625 3.09375 -0.625 C 3.144531 -0.625 3.195312 -0.632812 3.25 -0.65625 L 3.28125 -0.640625 L 3.34375 -0.078125 C 3.300781 -0.046875 3.238281 -0.0195312 3.15625 0 C 3.070312 0.0195312 2.984375 0.03125 2.890625 0.03125 C 2.703125 0.03125 2.550781 -0.00390625 2.4375 -0.078125 C 2.332031 -0.160156 2.253906 -0.28125 2.203125 -0.4375 L 2.140625 -0.4375 C 1.984375 -0.101562 1.691406 0.0625 1.265625 0.0625 Z M 1.515625 -0.546875 C 1.703125 -0.546875 1.851562 -0.609375 1.96875 -0.734375 C 2.082031 -0.859375 2.140625 -1.035156 2.140625 -1.265625 L 2.140625 -1.59375 L 2.078125 -1.59375 C 2.023438 -1.5625 1.957031 -1.53125 1.875 -1.5 C 1.800781 -1.476562 1.691406 -1.453125 1.546875 -1.421875 C 1.367188 -1.390625 1.238281 -1.335938 1.15625 -1.265625 C 1.082031 -1.203125 1.046875 -1.101562 1.046875 -0.96875 C 1.046875 -0.832031 1.085938 -0.726562 1.171875 -0.65625 C 1.253906 -0.582031 1.367188 -0.546875 1.515625 -0.546875 Z M 1.515625 -0.546875 "/></g></g><g transform="translate(221.048694, 137.614749)"><g><path d="M 2.234375 -0.765625 L 2.4375 -0.171875 C 2.351562 -0.0976562 2.242188 -0.0390625 2.109375 0 C 1.972656 0.0390625 1.820312 0.0625 1.65625 0.0625 C 1.3125 0.0625 1.046875 -0.03125 0.859375 -0.21875 C 0.679688 -0.414062 0.59375 -0.695312 0.59375 -1.0625 L 0.59375 -2.59375 L 0.09375 -2.59375 L 0.09375 -3.234375 L 0.59375 -3.234375 L 0.59375 -3.859375 L 1.40625 -4 L 1.40625 -3.234375 L 2.3125 -3.234375 L 2.3125 -2.59375 L 1.40625 -2.59375 L 1.40625 -1.109375 C 1.40625 -0.953125 1.4375 -0.835938 1.5 -0.765625 C 1.5625 -0.691406 1.660156 -0.65625 1.796875 -0.65625 C 1.929688 -0.65625 2.054688 -0.691406 2.171875 -0.765625 Z M 2.234375 -0.765625 "/></g></g><g transform="translate(223.55944, 137.614749)"><g/></g><g transform="translate(224.974481, 137.614749)"><g><path d="M 1.265625 0.0625 C 1.054688 0.0625 0.875 0.0234375 0.71875 -0.046875 C 0.570312 -0.128906 0.457031 -0.242188 0.375 -0.390625 C 0.289062 -0.535156 0.25 -0.710938 0.25 -0.921875 C 0.25 -1.109375 0.289062 -1.265625 0.375 -1.390625 C 0.457031 -1.523438 0.582031 -1.632812 0.75 -1.71875 C 0.925781 -1.800781 1.148438 -1.863281 1.421875 -1.90625 C 1.617188 -1.9375 1.765625 -1.972656 1.859375 -2.015625 C 1.960938 -2.054688 2.03125 -2.097656 2.0625 -2.140625 C 2.101562 -2.191406 2.125 -2.253906 2.125 -2.328125 C 2.125 -2.421875 2.085938 -2.492188 2.015625 -2.546875 C 1.941406 -2.609375 1.820312 -2.640625 1.65625 -2.640625 C 1.476562 -2.640625 1.304688 -2.597656 1.140625 -2.515625 C 0.972656 -2.441406 0.832031 -2.335938 0.71875 -2.203125 L 0.65625 -2.203125 L 0.3125 -2.71875 C 0.476562 -2.894531 0.679688 -3.035156 0.921875 -3.140625 C 1.160156 -3.242188 1.414062 -3.296875 1.6875 -3.296875 C 2.113281 -3.296875 2.421875 -3.203125 2.609375 -3.015625 C 2.804688 -2.835938 2.90625 -2.582031 2.90625 -2.25 L 2.90625 -0.84375 C 2.90625 -0.695312 2.96875 -0.625 3.09375 -0.625 C 3.144531 -0.625 3.195312 -0.632812 3.25 -0.65625 L 3.28125 -0.640625 L 3.34375 -0.078125 C 3.300781 -0.046875 3.238281 -0.0195312 3.15625 0 C 3.070312 0.0195312 2.984375 0.03125 2.890625 0.03125 C 2.703125 0.03125 2.550781 -0.00390625 2.4375 -0.078125 C 2.332031 -0.160156 2.253906 -0.28125 2.203125 -0.4375 L 2.140625 -0.4375 C 1.984375 -0.101562 1.691406 0.0625 1.265625 0.0625 Z M 1.515625 -0.546875 C 1.703125 -0.546875 1.851562 -0.609375 1.96875 -0.734375 C 2.082031 -0.859375 2.140625 -1.035156 2.140625 -1.265625 L 2.140625 -1.59375 L 2.078125 -1.59375 C 2.023438 -1.5625 1.957031 -1.53125 1.875 -1.5 C 1.800781 -1.476562 1.691406 -1.453125 1.546875 -1.421875 C 1.367188 -1.390625 1.238281 -1.335938 1.15625 -1.265625 C 1.082031 -1.203125 1.046875 -1.101562 1.046875 -0.96875 C 1.046875 -0.832031 1.085938 -0.726562 1.171875 -0.65625 C 1.253906 -0.582031 1.367188 -0.546875 1.515625 -0.546875 Z M 1.515625 -0.546875 "/></g></g><g transform="translate(228.381713, 137.614749)"><g><path d="M 0.46875 1.3125 L 0.46875 -3.234375 L 1.28125 -3.234375 L 1.28125 -2.8125 L 1.34375 -2.796875 C 1.4375 -2.960938 1.5625 -3.085938 1.71875 -3.171875 C 1.882812 -3.253906 2.070312 -3.296875 2.28125 -3.296875 C 2.539062 -3.296875 2.769531 -3.234375 2.96875 -3.109375 C 3.164062 -2.984375 3.316406 -2.796875 3.421875 -2.546875 C 3.523438 -2.296875 3.578125 -1.984375 3.578125 -1.609375 C 3.578125 -1.242188 3.519531 -0.9375 3.40625 -0.6875 C 3.289062 -0.4375 3.128906 -0.25 2.921875 -0.125 C 2.722656 0 2.492188 0.0625 2.234375 0.0625 C 2.035156 0.0625 1.859375 0.03125 1.703125 -0.03125 C 1.554688 -0.101562 1.4375 -0.210938 1.34375 -0.359375 L 1.28125 -0.34375 L 1.28125 1.3125 Z M 2 -0.625 C 2.25 -0.625 2.4375 -0.703125 2.5625 -0.859375 C 2.6875 -1.023438 2.75 -1.273438 2.75 -1.609375 C 2.75 -1.953125 2.6875 -2.203125 2.5625 -2.359375 C 2.4375 -2.523438 2.25 -2.609375 2 -2.609375 C 1.78125 -2.609375 1.601562 -2.523438 1.46875 -2.359375 C 1.332031 -2.191406 1.265625 -1.941406 1.265625 -1.609375 C 1.265625 -1.285156 1.332031 -1.039062 1.46875 -0.875 C 1.601562 -0.707031 1.78125 -0.625 2 -0.625 Z M 2 -0.625 "/></g></g><g transform="translate(232.251837, 137.614749)"><g><path d="M 0.46875 1.3125 L 0.46875 -3.234375 L 1.28125 -3.234375 L 1.28125 -2.8125 L 1.34375 -2.796875 C 1.4375 -2.960938 1.5625 -3.085938 1.71875 -3.171875 C 1.882812 -3.253906 2.070312 -3.296875 2.28125 -3.296875 C 2.539062 -3.296875 2.769531 -3.234375 2.96875 -3.109375 C 3.164062 -2.984375 3.316406 -2.796875 3.421875 -2.546875 C 3.523438 -2.296875 3.578125 -1.984375 3.578125 -1.609375 C 3.578125 -1.242188 3.519531 -0.9375 3.40625 -0.6875 C 3.289062 -0.4375 3.128906 -0.25 2.921875 -0.125 C 2.722656 0 2.492188 0.0625 2.234375 0.0625 C 2.035156 0.0625 1.859375 0.03125 1.703125 -0.03125 C 1.554688 -0.101562 1.4375 -0.210938 1.34375 -0.359375 L 1.28125 -0.34375 L 1.28125 1.3125 Z M 2 -0.625 C 2.25 -0.625 2.4375 -0.703125 2.5625 -0.859375 C 2.6875 -1.023438 2.75 -1.273438 2.75 -1.609375 C 2.75 -1.953125 2.6875 -2.203125 2.5625 -2.359375 C 2.4375 -2.523438 2.25 -2.609375 2 -2.609375 C 1.78125 -2.609375 1.601562 -2.523438 1.46875 -2.359375 C 1.332031 -2.191406 1.265625 -1.941406 1.265625 -1.609375 C 1.265625 -1.285156 1.332031 -1.039062 1.46875 -0.875 C 1.601562 -0.707031 1.78125 -0.625 2 -0.625 Z M 2 -0.625 "/></g></g><g transform="translate(236.12196, 137.614749)"><g><path d="M 0.828125 0.03125 C 0.722656 0.03125 0.628906 0.0078125 0.546875 -0.03125 C 0.472656 -0.0703125 0.414062 -0.128906 0.375 -0.203125 C 0.332031 -0.285156 0.3125 -0.375 0.3125 -0.46875 C 0.3125 -0.5625 0.332031 -0.644531 0.375 -0.71875 C 0.414062 -0.789062 0.472656 -0.847656 0.546875 -0.890625 C 0.628906 -0.929688 0.722656 -0.953125 0.828125 -0.953125 C 0.929688 -0.953125 1.019531 -0.929688 1.09375 -0.890625 C 1.175781 -0.847656 1.238281 -0.789062 1.28125 -0.71875 C 1.320312 -0.644531 1.34375 -0.5625 1.34375 -0.46875 C 1.34375 -0.320312 1.296875 -0.203125 1.203125 -0.109375 C 1.109375 -0.015625 0.984375 0.03125 0.828125 0.03125 Z M 0.828125 0.03125 "/></g></g></g><g clip-path="url(#4917173701)"><g clip-path="url(#96c8767d76)"><path fill="#52525b" d="M 90.324219 152.625 L 128.625 152.625 L 128.625 170.554688 L 90.324219 170.554688 Z M 90.324219 152.625 " fill-opacity="1" fill-rule="nonzero"/></g></g><g clip-path="url(#3046269885)"><g clip-path="url(#1518b3910a)"><path fill="#52525b" d="M 137.289062 152.625 L 175.589844 152.625 L 175.589844 170.554688 L 137.289062 170.554688 Z M 137.289062 152.625 " fill-opacity="1" fill-rule="nonzero"/></g></g><g clip-path="url(#0a0be89e9e)"><g clip-path="url(#b4e5998e83)"><path fill="#52525b" d="M 184.457031 152.625 L 222.761719 152.625 L 222.761719 170.554688 L 184.457031 170.554688 Z M 184.457031 152.625 " fill-opacity="1" fill-rule="nonzero"/></g></g><g clip-path="url(#30a22890d5)"><g clip-path="url(#dfbcaedcac)"><path fill="#52525b" d="M 231.34375 152.625 L 269.648438 152.625 L 269.648438 170.554688 L 231.34375 170.554688 Z M 231.34375 152.625 " fill-opacity="1" fill-rule="nonzero"/></g></g></svg>