<svg width="480" height="280" viewBox="0 0 480 280" fill="none" xmlns="http://www.w3.org/2000/svg">
<rect width="480" height="280" fill="#323237"/>
<rect x="286" y="42" width="23" height="4" rx="2" fill="#71717A"/>
<rect x="249" y="42" width="23" height="4" rx="2" fill="#71717A"/>
<rect x="212" y="42" width="23" height="4" rx="2" fill="#71717A"/>
<rect x="175" y="42" width="23" height="4" rx="2" fill="#6366F1"/>
<rect x="32" y="39" width="39" height="10" rx="5" fill="#71717A"/>
<rect x="385" y="32" width="67" height="25" rx="6" fill="#52525B"/>
<rect x="396" y="43" width="46" height="3" rx="1.5" fill="#A1A1AA"/>
<rect x="32" y="75" width="420" height="173" rx="8" fill="#6366F1"/>
<rect x="213" y="110" width="55" height="4" rx="2" fill="#C7D2FE"/>
<rect x="171" y="190" width="65" height="24" rx="6" fill="#818CF8"/>
<rect x="245" y="190" width="65" height="24" rx="6" fill="#F4F4F5"/>
<rect x="181" y="200" width="46" height="4" rx="2" fill="white"/>
<rect x="256" y="200" width="45" height="4" rx="2" fill="#D4D4D8"/>
<path d="M148.735 147H151.81V141.844H154.055L156.81 147H160.205L157.116 141.347C158.77 140.636 159.687 139.195 159.687 137.206C159.687 134.315 157.776 132.455 154.474 132.455H148.735V147ZM151.81 139.372V134.969H153.884C155.66 134.969 156.519 135.757 156.519 137.206C156.519 138.648 155.66 139.372 153.898 139.372H151.81ZM166.599 147.213C169.298 147.213 171.116 145.899 171.542 143.875L168.744 143.69C168.438 144.521 167.657 144.955 166.649 144.955C165.136 144.955 164.177 143.953 164.177 142.327V142.32H171.606V141.489C171.606 137.781 169.362 135.949 166.478 135.949C163.268 135.949 161.187 138.229 161.187 141.595C161.187 145.054 163.24 147.213 166.599 147.213ZM164.177 140.445C164.241 139.202 165.186 138.207 166.528 138.207C167.842 138.207 168.751 139.145 168.758 140.445H164.177ZM183.438 136.091H180.235L177.977 143.896H177.863L175.597 136.091H172.401L176.215 147H179.624L183.438 136.091ZM189.545 147.213C192.854 147.213 194.914 144.947 194.914 141.588C194.914 138.207 192.854 135.949 189.545 135.949C186.235 135.949 184.175 138.207 184.175 141.588C184.175 144.947 186.235 147.213 189.545 147.213ZM189.559 144.869C188.032 144.869 187.251 143.47 187.251 141.567C187.251 139.663 188.032 138.257 189.559 138.257C191.057 138.257 191.839 139.663 191.839 141.567C191.839 143.47 191.057 144.869 189.559 144.869ZM199.907 132.455H196.881V147H199.907V132.455ZM209.326 142.355C209.333 143.818 208.332 144.585 207.245 144.585C206.102 144.585 205.363 143.783 205.356 142.497V136.091H202.33V143.037C202.338 145.587 203.829 147.142 206.024 147.142C207.664 147.142 208.843 146.297 209.333 145.018H209.447V147H212.352V136.091H209.326V142.355ZM220.574 136.091H218.522V133.477H215.496V136.091H214.005V138.364H215.496V144.045C215.482 146.183 216.938 147.241 219.133 147.149C219.914 147.121 220.468 146.964 220.773 146.865L220.297 144.614C220.148 144.642 219.829 144.713 219.545 144.713C218.941 144.713 218.522 144.486 218.522 143.648V138.364H220.574V136.091ZM222.545 147H225.571V136.091H222.545V147ZM224.065 134.685C224.967 134.685 225.706 133.996 225.706 133.151C225.706 132.312 224.967 131.624 224.065 131.624C223.17 131.624 222.432 132.312 222.432 133.151C222.432 133.996 223.17 134.685 224.065 134.685ZM232.923 147.213C236.233 147.213 238.293 144.947 238.293 141.588C238.293 138.207 236.233 135.949 232.923 135.949C229.614 135.949 227.554 138.207 227.554 141.588C227.554 144.947 229.614 147.213 232.923 147.213ZM232.938 144.869C231.411 144.869 230.629 143.47 230.629 141.567C230.629 139.663 231.411 138.257 232.938 138.257C234.436 138.257 235.218 139.663 235.218 141.567C235.218 143.47 234.436 144.869 232.938 144.869ZM243.286 140.693C243.293 139.287 244.131 138.463 245.352 138.463C246.567 138.463 247.298 139.259 247.291 140.594V147H250.317V140.054C250.317 137.511 248.825 135.949 246.553 135.949C244.933 135.949 243.762 136.744 243.271 138.016H243.144V136.091H240.26V147H243.286V140.693ZM255.812 147.206C257.425 147.206 258.469 146.503 259.001 145.487H259.086V147H261.956V139.642C261.956 137.043 259.754 135.949 257.325 135.949C254.711 135.949 252.993 137.199 252.574 139.188L255.372 139.415C255.578 138.69 256.224 138.158 257.311 138.158C258.341 138.158 258.93 138.676 258.93 139.571V139.614C258.93 140.317 258.184 140.409 256.288 140.594C254.129 140.793 252.19 141.517 252.19 143.953C252.19 146.112 253.731 147.206 255.812 147.206ZM256.679 145.118C255.748 145.118 255.081 144.685 255.081 143.854C255.081 143.001 255.784 142.582 256.849 142.433C257.51 142.341 258.589 142.185 258.952 141.943V143.101C258.952 144.244 258.007 145.118 256.679 145.118ZM264.303 147H267.329V140.828C267.329 139.486 268.309 138.562 269.644 138.562C270.063 138.562 270.638 138.634 270.922 138.726V136.041C270.653 135.977 270.276 135.935 269.971 135.935C268.749 135.935 267.748 136.645 267.35 137.994H267.236V136.091H264.303V147ZM274.687 151.091C276.938 151.091 278.131 149.94 278.749 148.179L282.989 136.105L279.786 136.091L277.506 144.102H277.393L275.134 136.091H271.952L275.866 147.312L275.688 147.774C275.29 148.797 274.53 148.847 273.465 148.52L272.783 150.778C273.216 150.963 273.92 151.091 274.687 151.091ZM291.318 147H294.514L296.389 140.139H296.524L298.399 147H301.602L304.564 136.091H301.51L299.848 143.378H299.756L297.966 136.091H294.962L293.2 143.42H293.101L291.411 136.091H288.35L291.318 147ZM309.289 147.206C310.901 147.206 311.945 146.503 312.478 145.487H312.563V147H315.432V139.642C315.432 137.043 313.231 135.949 310.802 135.949C308.188 135.949 306.469 137.199 306.05 139.188L308.849 139.415C309.055 138.69 309.701 138.158 310.787 138.158C311.817 138.158 312.407 138.676 312.407 139.571V139.614C312.407 140.317 311.661 140.409 309.765 140.594C307.606 140.793 305.667 141.517 305.667 143.953C305.667 146.112 307.208 147.206 309.289 147.206ZM310.155 145.118C309.225 145.118 308.557 144.685 308.557 143.854C308.557 143.001 309.26 142.582 310.326 142.433C310.986 142.341 312.066 142.185 312.428 141.943V143.101C312.428 144.244 311.483 145.118 310.155 145.118ZM319.257 151.091C321.508 151.091 322.702 149.94 323.319 148.179L327.559 136.105L324.356 136.091L322.077 144.102H321.963L319.704 136.091H316.523L320.436 147.312L320.258 147.774C319.861 148.797 319.101 148.847 318.035 148.52L317.354 150.778C317.787 150.963 318.49 151.091 319.257 151.091ZM168.797 160.091H166.744V157.477H163.719V160.091H162.227V162.364H163.719V168.045C163.705 170.183 165.161 171.241 167.355 171.149C168.137 171.121 168.691 170.964 168.996 170.865L168.52 168.614C168.371 168.642 168.051 168.713 167.767 168.713C167.164 168.713 166.744 168.486 166.744 167.648V162.364H168.797V160.091ZM175.58 171.213C178.889 171.213 180.949 168.947 180.949 165.588C180.949 162.207 178.889 159.949 175.58 159.949C172.27 159.949 170.21 162.207 170.21 165.588C170.21 168.947 172.27 171.213 175.58 171.213ZM175.594 168.869C174.067 168.869 173.286 167.47 173.286 165.567C173.286 163.663 174.067 162.257 175.594 162.257C177.093 162.257 177.874 163.663 177.874 165.567C177.874 167.47 177.093 168.869 175.594 168.869ZM187.602 171H190.585V169.253H190.72C191.139 170.162 192.055 171.178 193.817 171.178C196.302 171.178 198.241 169.21 198.241 165.56C198.241 161.81 196.217 159.949 193.824 159.949C191.998 159.949 191.125 161.036 190.72 161.923H190.628V156.455H187.602V171ZM190.564 165.545C190.564 163.599 191.388 162.357 192.858 162.357C194.356 162.357 195.152 163.656 195.152 165.545C195.152 167.449 194.342 168.77 192.858 168.77C191.402 168.77 190.564 167.491 190.564 165.545ZM207.256 166.355C207.263 167.818 206.262 168.585 205.175 168.585C204.031 168.585 203.293 167.783 203.286 166.497V160.091H200.26V167.037C200.267 169.587 201.759 171.142 203.953 171.142C205.594 171.142 206.773 170.297 207.263 169.018H207.377V171H210.281V160.091H207.256V166.355ZM212.702 171H215.727V160.091H212.702V171ZM214.221 158.685C215.123 158.685 215.862 157.996 215.862 157.151C215.862 156.312 215.123 155.624 214.221 155.624C213.327 155.624 212.588 156.312 212.588 157.151C212.588 157.996 213.327 158.685 214.221 158.685ZM221.176 156.455H218.151V171H221.176V156.455ZM227.62 171.178C229.381 171.178 230.297 170.162 230.716 169.253H230.844V171H233.827V156.455H230.809V161.923H230.716C230.312 161.036 229.438 159.949 227.613 159.949C225.219 159.949 223.195 161.81 223.195 165.56C223.195 169.21 225.134 171.178 227.62 171.178ZM228.579 168.77C227.094 168.77 226.285 167.449 226.285 165.545C226.285 163.656 227.08 162.357 228.579 162.357C230.049 162.357 230.873 163.599 230.873 165.545C230.873 167.491 230.035 168.77 228.579 168.77ZM246.746 160.091H244.694V157.477H241.668V160.091H240.177V162.364H241.668V168.045C241.654 170.183 243.11 171.241 245.305 171.149C246.086 171.121 246.64 170.964 246.945 170.865L246.469 168.614C246.32 168.642 246.001 168.713 245.716 168.713C245.113 168.713 244.694 168.486 244.694 167.648V162.364H246.746V160.091ZM251.977 164.693C251.984 163.287 252.844 162.463 254.079 162.463C255.308 162.463 256.032 163.251 256.025 164.594V171H259.051V164.054C259.058 161.497 257.552 159.949 255.28 159.949C253.625 159.949 252.517 160.73 252.02 162.016H251.892V156.455H248.952V171H251.977V164.693ZM266.404 171.213C269.102 171.213 270.921 169.899 271.347 167.875L268.548 167.69C268.243 168.521 267.462 168.955 266.453 168.955C264.941 168.955 263.982 167.953 263.982 166.327V166.32H271.411V165.489C271.411 161.781 269.166 159.949 266.283 159.949C263.073 159.949 260.992 162.229 260.992 165.595C260.992 169.054 263.044 171.213 266.404 171.213ZM263.982 164.445C264.046 163.202 264.99 162.207 266.333 162.207C267.646 162.207 268.556 163.145 268.563 164.445H263.982ZM280.166 171H283.362L285.237 164.139H285.372L287.247 171H290.45L293.412 160.091H290.358L288.696 167.378H288.604L286.814 160.091H283.809L282.048 167.42H281.949L280.258 160.091H277.197L280.166 171ZM299.724 171.213C302.423 171.213 304.241 169.899 304.667 167.875L301.869 167.69C301.563 168.521 300.782 168.955 299.774 168.955C298.261 168.955 297.302 167.953 297.302 166.327V166.32H304.731V165.489C304.731 161.781 302.487 159.949 299.603 159.949C296.393 159.949 294.312 162.229 294.312 165.595C294.312 169.054 296.365 171.213 299.724 171.213ZM297.302 164.445C297.366 163.202 298.311 162.207 299.653 162.207C300.967 162.207 301.876 163.145 301.883 164.445H297.302ZM306.762 171H309.745V169.253H309.88C310.299 170.162 311.215 171.178 312.977 171.178C315.463 171.178 317.401 169.21 317.401 165.56C317.401 161.81 315.377 159.949 312.984 159.949C311.159 159.949 310.285 161.036 309.88 161.923H309.788V156.455H306.762V171ZM309.724 165.545C309.724 163.599 310.548 162.357 312.018 162.357C313.517 162.357 314.312 163.656 314.312 165.545C314.312 167.449 313.502 168.77 312.018 168.77C310.562 168.77 309.724 167.491 309.724 165.545Z" fill="white"/>
</svg>
