<svg width="480" height="280" viewBox="0 0 480 280" fill="none" xmlns="http://www.w3.org/2000/svg">
<rect width="480" height="280" fill="#323237"/>
<rect x="286" y="42" width="23" height="4" rx="2" fill="#71717A"/>
<rect x="249" y="42" width="23" height="4" rx="2" fill="#71717A"/>
<rect x="212" y="42" width="23" height="4" rx="2" fill="#71717A"/>
<rect x="175" y="42" width="23" height="4" rx="2" fill="#6366F1"/>
<rect x="32" y="39" width="39" height="10" rx="5" fill="#71717A"/>
<rect x="32" y="103" width="55" height="4" rx="2" fill="#6366F1"/>
<rect x="385" y="32" width="67" height="25" rx="6" fill="#52525B"/>
<rect x="396" y="43" width="46" height="3" rx="1.5" fill="#A1A1AA"/>
<rect x="296" y="95" width="156" height="156" rx="8" fill="#52525B"/>
<path d="M33.2642 140H36.3395V134.844H38.5838L41.3395 140H44.7344L41.6449 134.347C43.2997 133.636 44.2159 132.195 44.2159 130.206C44.2159 127.315 42.3054 125.455 39.0028 125.455H33.2642V140ZM36.3395 132.372V127.969H38.4134C40.1889 127.969 41.0483 128.757 41.0483 130.206C41.0483 131.648 40.1889 132.372 38.4276 132.372H36.3395ZM51.1282 140.213C53.8271 140.213 55.6452 138.899 56.0714 136.875L53.2731 136.69C52.9677 137.521 52.1864 137.955 51.1779 137.955C49.6651 137.955 48.7063 136.953 48.7063 135.327V135.32H56.1353V134.489C56.1353 130.781 53.891 128.949 51.0075 128.949C47.7972 128.949 45.7163 131.229 45.7163 134.595C45.7163 138.054 47.7688 140.213 51.1282 140.213ZM48.7063 133.445C48.7702 132.202 49.7148 131.207 51.0572 131.207C52.3711 131.207 53.2802 132.145 53.2873 133.445H48.7063ZM67.9677 129.091H64.7646L62.506 136.896H62.3924L60.1268 129.091H56.9308L60.7447 140H64.1538L67.9677 129.091ZM74.0739 140.213C77.3835 140.213 79.4432 137.947 79.4432 134.588C79.4432 131.207 77.3835 128.949 74.0739 128.949C70.7642 128.949 68.7045 131.207 68.7045 134.588C68.7045 137.947 70.7642 140.213 74.0739 140.213ZM74.0881 137.869C72.5611 137.869 71.7798 136.47 71.7798 134.567C71.7798 132.663 72.5611 131.257 74.0881 131.257C75.5866 131.257 76.3679 132.663 76.3679 134.567C76.3679 136.47 75.5866 137.869 74.0881 137.869ZM84.4361 125.455H81.4105V140H84.4361V125.455ZM93.8555 135.355C93.8626 136.818 92.8612 137.585 91.7745 137.585C90.631 137.585 89.8924 136.783 89.8853 135.497V129.091H86.8597V136.037C86.8668 138.587 88.3583 140.142 90.5529 140.142C92.1935 140.142 93.3725 139.297 93.8626 138.018H93.9762V140H96.881V129.091H93.8555V135.355ZM105.104 129.091H103.051V126.477H100.026V129.091H98.5341V131.364H100.026V137.045C100.011 139.183 101.467 140.241 103.662 140.149C104.443 140.121 104.997 139.964 105.303 139.865L104.827 137.614C104.678 137.642 104.358 137.713 104.074 137.713C103.47 137.713 103.051 137.486 103.051 136.648V131.364H105.104V129.091ZM107.075 140H110.1V129.091H107.075V140ZM108.594 127.685C109.496 127.685 110.235 126.996 110.235 126.151C110.235 125.312 109.496 124.624 108.594 124.624C107.7 124.624 106.961 125.312 106.961 126.151C106.961 126.996 107.7 127.685 108.594 127.685ZM117.453 140.213C120.762 140.213 122.822 137.947 122.822 134.588C122.822 131.207 120.762 128.949 117.453 128.949C114.143 128.949 112.083 131.207 112.083 134.588C112.083 137.947 114.143 140.213 117.453 140.213ZM117.467 137.869C115.94 137.869 115.159 136.47 115.159 134.567C115.159 132.663 115.94 131.257 117.467 131.257C118.966 131.257 119.747 132.663 119.747 134.567C119.747 136.47 118.966 137.869 117.467 137.869ZM127.815 133.693C127.822 132.287 128.66 131.463 129.882 131.463C131.096 131.463 131.828 132.259 131.821 133.594V140H134.846V133.054C134.846 130.511 133.355 128.949 131.082 128.949C129.463 128.949 128.291 129.744 127.801 131.016H127.673V129.091H124.789V140H127.815V133.693ZM140.342 140.206C141.954 140.206 142.998 139.503 143.531 138.487H143.616V140H146.485V132.642C146.485 130.043 144.283 128.949 141.854 128.949C139.241 128.949 137.522 130.199 137.103 132.188L139.901 132.415C140.107 131.69 140.754 131.158 141.84 131.158C142.87 131.158 143.46 131.676 143.46 132.571V132.614C143.46 133.317 142.714 133.409 140.817 133.594C138.658 133.793 136.719 134.517 136.719 136.953C136.719 139.112 138.261 140.206 140.342 140.206ZM141.208 138.118C140.278 138.118 139.61 137.685 139.61 136.854C139.61 136.001 140.313 135.582 141.379 135.433C142.039 135.341 143.119 135.185 143.481 134.943V136.101C143.481 137.244 142.536 138.118 141.208 138.118ZM148.832 140H151.858V133.828C151.858 132.486 152.838 131.562 154.173 131.562C154.592 131.562 155.168 131.634 155.452 131.726V129.041C155.182 128.977 154.805 128.935 154.5 128.935C153.278 128.935 152.277 129.645 151.879 130.994H151.766V129.091H148.832V140ZM159.216 144.091C161.467 144.091 162.661 142.94 163.278 141.179L167.518 129.105L164.315 129.091L162.036 137.102H161.922L159.663 129.091H156.482L160.395 140.312L160.217 140.774C159.82 141.797 159.06 141.847 157.994 141.52L157.312 143.778C157.746 143.963 158.449 144.091 159.216 144.091ZM175.848 140H179.044L180.919 133.139H181.054L182.929 140H186.132L189.093 129.091H186.039L184.377 136.378H184.285L182.495 129.091H179.491L177.73 136.42H177.63L175.94 129.091H172.879L175.848 140ZM193.818 140.206C195.43 140.206 196.474 139.503 197.007 138.487H197.092V140H199.962V132.642C199.962 130.043 197.76 128.949 195.331 128.949C192.717 128.949 190.999 130.199 190.58 132.188L193.378 132.415C193.584 131.69 194.23 131.158 195.317 131.158C196.347 131.158 196.936 131.676 196.936 132.571V132.614C196.936 133.317 196.19 133.409 194.294 133.594C192.135 133.793 190.196 134.517 190.196 136.953C190.196 139.112 191.737 140.206 193.818 140.206ZM194.685 138.118C193.754 138.118 193.087 137.685 193.087 136.854C193.087 136.001 193.79 135.582 194.855 135.433C195.516 135.341 196.595 135.185 196.957 134.943V136.101C196.957 137.244 196.013 138.118 194.685 138.118ZM203.786 144.091C206.038 144.091 207.231 142.94 207.849 141.179L212.089 129.105L208.886 129.091L206.606 137.102H206.492L204.234 129.091H201.052L204.965 140.312L204.788 140.774C204.39 141.797 203.63 141.847 202.565 141.52L201.883 143.778C202.316 143.963 203.019 144.091 203.786 144.091ZM39.0099 153.091H36.9574V150.477H33.9318V153.091H32.4403V155.364H33.9318V161.045C33.9176 163.183 35.3736 164.241 37.5682 164.149C38.3494 164.121 38.9034 163.964 39.2088 163.865L38.733 161.614C38.5838 161.642 38.2642 161.713 37.9801 161.713C37.3764 161.713 36.9574 161.486 36.9574 160.648V155.364H39.0099V153.091ZM45.7926 164.213C49.1023 164.213 51.1619 161.947 51.1619 158.588C51.1619 155.207 49.1023 152.949 45.7926 152.949C42.483 152.949 40.4233 155.207 40.4233 158.588C40.4233 161.947 42.483 164.213 45.7926 164.213ZM45.8068 161.869C44.2798 161.869 43.4986 160.47 43.4986 158.567C43.4986 156.663 44.2798 155.257 45.8068 155.257C47.3054 155.257 48.0866 156.663 48.0866 158.567C48.0866 160.47 47.3054 161.869 45.8068 161.869ZM57.815 164H60.7979V162.253H60.9329C61.3519 163.162 62.2681 164.178 64.0295 164.178C66.5153 164.178 68.4542 162.21 68.4542 158.56C68.4542 154.81 66.43 152.949 64.0366 152.949C62.2113 152.949 61.3377 154.036 60.9329 154.923H60.8406V149.455H57.815V164ZM60.7766 158.545C60.7766 156.599 61.6005 155.357 63.0707 155.357C64.5692 155.357 65.3647 156.656 65.3647 158.545C65.3647 160.449 64.555 161.77 63.0707 161.77C61.6147 161.77 60.7766 160.491 60.7766 158.545ZM77.4688 159.355C77.4759 160.818 76.4744 161.585 75.3878 161.585C74.2443 161.585 73.5057 160.783 73.4986 159.497V153.091H70.473V160.037C70.4801 162.587 71.9716 164.142 74.1662 164.142C75.8068 164.142 76.9858 163.297 77.4759 162.018H77.5895V164H80.4943V153.091H77.4688V159.355ZM82.9144 164H85.94V153.091H82.9144V164ZM84.4343 151.685C85.3363 151.685 86.0749 150.996 86.0749 150.151C86.0749 149.312 85.3363 148.624 84.4343 148.624C83.5394 148.624 82.8008 149.312 82.8008 150.151C82.8008 150.996 83.5394 151.685 84.4343 151.685ZM91.3892 149.455H88.3636V164H91.3892V149.455ZM97.8327 164.178C99.5941 164.178 100.51 163.162 100.929 162.253H101.057V164H104.04V149.455H101.022V154.923H100.929C100.525 154.036 99.6509 152.949 97.8256 152.949C95.4322 152.949 93.408 154.81 93.408 158.56C93.408 162.21 95.3469 164.178 97.8327 164.178ZM98.7915 161.77C97.3072 161.77 96.4975 160.449 96.4975 158.545C96.4975 156.656 97.293 155.357 98.7915 155.357C100.262 155.357 101.086 156.599 101.086 158.545C101.086 160.491 100.248 161.77 98.7915 161.77ZM116.959 153.091H114.907V150.477H111.881V153.091H110.39V155.364H111.881V161.045C111.867 163.183 113.323 164.241 115.517 164.149C116.299 164.121 116.853 163.964 117.158 163.865L116.682 161.614C116.533 161.642 116.213 161.713 115.929 161.713C115.326 161.713 114.907 161.486 114.907 160.648V155.364H116.959V153.091ZM122.19 157.693C122.197 156.287 123.056 155.463 124.292 155.463C125.521 155.463 126.245 156.251 126.238 157.594V164H129.264V157.054C129.271 154.497 127.765 152.949 125.493 152.949C123.838 152.949 122.73 153.73 122.233 155.016H122.105V149.455H119.164V164H122.19V157.693ZM136.616 164.213C139.315 164.213 141.134 162.899 141.56 160.875L138.761 160.69C138.456 161.521 137.675 161.955 136.666 161.955C135.153 161.955 134.195 160.953 134.195 159.327V159.32H141.624V158.489C141.624 154.781 139.379 152.949 136.496 152.949C133.286 152.949 131.205 155.229 131.205 158.595C131.205 162.054 133.257 164.213 136.616 164.213ZM134.195 157.445C134.259 156.202 135.203 155.207 136.545 155.207C137.859 155.207 138.768 156.145 138.776 157.445H134.195ZM150.379 164H153.575L155.45 157.139H155.585L157.46 164H160.663L163.625 153.091H160.571L158.909 160.378H158.816L157.027 153.091H154.022L152.261 160.42H152.162L150.471 153.091H147.41L150.379 164ZM169.937 164.213C172.636 164.213 174.454 162.899 174.88 160.875L172.082 160.69C171.776 161.521 170.995 161.955 169.987 161.955C168.474 161.955 167.515 160.953 167.515 159.327V159.32H174.944V158.489C174.944 154.781 172.7 152.949 169.816 152.949C166.606 152.949 164.525 155.229 164.525 158.595C164.525 162.054 166.577 164.213 169.937 164.213ZM167.515 157.445C167.579 156.202 168.523 155.207 169.866 155.207C171.18 155.207 172.089 156.145 172.096 157.445H167.515ZM176.975 164H179.958V162.253H180.093C180.512 163.162 181.428 164.178 183.19 164.178C185.675 164.178 187.614 162.21 187.614 158.56C187.614 154.81 185.59 152.949 183.197 152.949C181.371 152.949 180.498 154.036 180.093 154.923H180.001V149.455H176.975V164ZM179.937 158.545C179.937 156.599 180.761 155.357 182.231 155.357C183.729 155.357 184.525 156.656 184.525 158.545C184.525 160.449 183.715 161.77 182.231 161.77C180.775 161.77 179.937 160.491 179.937 158.545Z" fill="#F4F4F5"/>
<rect x="32" y="187" width="65" height="24" rx="6" fill="#6366F1"/>
<rect x="106" y="187" width="65" height="24" rx="6" fill="#52525B"/>
<rect x="42" y="197" width="46" height="4" rx="2" fill="white"/>
<rect x="117" y="197" width="45" height="4" rx="2" fill="#A1A1AA"/>
<rect x="32" y="240" width="33" height="4" rx="2" fill="#71717A"/>
<rect x="84" y="240" width="87" height="4" rx="2" fill="#71717A"/>
</svg>
