<svg width="480" height="280" viewBox="0 0 480 280" fill="none" xmlns="http://www.w3.org/2000/svg">
<rect width="480" height="280" fill="#323237"/>
<rect x="286" y="42" width="23" height="4" rx="2" fill="#71717A"/>
<rect x="249" y="42" width="23" height="4" rx="2" fill="#71717A"/>
<rect x="212" y="42" width="23" height="4" rx="2" fill="#71717A"/>
<rect x="175" y="42" width="23" height="4" rx="2" fill="#6366F1"/>
<rect x="32" y="39" width="39" height="10" rx="5" fill="#71717A"/>
<rect x="385" y="32" width="67" height="25" rx="6" fill="#52525B"/>
<rect x="396" y="43" width="46" height="3" rx="1.5" fill="#A1A1AA"/>
<rect x="185" y="80" width="111" height="4" rx="2" fill="#71717A"/>
<rect x="171" y="211" width="65" height="24" rx="6" fill="#6366F1"/>
<rect x="245" y="211" width="65" height="24" rx="6" fill="#52525B"/>
<rect x="181" y="221" width="46" height="4" rx="2" fill="white"/>
<rect x="256" y="221" width="45" height="4" rx="2" fill="#A1A1AA"/>
<path d="M148.735 134H151.81V128.844H154.055L156.81 134H160.205L157.116 128.347C158.77 127.636 159.687 126.195 159.687 124.206C159.687 121.315 157.776 119.455 154.474 119.455H148.735V134ZM151.81 126.372V121.969H153.884C155.66 121.969 156.519 122.757 156.519 124.206C156.519 125.648 155.66 126.372 153.898 126.372H151.81ZM166.599 134.213C169.298 134.213 171.116 132.899 171.542 130.875L168.744 130.69C168.438 131.521 167.657 131.955 166.649 131.955C165.136 131.955 164.177 130.953 164.177 129.327V129.32H171.606V128.489C171.606 124.781 169.362 122.949 166.478 122.949C163.268 122.949 161.187 125.229 161.187 128.595C161.187 132.054 163.24 134.213 166.599 134.213ZM164.177 127.445C164.241 126.202 165.186 125.207 166.528 125.207C167.842 125.207 168.751 126.145 168.758 127.445H164.177ZM183.438 123.091H180.235L177.977 130.896H177.863L175.597 123.091H172.401L176.215 134H179.624L183.438 123.091ZM189.545 134.213C192.854 134.213 194.914 131.947 194.914 128.588C194.914 125.207 192.854 122.949 189.545 122.949C186.235 122.949 184.175 125.207 184.175 128.588C184.175 131.947 186.235 134.213 189.545 134.213ZM189.559 131.869C188.032 131.869 187.251 130.47 187.251 128.567C187.251 126.663 188.032 125.257 189.559 125.257C191.057 125.257 191.839 126.663 191.839 128.567C191.839 130.47 191.057 131.869 189.559 131.869ZM199.907 119.455H196.881V134H199.907V119.455ZM209.326 129.355C209.333 130.818 208.332 131.585 207.245 131.585C206.102 131.585 205.363 130.783 205.356 129.497V123.091H202.33V130.037C202.338 132.587 203.829 134.142 206.024 134.142C207.664 134.142 208.843 133.297 209.333 132.018H209.447V134H212.352V123.091H209.326V129.355ZM220.574 123.091H218.522V120.477H215.496V123.091H214.005V125.364H215.496V131.045C215.482 133.183 216.938 134.241 219.133 134.149C219.914 134.121 220.468 133.964 220.773 133.865L220.297 131.614C220.148 131.642 219.829 131.713 219.545 131.713C218.941 131.713 218.522 131.486 218.522 130.648V125.364H220.574V123.091ZM222.545 134H225.571V123.091H222.545V134ZM224.065 121.685C224.967 121.685 225.706 120.996 225.706 120.151C225.706 119.312 224.967 118.624 224.065 118.624C223.17 118.624 222.432 119.312 222.432 120.151C222.432 120.996 223.17 121.685 224.065 121.685ZM232.923 134.213C236.233 134.213 238.293 131.947 238.293 128.588C238.293 125.207 236.233 122.949 232.923 122.949C229.614 122.949 227.554 125.207 227.554 128.588C227.554 131.947 229.614 134.213 232.923 134.213ZM232.938 131.869C231.411 131.869 230.629 130.47 230.629 128.567C230.629 126.663 231.411 125.257 232.938 125.257C234.436 125.257 235.218 126.663 235.218 128.567C235.218 130.47 234.436 131.869 232.938 131.869ZM243.286 127.693C243.293 126.287 244.131 125.463 245.352 125.463C246.567 125.463 247.298 126.259 247.291 127.594V134H250.317V127.054C250.317 124.511 248.825 122.949 246.553 122.949C244.933 122.949 243.762 123.744 243.271 125.016H243.144V123.091H240.26V134H243.286V127.693ZM255.812 134.206C257.425 134.206 258.469 133.503 259.001 132.487H259.086V134H261.956V126.642C261.956 124.043 259.754 122.949 257.325 122.949C254.711 122.949 252.993 124.199 252.574 126.188L255.372 126.415C255.578 125.69 256.224 125.158 257.311 125.158C258.341 125.158 258.93 125.676 258.93 126.571V126.614C258.93 127.317 258.184 127.409 256.288 127.594C254.129 127.793 252.19 128.517 252.19 130.953C252.19 133.112 253.731 134.206 255.812 134.206ZM256.679 132.118C255.748 132.118 255.081 131.685 255.081 130.854C255.081 130.001 255.784 129.582 256.849 129.433C257.51 129.341 258.589 129.185 258.952 128.943V130.101C258.952 131.244 258.007 132.118 256.679 132.118ZM264.303 134H267.329V127.828C267.329 126.486 268.309 125.562 269.644 125.562C270.063 125.562 270.638 125.634 270.922 125.726V123.041C270.653 122.977 270.276 122.935 269.971 122.935C268.749 122.935 267.748 123.645 267.35 124.994H267.236V123.091H264.303V134ZM274.687 138.091C276.938 138.091 278.131 136.94 278.749 135.179L282.989 123.105L279.786 123.091L277.506 131.102H277.393L275.134 123.091H271.952L275.866 134.312L275.688 134.774C275.29 135.797 274.53 135.847 273.465 135.52L272.783 137.778C273.216 137.963 273.92 138.091 274.687 138.091ZM291.318 134H294.514L296.389 127.139H296.524L298.399 134H301.602L304.564 123.091H301.51L299.848 130.378H299.756L297.966 123.091H294.962L293.2 130.42H293.101L291.411 123.091H288.35L291.318 134ZM309.289 134.206C310.901 134.206 311.945 133.503 312.478 132.487H312.563V134H315.432V126.642C315.432 124.043 313.231 122.949 310.802 122.949C308.188 122.949 306.469 124.199 306.05 126.188L308.849 126.415C309.055 125.69 309.701 125.158 310.787 125.158C311.817 125.158 312.407 125.676 312.407 126.571V126.614C312.407 127.317 311.661 127.409 309.765 127.594C307.606 127.793 305.667 128.517 305.667 130.953C305.667 133.112 307.208 134.206 309.289 134.206ZM310.155 132.118C309.225 132.118 308.557 131.685 308.557 130.854C308.557 130.001 309.26 129.582 310.326 129.433C310.986 129.341 312.066 129.185 312.428 128.943V130.101C312.428 131.244 311.483 132.118 310.155 132.118ZM319.257 138.091C321.508 138.091 322.702 136.94 323.319 135.179L327.559 123.105L324.356 123.091L322.077 131.102H321.963L319.704 123.091H316.523L320.436 134.312L320.258 134.774C319.861 135.797 319.101 135.847 318.035 135.52L317.354 137.778C317.787 137.963 318.49 138.091 319.257 138.091ZM168.797 147.091H166.744V144.477H163.719V147.091H162.227V149.364H163.719V155.045C163.705 157.183 165.161 158.241 167.355 158.149C168.137 158.121 168.691 157.964 168.996 157.865L168.52 155.614C168.371 155.642 168.051 155.713 167.767 155.713C167.164 155.713 166.744 155.486 166.744 154.648V149.364H168.797V147.091ZM175.58 158.213C178.889 158.213 180.949 155.947 180.949 152.588C180.949 149.207 178.889 146.949 175.58 146.949C172.27 146.949 170.21 149.207 170.21 152.588C170.21 155.947 172.27 158.213 175.58 158.213ZM175.594 155.869C174.067 155.869 173.286 154.47 173.286 152.567C173.286 150.663 174.067 149.257 175.594 149.257C177.093 149.257 177.874 150.663 177.874 152.567C177.874 154.47 177.093 155.869 175.594 155.869ZM187.602 158H190.585V156.253H190.72C191.139 157.162 192.055 158.178 193.817 158.178C196.302 158.178 198.241 156.21 198.241 152.56C198.241 148.81 196.217 146.949 193.824 146.949C191.998 146.949 191.125 148.036 190.72 148.923H190.628V143.455H187.602V158ZM190.564 152.545C190.564 150.599 191.388 149.357 192.858 149.357C194.356 149.357 195.152 150.656 195.152 152.545C195.152 154.449 194.342 155.77 192.858 155.77C191.402 155.77 190.564 154.491 190.564 152.545ZM207.256 153.355C207.263 154.818 206.262 155.585 205.175 155.585C204.031 155.585 203.293 154.783 203.286 153.497V147.091H200.26V154.037C200.267 156.587 201.759 158.142 203.953 158.142C205.594 158.142 206.773 157.297 207.263 156.018H207.377V158H210.281V147.091H207.256V153.355ZM212.702 158H215.727V147.091H212.702V158ZM214.221 145.685C215.123 145.685 215.862 144.996 215.862 144.151C215.862 143.312 215.123 142.624 214.221 142.624C213.327 142.624 212.588 143.312 212.588 144.151C212.588 144.996 213.327 145.685 214.221 145.685ZM221.176 143.455H218.151V158H221.176V143.455ZM227.62 158.178C229.381 158.178 230.297 157.162 230.716 156.253H230.844V158H233.827V143.455H230.809V148.923H230.716C230.312 148.036 229.438 146.949 227.613 146.949C225.219 146.949 223.195 148.81 223.195 152.56C223.195 156.21 225.134 158.178 227.62 158.178ZM228.579 155.77C227.094 155.77 226.285 154.449 226.285 152.545C226.285 150.656 227.08 149.357 228.579 149.357C230.049 149.357 230.873 150.599 230.873 152.545C230.873 154.491 230.035 155.77 228.579 155.77ZM246.746 147.091H244.694V144.477H241.668V147.091H240.177V149.364H241.668V155.045C241.654 157.183 243.11 158.241 245.305 158.149C246.086 158.121 246.64 157.964 246.945 157.865L246.469 155.614C246.32 155.642 246.001 155.713 245.716 155.713C245.113 155.713 244.694 155.486 244.694 154.648V149.364H246.746V147.091ZM251.977 151.693C251.984 150.287 252.844 149.463 254.079 149.463C255.308 149.463 256.032 150.251 256.025 151.594V158H259.051V151.054C259.058 148.497 257.552 146.949 255.28 146.949C253.625 146.949 252.517 147.73 252.02 149.016H251.892V143.455H248.952V158H251.977V151.693ZM266.404 158.213C269.102 158.213 270.921 156.899 271.347 154.875L268.548 154.69C268.243 155.521 267.462 155.955 266.453 155.955C264.941 155.955 263.982 154.953 263.982 153.327V153.32H271.411V152.489C271.411 148.781 269.166 146.949 266.283 146.949C263.073 146.949 260.992 149.229 260.992 152.595C260.992 156.054 263.044 158.213 266.404 158.213ZM263.982 151.445C264.046 150.202 264.99 149.207 266.333 149.207C267.646 149.207 268.556 150.145 268.563 151.445H263.982ZM280.166 158H283.362L285.237 151.139H285.372L287.247 158H290.45L293.412 147.091H290.358L288.696 154.378H288.604L286.814 147.091H283.809L282.048 154.42H281.949L280.258 147.091H277.197L280.166 158ZM299.724 158.213C302.423 158.213 304.241 156.899 304.667 154.875L301.869 154.69C301.563 155.521 300.782 155.955 299.774 155.955C298.261 155.955 297.302 154.953 297.302 153.327V153.32H304.731V152.489C304.731 148.781 302.487 146.949 299.603 146.949C296.393 146.949 294.312 149.229 294.312 152.595C294.312 156.054 296.365 158.213 299.724 158.213ZM297.302 151.445C297.366 150.202 298.311 149.207 299.653 149.207C300.967 149.207 301.876 150.145 301.883 151.445H297.302ZM306.762 158H309.745V156.253H309.88C310.299 157.162 311.215 158.178 312.977 158.178C315.463 158.178 317.401 156.21 317.401 152.56C317.401 148.81 315.377 146.949 312.984 146.949C311.159 146.949 310.285 148.036 309.88 148.923H309.788V143.455H306.762V158ZM309.724 152.545C309.724 150.599 310.548 149.357 312.018 149.357C313.517 149.357 314.312 150.656 314.312 152.545C314.312 154.449 313.502 155.77 312.018 155.77C310.562 155.77 309.724 154.491 309.724 152.545Z" fill="#F4F4F5"/>
<rect x="213" y="97" width="55" height="4" rx="2" fill="#6366F1"/>
<rect x="170" y="174" width="140" height="4" rx="2" fill="#71717A"/>
<rect x="198" y="186" width="85" height="4" rx="2" fill="#71717A"/>
</svg>
