<svg width="480" height="280" viewBox="0 0 480 280" fill="none" xmlns="http://www.w3.org/2000/svg">
<rect width="480" height="280" fill="#323237"/>
<rect x="31" y="227" width="94" height="24" rx="6" fill="#52525B"/>
<rect x="286" y="26" width="23" height="4" rx="2" fill="#71717A"/>
<rect x="249" y="26" width="23" height="4" rx="2" fill="#71717A"/>
<rect x="212" y="26" width="23" height="4" rx="2" fill="#71717A"/>
<rect x="175" y="26" width="23" height="4" rx="2" fill="#6366F1"/>
<rect x="32" y="23" width="39" height="10" rx="5" fill="#71717A"/>
<rect x="43" y="237" width="18" height="4" rx="2" fill="#A1A1AA"/>
<rect x="69" y="237" width="18" height="4" rx="2" fill="#A1A1AA"/>
<rect x="95" y="237" width="18" height="4" rx="2" fill="#A1A1AA"/>
<rect x="382" y="26" width="18" height="4" rx="2" fill="#71717A"/>
<rect x="408" y="26" width="18" height="4" rx="2" fill="#71717A"/>
<rect x="434" y="26" width="18" height="4" rx="2" fill="#71717A"/>
<rect x="296" y="73" width="156" height="122" rx="8" fill="#3F3F46"/>
<rect x="218" y="99" width="156" height="122" rx="8" fill="#52525B"/>
<path d="M33.2642 131H36.3395V124.991H42.2557V122.456H36.3395V118.99H42.8949V116.455H33.2642V131ZM44.9066 131H47.9322V120.091H44.9066V131ZM46.4265 118.685C47.3285 118.685 48.0671 117.996 48.0671 117.151C48.0671 116.312 47.3285 115.624 46.4265 115.624C45.5316 115.624 44.793 116.312 44.793 117.151C44.793 117.996 45.5316 118.685 46.4265 118.685ZM53.3814 124.693C53.3885 123.287 54.2266 122.463 55.4482 122.463C56.6626 122.463 57.3942 123.259 57.3871 124.594V131H60.4126V124.054C60.4126 121.511 58.9212 119.949 56.6484 119.949C55.0291 119.949 53.8572 120.744 53.3672 122.016H53.2393V120.091H50.3558V131H53.3814V124.693ZM66.8171 131.178C68.5785 131.178 69.4947 130.162 69.9137 129.253H70.0415V131H73.0245V116.455H70.006V121.923H69.9137C69.5089 121.036 68.6353 119.949 66.81 119.949C64.4165 119.949 62.3924 121.81 62.3924 125.56C62.3924 129.21 64.3313 131.178 66.8171 131.178ZM67.7759 128.77C66.2915 128.77 65.4819 127.449 65.4819 125.545C65.4819 123.656 66.2773 122.357 67.7759 122.357C69.2461 122.357 70.07 123.599 70.07 125.545C70.07 127.491 69.2319 128.77 67.7759 128.77ZM82.0089 135.091C84.2603 135.091 85.4535 133.94 86.0714 132.179L90.3114 120.105L87.1083 120.091L84.8285 128.102H84.7148L82.4563 120.091H79.2745L83.1879 131.312L83.0103 131.774C82.6126 132.797 81.8526 132.847 80.7873 132.52L80.1055 134.778C80.5387 134.963 81.2418 135.091 82.0089 135.091ZM96.4176 131.213C99.7273 131.213 101.787 128.947 101.787 125.588C101.787 122.207 99.7273 119.949 96.4176 119.949C93.108 119.949 91.0483 122.207 91.0483 125.588C91.0483 128.947 93.108 131.213 96.4176 131.213ZM96.4318 128.869C94.9048 128.869 94.1236 127.47 94.1236 125.567C94.1236 123.663 94.9048 122.257 96.4318 122.257C97.9304 122.257 98.7116 123.663 98.7116 125.567C98.7116 127.47 97.9304 128.869 96.4318 128.869ZM110.75 126.355C110.757 127.818 109.756 128.585 108.669 128.585C107.526 128.585 106.787 127.783 106.78 126.497V120.091H103.754V127.037C103.761 129.587 105.253 131.142 107.447 131.142C109.088 131.142 110.267 130.297 110.757 129.018H110.871V131H113.776V120.091H110.75V126.355ZM116.196 131H119.221V124.828C119.221 123.486 120.201 122.562 121.537 122.562C121.956 122.562 122.531 122.634 122.815 122.726V120.041C122.545 119.977 122.169 119.935 121.863 119.935C120.642 119.935 119.64 120.645 119.243 121.994H119.129V120.091H116.196V131ZM42.2841 147.202C42.0142 145.192 40.3949 143.949 37.6392 143.949C34.848 143.949 33.0085 145.241 33.0156 147.344C33.0085 148.977 34.0384 150.036 36.169 150.462L38.0582 150.838C39.0099 151.03 39.4432 151.378 39.4574 151.925C39.4432 152.571 38.7401 153.033 37.6818 153.033C36.6023 153.033 35.8849 152.571 35.7003 151.683L32.7244 151.839C33.0085 153.928 34.7841 155.213 37.6747 155.213C40.5014 155.213 42.5256 153.771 42.5327 151.619C42.5256 150.043 41.4957 149.098 39.3793 148.665L37.4048 148.267C36.3892 148.047 36.0128 147.699 36.0199 147.173C36.0128 146.52 36.7514 146.094 37.6889 146.094C38.7401 146.094 39.3651 146.669 39.5142 147.372L42.2841 147.202ZM50.2404 144.091H48.1879V141.477H45.1623V144.091H43.6708V146.364H45.1623V152.045C45.1481 154.183 46.604 155.241 48.7987 155.149C49.5799 155.121 50.1339 154.964 50.4393 154.865L49.9634 152.614C49.8143 152.642 49.4947 152.713 49.2106 152.713C48.6069 152.713 48.1879 152.486 48.1879 151.648V146.364H50.2404V144.091ZM54.0792 159.091C56.3306 159.091 57.5238 157.94 58.1417 156.179L62.3817 144.105L59.1786 144.091L56.8988 152.102H56.7852L54.5266 144.091H51.3448L55.2582 155.312L55.0806 155.774C54.6829 156.797 53.9229 156.847 52.8576 156.52L52.1758 158.778C52.609 158.963 53.3121 159.091 54.0792 159.091ZM66.9556 140.455H63.93V155H66.9556V140.455ZM74.3509 155.213C77.0497 155.213 78.8679 153.899 79.294 151.875L76.4957 151.69C76.1903 152.521 75.4091 152.955 74.4006 152.955C72.8878 152.955 71.929 151.953 71.929 150.327V150.32H79.358V149.489C79.358 145.781 77.1136 143.949 74.2301 143.949C71.0199 143.949 68.9389 146.229 68.9389 149.595C68.9389 153.054 70.9915 155.213 74.3509 155.213ZM71.929 148.445C71.9929 147.202 72.9375 146.207 74.2798 146.207C75.5938 146.207 76.5028 147.145 76.5099 148.445H71.929ZM90.8903 155.213C94.1999 155.213 96.2596 152.947 96.2596 149.588C96.2596 146.207 94.1999 143.949 90.8903 143.949C87.5806 143.949 85.521 146.207 85.521 149.588C85.521 152.947 87.5806 155.213 90.8903 155.213ZM90.9045 152.869C89.3775 152.869 88.5962 151.47 88.5962 149.567C88.5962 147.663 89.3775 146.257 90.9045 146.257C92.4031 146.257 93.1843 147.663 93.1843 149.567C93.1843 151.47 92.4031 152.869 90.9045 152.869ZM101.252 148.693C101.26 147.287 102.098 146.463 103.319 146.463C104.534 146.463 105.265 147.259 105.258 148.594V155H108.284V148.054C108.284 145.511 106.792 143.949 104.52 143.949C102.9 143.949 101.728 144.744 101.238 146.016H101.11V144.091H98.2269V155H101.252V148.693ZM113.694 140.455H110.668V155H113.694V140.455ZM116.118 155H119.143V144.091H116.118V155ZM117.637 142.685C118.539 142.685 119.278 141.996 119.278 141.151C119.278 140.312 118.539 139.624 117.637 139.624C116.743 139.624 116.004 140.312 116.004 141.151C116.004 141.996 116.743 142.685 117.637 142.685ZM124.592 148.693C124.599 147.287 125.438 146.463 126.659 146.463C127.874 146.463 128.605 147.259 128.598 148.594V155H131.624V148.054C131.624 145.511 130.132 143.949 127.859 143.949C126.24 143.949 125.068 144.744 124.578 146.016H124.45V144.091H121.567V155H124.592V148.693ZM138.98 155.213C141.679 155.213 143.497 153.899 143.923 151.875L141.125 151.69C140.819 152.521 140.038 152.955 139.029 152.955C137.517 152.955 136.558 151.953 136.558 150.327V150.32H143.987V149.489C143.987 145.781 141.743 143.949 138.859 143.949C135.649 143.949 133.568 146.229 133.568 149.595C133.568 153.054 135.62 155.213 138.98 155.213ZM136.558 148.445C136.622 147.202 137.566 146.207 138.909 146.207C140.223 146.207 141.132 147.145 141.139 148.445H136.558Z" fill="#F4F4F5"/>
<rect x="313" y="247" width="33" height="4" rx="2" fill="#71717A"/>
<rect x="365" y="247" width="87" height="4" rx="2" fill="#71717A"/>
<rect x="32" y="174" width="140" height="4" rx="2" fill="#71717A"/>
<rect x="32" y="186" width="85" height="4" rx="2" fill="#71717A"/>
<line x1="8.74228e-08" y1="56" x2="480" y2="56" stroke="#52525B" stroke-width="2"/>
</svg>
