<svg width="480" height="280" viewBox="0 0 480 280" fill="none" xmlns="http://www.w3.org/2000/svg">
<rect width="480" height="280" fill="#323237"/>
<rect x="286" y="42" width="23" height="4" rx="2" fill="#71717A"/>
<rect x="366" y="42" width="23" height="4" rx="2" fill="#71717A"/>
<rect x="249" y="42" width="23" height="4" rx="2" fill="#71717A"/>
<rect x="212" y="42" width="23" height="4" rx="2" fill="#71717A"/>
<rect x="175" y="42" width="23" height="4" rx="2" fill="#6366F1"/>
<rect x="32" y="39" width="39" height="10" rx="5" fill="#71717A"/>
<rect x="398" y="32" width="54" height="25" rx="6" fill="#6366F1"/>
<rect x="407" y="43" width="37" height="3" rx="1.5" fill="white"/>
<rect x="118" y="74" width="245" height="169" rx="8" fill="#3F3F46"/>
<rect x="166" y="104" width="60" height="4" rx="2" fill="#71717A"/>
<rect x="283" y="104" width="60" height="4" rx="2" fill="#71717A"/>
<rect x="166" y="176" width="60" height="4" rx="2" fill="#71717A"/>
<rect x="283" y="176" width="60" height="4" rx="2" fill="#71717A"/>
<rect x="166" y="115" width="48" height="4" rx="2" fill="#71717A"/>
<rect x="283" y="115" width="48" height="4" rx="2" fill="#71717A"/>
<rect x="166" y="187" width="48" height="4" rx="2" fill="#71717A"/>
<rect x="283" y="187" width="48" height="4" rx="2" fill="#71717A"/>
<rect x="133" y="91" width="24" height="24" rx="6" fill="#6366F1"/>
<rect x="250" y="91" width="24" height="24" rx="6" fill="#6366F1"/>
<rect x="133" y="163" width="24" height="24" rx="6" fill="#6366F1"/>
<rect x="250" y="163" width="24" height="24" rx="6" fill="#6366F1"/>
<rect x="166" y="93" width="41" height="4" rx="2" fill="#F4F4F5"/>
<rect x="283" y="93" width="41" height="4" rx="2" fill="#F4F4F5"/>
<rect x="166" y="165" width="41" height="4" rx="2" fill="#F4F4F5"/>
<rect x="283" y="165" width="41" height="4" rx="2" fill="#F4F4F5"/>
<circle cx="145" cy="103" r="3" stroke="white" stroke-width="2"/>
<circle cx="262" cy="103" r="3" stroke="white" stroke-width="2"/>
<circle cx="145" cy="175" r="3" stroke="white" stroke-width="2"/>
<circle cx="262" cy="175" r="3" stroke="white" stroke-width="2"/>
<rect x="133" y="215" width="60" height="4" rx="2" fill="#71717A"/>
<rect x="133" y="225" width="155" height="4" rx="2" fill="#71717A"/>
</svg>
