<svg width="480" height="280" viewBox="0 0 480 280" fill="none" xmlns="http://www.w3.org/2000/svg">
<rect width="480" height="280" fill="#323237"/>
<rect x="286" y="42" width="23" height="4" rx="2" fill="#71717A"/>
<rect x="366" y="42" width="23" height="4" rx="2" fill="#71717A"/>
<rect x="249" y="42" width="23" height="4" rx="2" fill="#71717A"/>
<rect x="212" y="42" width="23" height="4" rx="2" fill="#71717A"/>
<rect x="175" y="42" width="23" height="4" rx="2" fill="#6366F1"/>
<rect x="32" y="39" width="39" height="10" rx="5" fill="#71717A"/>
<rect x="398" y="32" width="54" height="25" rx="6" fill="#6366F1"/>
<rect x="407" y="43" width="37" height="3" rx="1.5" fill="white"/>
<rect x="32" y="74" width="420" height="142" rx="8" fill="#3F3F46"/>
<rect x="293" y="95" width="122" height="100" rx="8" fill="#52525B"/>
<rect x="99" y="108" width="60" height="4" rx="2" fill="#71717A"/>
<rect x="216" y="108" width="60" height="4" rx="2" fill="#71717A"/>
<rect x="99" y="180" width="60" height="4" rx="2" fill="#71717A"/>
<rect x="216" y="180" width="60" height="4" rx="2" fill="#71717A"/>
<rect x="99" y="119" width="48" height="4" rx="2" fill="#71717A"/>
<rect x="216" y="119" width="48" height="4" rx="2" fill="#71717A"/>
<rect x="99" y="191" width="48" height="4" rx="2" fill="#71717A"/>
<rect x="216" y="191" width="48" height="4" rx="2" fill="#71717A"/>
<rect x="66" y="95" width="24" height="24" rx="6" fill="#6366F1"/>
<rect x="183" y="95" width="24" height="24" rx="6" fill="#6366F1"/>
<rect x="66" y="167" width="24" height="24" rx="6" fill="#6366F1"/>
<rect x="183" y="167" width="24" height="24" rx="6" fill="#6366F1"/>
<rect x="99" y="97" width="41" height="4" rx="2" fill="#F4F4F5"/>
<rect x="216" y="97" width="41" height="4" rx="2" fill="#F4F4F5"/>
<rect x="99" y="169" width="41" height="4" rx="2" fill="#F4F4F5"/>
<rect x="216" y="169" width="41" height="4" rx="2" fill="#F4F4F5"/>
<circle cx="78" cy="107" r="3" stroke="white" stroke-width="2"/>
<circle cx="195" cy="107" r="3" stroke="white" stroke-width="2"/>
<circle cx="78" cy="179" r="3" stroke="white" stroke-width="2"/>
<circle cx="195" cy="179" r="3" stroke="white" stroke-width="2"/>
</svg>
