<svg id="Layer_1" data-name="Layer 1" xmlns="http://www.w3.org/2000/svg" viewBox="0 0 422.68 293.63"><defs><style>.cls-1{fill:#f8be0a;}.cls-2{fill:#c6c6c6;}</style></defs><path class="cls-1" d="M388.73,53.19s-45.47,5.46-45.47,77.38v99.57s-5.46,97.54-138.41,97h-9.72c-132.95.58-138.41-97-138.41-97V130.57c0-71.92-45.45-77.38-45.45-77.38,78.82-.31,80,70.19,80,70.19s.28,44.61,2,110.2S200,296.89,200,296.89s105,2.3,106.73-63.31,2-110.2,2-110.2S309.89,52.88,388.73,53.19Z" transform="translate(11.34 -53.19)"/><path class="cls-1" d="M308.7,159.9c-76-.26-98.94,33.37-105.46,58.49l-1.88,9.93-1.05,5.54-.3,1.56-.3-1.56v0l-1.09-5.74V228l0-.16-1.79-9.28,0-.19c-6.54-25.12-29.45-58.75-105.48-58.49-121.29.44-101.43,0-101.43,0s8.21-12.52,65.61-13.38c52.64-.79,140.72-17,144.42,71.87.07,1.91.11,3.86.11,5.86,0-2,.05-3.95.12-5.86,3.7-88.87,91.75-72.66,144.41-71.87,57.4.86,65.59,13.38,65.59,13.38S430,160.34,308.7,159.9Z" transform="translate(11.34 -53.19)"/><path d="M255.44,220.22c-9.73,24-31.24,40.63-56.22,40.63-23.72,0-44.31-15-54.66-37.09a70.32,70.32,0,0,0,110.88-3.54Z" transform="translate(11.34 -53.19)"/><circle cx="266.78" cy="167.03" r="7.09"/><circle cx="155.9" cy="167.03" r="7.09"/><ellipse class="cls-2" cx="211.34" cy="286.72" rx="105.31" ry="6.91"/></svg>