<svg id="Layer_1" data-name="Layer 1" xmlns="http://www.w3.org/2000/svg" viewBox="0 0 392.54 381.32"><defs><style>.cls-1{fill:#f8be0a;}.cls-2{fill:#c6c6c6;}.cls-3{font-size:97.72px;font-family:Sora-Medium, Sora;font-weight:500;}.cls-4{letter-spacing:0.01em;}.cls-5{letter-spacing:0em;}.cls-6{letter-spacing:0em;}</style></defs><path class="cls-1" d="M358.75,7.3S320.5,11.9,320.5,72.39v83.75s-4.6,82.05-116.42,81.56H195.9c-111.83.49-116.42-81.56-116.42-81.56V72.39C79.48,11.9,41.25,7.3,41.25,7.3c66.3-.25,67.28,59,67.28,59s.23,37.53,1.68,92.7S200,212.29,200,212.29s88.33,1.94,89.78-53.25,1.68-92.7,1.68-92.7S292.43,7.05,358.75,7.3Z" transform="translate(-3.73 -7.3)"/><path class="cls-1" d="M291.43,97.06c-64-.22-83.22,28.07-88.7,49.2l-1.59,8.35-.88,4.66-.25,1.31-.26-1.31v0l-.92-4.83v-.06l0-.14-1.5-7.8,0-.16c-5.5-21.13-24.77-49.42-88.72-49.2-102,.37-85.32,0-85.32,0s6.91-10.53,55.19-11.25c44.27-.67,118.36-14.3,121.47,60.45.06,1.6.1,3.25.1,4.93,0-1.68,0-3.33.1-4.93,3.11-74.75,77.17-61.12,121.47-60.45,48.28.72,55.17,11.25,55.17,11.25S393.45,97.43,291.43,97.06Z" transform="translate(-3.73 -7.3)"/><path d="M246.63,147.8C238.45,168,220.35,182,199.34,182c-20,0-37.27-12.64-46-31.21a59.14,59.14,0,0,0,93.26-3Z" transform="translate(-3.73 -7.3)"/><circle cx="242.9" cy="140.5" r="5.97"/><circle cx="149.64" cy="140.5" r="5.97"/><ellipse class="cls-2" cx="196.27" cy="241.17" rx="88.58" ry="5.81"/><text class="cls-3" transform="translate(0 344.98)">UL<tspan class="cls-4" x="130.36" y="0">L</tspan><tspan class="cls-5" x="184.98" y="0">A</tspan><tspan class="cls-6" x="259.25" y="0">SS</tspan></text><path d="M55.88,388.37V377.22h.82v11.15Zm.59-5.13v-.77h7.42v.77Zm7.19,5.13V377.22h.83v11.15Z" transform="translate(-3.73 -7.3)"/><path d="M73,388.37l4.2-11.15h1.65l4.33,11.15h-.85l-4.14-10.68.5.28H77.33l.51-.28-4,10.68Zm2-3.76.29-.75h5.53l.29.75Z" transform="translate(-3.73 -7.3)"/><path d="M91.74,388.37V377.18h.82v11.19Zm.53-4.26v-.75H95a3.08,3.08,0,0,0,1.62-.37,2.3,2.3,0,0,0,.9-1,3.38,3.38,0,0,0,0-2.74,2.3,2.3,0,0,0-.9-1,3.18,3.18,0,0,0-1.62-.37H92.27v-.74h2.58a4.41,4.41,0,0,1,2.12.45,2.85,2.85,0,0,1,1.22,1.21,3.59,3.59,0,0,1,.4,1.71v.18a3.58,3.58,0,0,1-.4,1.7A2.84,2.84,0,0,1,97,383.66a4.41,4.41,0,0,1-2.12.45Z" transform="translate(-3.73 -7.3)"/><path d="M107.31,388.37V377.18h.82v11.19Zm.53-4.26v-.75h2.69a3.08,3.08,0,0,0,1.62-.37,2.3,2.3,0,0,0,.9-1,3.38,3.38,0,0,0,0-2.74,2.3,2.3,0,0,0-.9-1,3.18,3.18,0,0,0-1.62-.37h-2.69v-.74h2.58a4.39,4.39,0,0,1,2.12.45,2.85,2.85,0,0,1,1.22,1.21,3.59,3.59,0,0,1,.4,1.71v.18a3.58,3.58,0,0,1-.4,1.7,2.84,2.84,0,0,1-1.22,1.23,4.39,4.39,0,0,1-2.12.45Z" transform="translate(-3.73 -7.3)"/><path d="M122.91,388.37V377.22h.82v11.15Z" transform="translate(-3.73 -7.3)"/><path d="M133.59,388.37V377.22H135l6.53,10.4h.49l-.3.21V377.22h.8v11.15H141.1L134.57,378h-.49l.31-.21v10.61Z" transform="translate(-3.73 -7.3)"/><path d="M152.39,388.37V377.22h.82v11.15ZM153,378v-.75h5.56V378Zm0,5.11v-.76h5.19v.76Zm0,5.29v-.75h5.74v.75Z" transform="translate(-3.73 -7.3)"/><path d="M171.07,388.62a5.51,5.51,0,0,1-2.37-.45,3.25,3.25,0,0,1-1.42-1.23,3.45,3.45,0,0,1-.47-1.78h.83a2.61,2.61,0,0,0,.35,1.37,2.48,2.48,0,0,0,1.13,1,4.56,4.56,0,0,0,1.95.36,4.81,4.81,0,0,0,1.86-.32,2.35,2.35,0,0,0,1.12-.88,2.25,2.25,0,0,0,.38-1.29,2,2,0,0,0-.67-1.53,3.42,3.42,0,0,0-2-.77l-1.33-.11a3.56,3.56,0,0,1-2.19-.88,2.63,2.63,0,0,1-.81-2,3.08,3.08,0,0,1,.41-1.6,2.94,2.94,0,0,1,1.23-1.13,4.47,4.47,0,0,1,2-.42,4.33,4.33,0,0,1,2.06.45,3.09,3.09,0,0,1,1.27,1.21,3.34,3.34,0,0,1,.44,1.7H174a2.73,2.73,0,0,0-.3-1.27,2.4,2.4,0,0,0-1-1,3.43,3.43,0,0,0-1.68-.37,3.51,3.51,0,0,0-1.64.33,2.16,2.16,0,0,0-.92.87,2.42,2.42,0,0,0-.3,1.19,1.91,1.91,0,0,0,.59,1.46,2.75,2.75,0,0,0,1.69.66l1.32.1a4.89,4.89,0,0,1,1.89.52,3.12,3.12,0,0,1,1.17,1.07,2.85,2.85,0,0,1,.39,1.48,2.92,2.92,0,0,1-.49,1.67,3.2,3.2,0,0,1-1.42,1.17A5.65,5.65,0,0,1,171.07,388.62Z" transform="translate(-3.73 -7.3)"/><path d="M187.92,388.62a5.49,5.49,0,0,1-2.36-.45,3.2,3.2,0,0,1-1.42-1.23,3.37,3.37,0,0,1-.48-1.78h.83a2.62,2.62,0,0,0,.36,1.37,2.45,2.45,0,0,0,1.12,1,4.59,4.59,0,0,0,1.95.36,4.83,4.83,0,0,0,1.87-.32,2.45,2.45,0,0,0,1.12-.88,2.25,2.25,0,0,0,.37-1.29,2,2,0,0,0-.67-1.53,3.42,3.42,0,0,0-2.05-.77l-1.32-.11a3.59,3.59,0,0,1-2.2-.88,2.63,2.63,0,0,1-.81-2,3.17,3.17,0,0,1,.41-1.6,3,3,0,0,1,1.24-1.13,4.42,4.42,0,0,1,2-.42,4.33,4.33,0,0,1,2.06.45,3.09,3.09,0,0,1,1.27,1.21,3.34,3.34,0,0,1,.44,1.7h-.83a2.73,2.73,0,0,0-.3-1.27,2.28,2.28,0,0,0-1-1,3.43,3.43,0,0,0-1.68-.37,3.54,3.54,0,0,0-1.64.33,2.22,2.22,0,0,0-.92.87,2.42,2.42,0,0,0-.3,1.19,1.91,1.91,0,0,0,.59,1.46,2.78,2.78,0,0,0,1.69.66l1.33.1a4.84,4.84,0,0,1,1.88.52,3,3,0,0,1,1.17,1.07,2.85,2.85,0,0,1,.4,1.48,3,3,0,0,1-.49,1.67,3.32,3.32,0,0,1-1.42,1.17A5.7,5.7,0,0,1,187.92,388.62Z" transform="translate(-3.73 -7.3)"/><path d="M213.4,388.62a4.08,4.08,0,0,1-1.82-.4,3.25,3.25,0,0,1-1.32-1.13,2.87,2.87,0,0,1-.49-1.66v-.16a3.16,3.16,0,0,1,.62-1.94,4.47,4.47,0,0,1,1.52-1.35l.41.61a3.3,3.3,0,0,0-1.28,1.14,2.91,2.91,0,0,0-.48,1.63,2.33,2.33,0,0,0,.41,1.39,2.54,2.54,0,0,0,1.06.85,3.37,3.37,0,0,0,1.37.29,3,3,0,0,0,2-.69,4.15,4.15,0,0,0,1.21-2,10.58,10.58,0,0,0,.41-3.12h.75a11.67,11.67,0,0,1-.28,2.68,6.49,6.49,0,0,1-.81,2.07,3.79,3.79,0,0,1-1.37,1.33A3.89,3.89,0,0,1,213.4,388.62Zm4.06-.25-4.81-5.1a14,14,0,0,1-1-1.22,4.2,4.2,0,0,1-.56-1,3.48,3.48,0,0,1-.17-1.1,3,3,0,0,1,.35-1.5,2.26,2.26,0,0,1,1.1-.95,4.81,4.81,0,0,1,1.92-.32l1.16,0c.41,0,.81.07,1.19.12V378q-.39-.06-.84-.09l-.87-.05h-.79a2.71,2.71,0,0,0-1.85.52,2,2,0,0,0-.58,1.54,2.82,2.82,0,0,0,.35,1.4,7.89,7.89,0,0,0,1.12,1.44l5.3,5.59ZM215,382.2v-.67h3.74v.67Z" transform="translate(-3.73 -7.3)"/><path d="M237,388.41V377.18h.82v11.23Zm.54,0v-.76h3.29a5.26,5.26,0,0,0,2.15-.4,4.25,4.25,0,0,0,1.5-1.08,4.45,4.45,0,0,0,.89-1.57,5.56,5.56,0,0,0,.3-1.82,5.67,5.67,0,0,0-.3-1.86,4.17,4.17,0,0,0-2.42-2.6,5.46,5.46,0,0,0-2.12-.38h-3.29v-.76h3.2a6.52,6.52,0,0,1,2.57.46,5.11,5.11,0,0,1,2.85,3,5.76,5.76,0,0,1,.35,2v.24a6.23,6.23,0,0,1-.33,2,5.37,5.37,0,0,1-1.05,1.78,5.27,5.27,0,0,1-1.79,1.27,6.42,6.42,0,0,1-2.6.48Z" transform="translate(-3.73 -7.3)"/><path d="M255.29,388.37V377.22h.82v11.15Zm.56-10.4v-.75h5.56V378Zm0,5.11v-.76H261v.76Zm0,5.29v-.75h5.74v.75Z" transform="translate(-3.73 -7.3)"/><path d="M270.63,388.37V377.22h.83v11.15Zm.54,0v-.75h5.37v.75Z" transform="translate(-3.73 -7.3)"/><path d="M284.93,388.37V377.22h.83v11.15Z" transform="translate(-3.73 -7.3)"/><path d="M300.38,388.62a6.08,6.08,0,0,1-2.51-.48,5,5,0,0,1-1.75-1.32,5.27,5.27,0,0,1-1-1.85,6.59,6.59,0,0,1-.34-2.1v-.25a6.31,6.31,0,0,1,.34-2.06,5.66,5.66,0,0,1,1-1.84,4.84,4.84,0,0,1,1.68-1.31,5.88,5.88,0,0,1,4.7,0,4.15,4.15,0,0,1,1.65,1.39,4.5,4.5,0,0,1,.77,2.08h-.84a3.45,3.45,0,0,0-.68-1.75,3.54,3.54,0,0,0-1.39-1.08,4.82,4.82,0,0,0-3.8,0,4.19,4.19,0,0,0-1.43,1.09,5,5,0,0,0-.89,1.61,6.28,6.28,0,0,0-.3,2,6.7,6.7,0,0,0,.29,2,4.67,4.67,0,0,0,.88,1.63,4.2,4.2,0,0,0,1.5,1.11,5.14,5.14,0,0,0,2.12.4,5.31,5.31,0,0,0,2.35-.49,3.84,3.84,0,0,0,1.59-1.34L304,387.1v-3.3h.79v2.93a4.91,4.91,0,0,1-1.79,1.38A6.14,6.14,0,0,1,300.38,388.62ZM300,384v-.7h5.83v.7Z" transform="translate(-3.73 -7.3)"/><path d="M314.41,388.37V377.22h.83v11.15Zm.6-5.13v-.77h7.42v.77Zm7.19,5.13V377.22H323v11.15Z" transform="translate(-3.73 -7.3)"/><path d="M331.45,378v-.75h8V378Zm3.57,10.4V377.71h.82v10.66Z" transform="translate(-3.73 -7.3)"/></svg>