<svg id="Layer_1" data-name="Layer 1" xmlns="http://www.w3.org/2000/svg" viewBox="0 0 200 52.98"><defs><style>.cls-1{fill:#f8be0a;}.cls-2{fill:#c6c6c6;}.cls-3{font-size:29.23px;font-family:Sora-Medium, Sora;font-weight:500;}.cls-4{letter-spacing:0.01em;}.cls-5{letter-spacing:0em;}</style></defs><path class="cls-1" d="M72.19,17S64,18,64,30.92v18s-1,17.6-25,17.5H37.25c-24,.1-25-17.5-25-17.5v-18c0-13-8.2-14-8.2-14,14.22-.05,14.43,12.67,14.43,12.67s0,8.05.36,19.88S38.13,60.93,38.13,60.93s18.95.42,19.26-11.42.36-19.88.36-19.88S58,16.91,72.19,17Z" transform="translate(0 -16.96)"/><path class="cls-1" d="M57.75,36.21c-13.72,0-17.86,6-19,10.56l-.34,1.79-.19,1,0,.28-.06-.28h0l-.2-1h0v0l-.32-1.68v0c-1.18-4.53-5.31-10.6-19-10.56-21.89.08-18.3,0-18.3,0S1.7,34,12.06,33.8c9.49-.14,25.39-3.07,26.05,13,0,.34,0,.7,0,1.06,0-.36,0-.72,0-1.06.66-16,16.55-13.11,26.05-13,10.36.16,11.84,2.41,11.84,2.41S79.63,36.29,57.75,36.21Z" transform="translate(0 -16.96)"/><path d="M48.14,47.1A11.16,11.16,0,0,1,38,54.43a11.05,11.05,0,0,1-9.86-6.69,12.7,12.7,0,0,0,20-.64Z" transform="translate(0 -16.96)"/><circle cx="48.14" cy="30.14" r="1.28"/><circle cx="28.13" cy="30.14" r="1.28"/><ellipse class="cls-2" cx="38.13" cy="51.74" rx="19" ry="1.25"/><text class="cls-3" transform="translate(82.57 33.09)">UL<tspan class="cls-4" x="39" y="0">L</tspan><tspan class="cls-5" x="55.34" y="0">A</tspan><tspan x="77.55" y="0">SS</tspan></text><path d="M98.17,60.84V57.51h.25v3.33Zm.18-1.53v-.23h2.22v.23Zm2.15,1.53V57.51h.25v3.33Z" transform="translate(0 -16.96)"/><path d="M103.3,60.84l1.26-3.33h.49l1.3,3.33h-.26l-1.24-3.19.15.08h-.41l.15-.08-1.19,3.19Zm.6-1.12.08-.22h1.66l.08.22Z" transform="translate(0 -16.96)"/><path d="M108.9,60.84V57.5h.25v3.34Zm.16-1.27v-.22h.8a1,1,0,0,0,.49-.11.71.71,0,0,0,.27-.3,1.07,1.07,0,0,0,.08-.41,1.11,1.11,0,0,0-.08-.41.69.69,0,0,0-.27-.29,1,1,0,0,0-.49-.11h-.8V57.5h.77a1.28,1.28,0,0,1,.63.13.86.86,0,0,1,.37.36,1.14,1.14,0,0,1,.12.52v.05a1.07,1.07,0,0,1-.12.51.86.86,0,0,1-.37.36,1.28,1.28,0,0,1-.63.14Z" transform="translate(0 -16.96)"/><path d="M113.56,60.84V57.5h.24v3.34Zm.16-1.27v-.22h.8a1,1,0,0,0,.48-.11.6.6,0,0,0,.27-.3.91.91,0,0,0,.09-.41,1,1,0,0,0-.09-.41.58.58,0,0,0-.27-.29,1,1,0,0,0-.48-.11h-.8V57.5h.77a1.28,1.28,0,0,1,.63.13.86.86,0,0,1,.37.36,1.14,1.14,0,0,1,.12.52v.05a1.07,1.07,0,0,1-.12.51.86.86,0,0,1-.37.36,1.28,1.28,0,0,1-.63.14Z" transform="translate(0 -16.96)"/><path d="M118.22,60.84V57.51h.25v3.33Z" transform="translate(0 -16.96)"/><path d="M121.42,60.84V57.51h.43l2,3.11H124l-.09.06V57.51h.24v3.33h-.43l-2-3.11h-.14l.09-.06v3.17Z" transform="translate(0 -16.96)"/><path d="M127,60.84V57.51h.25v3.33Zm.17-3.11v-.22h1.66v.22Zm0,1.53V59h1.55v.22Zm0,1.58v-.22h1.72v.22Z" transform="translate(0 -16.96)"/><path d="M132.63,60.92a1.67,1.67,0,0,1-.71-.13,1,1,0,0,1-.42-.37,1.09,1.09,0,0,1-.14-.54h.24a.85.85,0,0,0,.11.42.82.82,0,0,0,.34.29,1.37,1.37,0,0,0,.58.1,1.53,1.53,0,0,0,.56-.09.69.69,0,0,0,.33-.27.64.64,0,0,0,.12-.38.63.63,0,0,0-.2-.46,1,1,0,0,0-.62-.23l-.39,0a1.11,1.11,0,0,1-.66-.27.78.78,0,0,1-.24-.6.94.94,0,0,1,.12-.47.87.87,0,0,1,.37-.34,1.45,1.45,0,0,1,1.22,0,.88.88,0,0,1,.38.36,1,1,0,0,1,.13.51h-.24a.79.79,0,0,0-.09-.38.68.68,0,0,0-.29-.29,1.06,1.06,0,0,0-.5-.11,1,1,0,0,0-.49.1.65.65,0,0,0-.28.26.73.73,0,0,0-.09.35.56.56,0,0,0,.18.44.82.82,0,0,0,.5.2l.4,0a1.59,1.59,0,0,1,.57.15.9.9,0,0,1,.34.33.81.81,0,0,1,.12.44,1,1,0,0,1-.14.5,1,1,0,0,1-.43.35A1.69,1.69,0,0,1,132.63,60.92Z" transform="translate(0 -16.96)"/><path d="M137.67,60.92a1.67,1.67,0,0,1-.71-.13,1,1,0,0,1-.42-.37,1.09,1.09,0,0,1-.14-.54h.25a.84.84,0,0,0,.1.42.82.82,0,0,0,.34.29,1.4,1.4,0,0,0,.58.1,1.49,1.49,0,0,0,.56-.09.77.77,0,0,0,.34-.27.7.7,0,0,0,.11-.38.63.63,0,0,0-.2-.46,1,1,0,0,0-.62-.23l-.39,0a1.11,1.11,0,0,1-.66-.27.78.78,0,0,1-.24-.6.94.94,0,0,1,.12-.47.87.87,0,0,1,.37-.34,1.28,1.28,0,0,1,.61-.13,1.32,1.32,0,0,1,.62.14,1,1,0,0,1,.38.36,1.07,1.07,0,0,1,.13.51h-.25a.79.79,0,0,0-.09-.38.68.68,0,0,0-.29-.29,1,1,0,0,0-.5-.11,1,1,0,0,0-.49.1.65.65,0,0,0-.28.26.73.73,0,0,0-.09.35.56.56,0,0,0,.18.44.85.85,0,0,0,.51.2l.39,0a1.59,1.59,0,0,1,.57.15,1,1,0,0,1,.35.33.9.9,0,0,1,.11.44.88.88,0,0,1-.14.5,1,1,0,0,1-.43.35A1.69,1.69,0,0,1,137.67,60.92Z" transform="translate(0 -16.96)"/><path d="M145.29,60.92a1.25,1.25,0,0,1-.54-.12,1,1,0,0,1-.4-.34.91.91,0,0,1-.14-.49v0a1,1,0,0,1,.18-.58,1.5,1.5,0,0,1,.46-.41l.12.19a.9.9,0,0,0-.38.34.8.8,0,0,0-.14.48.7.7,0,0,0,.12.42.79.79,0,0,0,.31.26,1.15,1.15,0,0,0,.41.08.89.89,0,0,0,.61-.21,1.28,1.28,0,0,0,.37-.59,3.25,3.25,0,0,0,.12-.94h.22a4,4,0,0,1-.08.81,2,2,0,0,1-.25.61,1,1,0,0,1-.4.4A1.12,1.12,0,0,1,145.29,60.92Zm1.22-.08-1.44-1.52a3.53,3.53,0,0,1-.3-.36,1.07,1.07,0,0,1-.17-.31,1.08,1.08,0,0,1,.05-.78.73.73,0,0,1,.33-.29,1.57,1.57,0,0,1,.58-.09h.34l.36,0v.22l-.25,0h-.5a.82.82,0,0,0-.55.15.59.59,0,0,0-.18.46.82.82,0,0,0,.11.42,2.15,2.15,0,0,0,.33.43l1.59,1.67ZM145.78,59v-.2h1.12V59Z" transform="translate(0 -16.96)"/><path d="M152.35,60.86V57.5h.24v3.36Zm.15,0v-.23h1a1.56,1.56,0,0,0,.64-.12,1.36,1.36,0,0,0,.45-.32,1.47,1.47,0,0,0,.27-.47,1.71,1.71,0,0,0,.09-.55,1.63,1.63,0,0,0-.09-.55,1.37,1.37,0,0,0-.27-.47,1.34,1.34,0,0,0-.45-.31,1.56,1.56,0,0,0-.64-.12h-1V57.5h1a1.83,1.83,0,0,1,.77.14,1.41,1.41,0,0,1,.54.37,1.39,1.39,0,0,1,.31.52,1.61,1.61,0,0,1,.11.61v.07a1.74,1.74,0,0,1-.1.59,1.57,1.57,0,0,1-.31.53,1.43,1.43,0,0,1-.54.38,1.84,1.84,0,0,1-.78.15Z" transform="translate(0 -16.96)"/><path d="M157.83,60.84V57.51h.24v3.33Zm.17-3.11v-.22h1.66v.22Zm0,1.53V59h1.55v.22Zm0,1.58v-.22h1.71v.22Z" transform="translate(0 -16.96)"/><path d="M162.42,60.84V57.51h.24v3.33Zm.16,0v-.22h1.6v.22Z" transform="translate(0 -16.96)"/><path d="M166.69,60.84V57.51h.25v3.33Z" transform="translate(0 -16.96)"/><path d="M171.32,60.92a2,2,0,0,1-.76-.14,1.48,1.48,0,0,1-.52-.4,1.66,1.66,0,0,1-.31-.55,2,2,0,0,1-.1-.63v-.07a1.87,1.87,0,0,1,.1-.62A1.66,1.66,0,0,1,170,58a1.28,1.28,0,0,1,.5-.39,1.57,1.57,0,0,1,.7-.15,1.61,1.61,0,0,1,.71.15,1.25,1.25,0,0,1,.49.42,1.29,1.29,0,0,1,.23.62h-.25a1,1,0,0,0-.2-.52,1.14,1.14,0,0,0-.42-.33,1.43,1.43,0,0,0-.56-.11,1.37,1.37,0,0,0-.58.12,1.23,1.23,0,0,0-.42.33,1.42,1.42,0,0,0-.27.48,1.95,1.95,0,0,0,0,1.17,1.36,1.36,0,0,0,.26.49,1.25,1.25,0,0,0,.45.33,1.56,1.56,0,0,0,.64.12,1.6,1.6,0,0,0,.7-.15,1.14,1.14,0,0,0,.47-.39l-.1.31v-1h.24v.88a1.61,1.61,0,0,1-.54.41A1.86,1.86,0,0,1,171.32,60.92Zm-.13-1.38v-.21h1.75v.21Z" transform="translate(0 -16.96)"/><path d="M175.51,60.84V57.51h.25v3.33Zm.18-1.53v-.23h2.22v.23Zm2.15,1.53V57.51h.25v3.33Z" transform="translate(0 -16.96)"/><path d="M180.61,57.73v-.22H183v.22Zm1.07,3.11V57.66h.24v3.18Z" transform="translate(0 -16.96)"/></svg>